<svg width="24" height="24" viewBox="0 0 24 24" fill="none" xmlns="http://www.w3.org/2000/svg">
<g clip-path="url(#clip0_712_13445)">
<path d="M8.4 0C7.76348 0 7.15303 0.252856 6.70294 0.702944C6.25286 1.15303 6 1.76348 6 2.4H16.8C17.4365 2.4 18.047 2.65286 18.4971 3.10294C18.9471 3.55303 19.2 4.16348 19.2 4.8V19.2C19.8365 19.2 20.447 18.9471 20.8971 18.4971C21.3471 18.047 21.6 17.4365 21.6 16.8V2.4C21.6 1.76348 21.3471 1.15303 20.8971 0.702944C20.447 0.252856 19.8365 0 19.2 0L8.4 0Z" fill="#0071BD"/>
<path d="M15.5984 24.0016C16.235 24.0016 16.8454 23.7487 17.2955 23.2986C17.7456 22.8485 17.9984 22.2381 17.9984 21.6016V6.00156C17.9984 5.36504 17.7456 4.75459 17.2955 4.30451C16.8454 3.85442 16.235 3.60156 15.5984 3.60156H4.79844C4.16192 3.60156 3.55147 3.85442 3.10138 4.30451C2.65129 4.75459 2.39844 5.36504 2.39844 6.00156V21.6016C2.39844 22.2381 2.65129 22.8485 3.10138 23.2986C3.55147 23.7487 4.16192 24.0016 4.79844 24.0016H15.5984ZM10.7984 6.00156H15.5984V12.0016H10.7984V6.00156ZM4.79844 6.00156H9.59844V7.20156H4.79844V6.00156ZM4.79844 8.40156H9.59844V9.60156H4.79844V8.40156ZM4.79844 10.8016H9.59844V12.0016H4.79844V10.8016ZM4.79844 13.2016H15.5984V14.4016H4.79844V13.2016ZM4.79844 15.6016H15.5984V16.8016H4.79844V15.6016ZM4.79844 18.0016H15.5984V19.2016H4.79844V18.0016Z" fill="#0071BD"/>
</g>
<defs>
<clipPath id="clip0_712_13445">
<rect width="24" height="24" fill="white"/>
</clipPath>
</defs>
</svg>
