<svg width="44" height="44" viewBox="0 0 44 44" fill="none" xmlns="http://www.w3.org/2000/svg">
<path d="M44 22C44 34.15 34.15 44 22 44C9.84998 44 0 34.15 0 22C0 9.84998 9.84998 0 22 0C34.15 0 44 9.84998 44 22ZM3.66669 22C3.66669 32.125 11.875 40.3333 22 40.3333C32.125 40.3333 40.3333 32.125 40.3333 22C40.3333 11.875 32.125 3.66669 22 3.66669C11.875 3.66669 3.66669 11.875 3.66669 22Z" fill="#F7931E" fill-opacity="0.8"/>
<path d="M32.4752 30.9414C33.1749 31.6411 33.1749 32.7756 32.4752 33.4752C31.7756 34.1749 30.6411 34.1749 29.9414 33.4752L22.25 25.7838L14.5585 33.4752C13.8588 34.1749 12.7244 34.1749 12.0247 33.4752C11.325 32.7756 11.325 31.6411 12.0247 30.9414L20.9831 21.9831C21.6827 21.2834 22.8172 21.2834 23.5169 21.9831L32.4752 30.9414Z" fill="#F7931E" fill-opacity="0.8"/>
<path d="M32.4752 18.4024C33.1749 19.102 33.1749 20.2365 32.4752 20.9362C31.7756 21.6359 30.6411 21.6359 29.9414 20.9362L22.25 13.2447L14.5585 20.9362C13.8588 21.6359 12.7244 21.6359 12.0247 20.9362C11.325 20.2365 11.325 19.102 12.0247 18.4024L20.9831 9.44401C21.6827 8.74434 22.8172 8.74434 23.5169 9.44401L32.4752 18.4024Z" fill="#F7931E" fill-opacity="0.8"/>
<circle cx="22" cy="22" r="22" transform="rotate(-180 22 22)" fill="white" fill-opacity="0.35"/>
</svg>
