<svg width="24" height="24" viewBox="0 0 24 24" fill="none" xmlns="http://www.w3.org/2000/svg">
<path d="M2.87813 1.1875C4.40203 2.73156 5.42859 4.52312 6.24891 6.30203C6.47859 5.73953 6.59109 5.26141 7.13484 4.78797C9.33797 6.03016 9.96141 6.81766 10.1536 8.55672H13.2848C13.3692 6.86922 13.6411 5.91766 14.9958 4.675C15.7411 5.25672 15.9333 5.93641 16.313 6.58328C16.7114 4.75984 18.0614 2.77328 19.9083 1.80719C17.4473 1.26531 14.8223 1.78703 12.7223 2.62937C13.1583 2.92891 13.7864 3.15578 13.9833 3.54344C13.0927 4.00234 12.1317 5.52859 11.5833 6.79422C10.9223 5.61766 9.54422 4.28922 8.20828 3.62359C8.74734 3.08078 9.28641 2.88344 9.82547 2.55062C8.27859 1.68953 5.50828 1.26297 2.87813 1.1875ZM3.29297 9.40047L1.35938 14.5567H6.45984L8.39109 9.40047H3.29297ZM9.60984 9.40047L11.5411 14.5567H22.6411L20.7098 9.40047H9.60984ZM8.57859 11.3036L7.04109 15.4005H3.42234V22.8067H8.57859V11.3036ZM9.42234 11.3036V22.8067H20.5786V15.4005H10.9598L9.42234 11.3036Z" fill="currentColor"/>
</svg>
