<svg width="20" height="20" viewBox="0 0 20 20" fill="none" xmlns="http://www.w3.org/2000/svg">
<g clip-path="url(#clip0_830_1385)">
<path d="M13.7487 3.33594V6.8776L16.132 8.28594L15.507 9.3026L12.4987 7.5026V3.33594H13.7487ZM13.332 10.8359C14.4654 10.8359 15.4487 10.4193 16.2487 9.61094C17.082 8.8026 17.4987 7.8276 17.4987 6.66927C17.4987 5.53594 17.082 4.5526 16.2487 3.7526C15.4487 2.91927 14.4654 2.5026 13.332 2.5026C12.1737 2.5026 11.1987 2.91927 10.3904 3.7526C9.58203 4.5526 9.16537 5.53594 9.16537 6.66927C9.16537 7.8276 9.58203 8.8026 10.3904 9.61094C11.1987 10.4193 12.1737 10.8359 13.332 10.8359ZM11.2487 15.8359C11.6154 15.8359 11.9154 15.7026 12.1487 15.4526C12.382 15.2026 12.4987 14.9109 12.4987 14.5859C12.4987 14.2359 12.382 13.9443 12.1487 13.6943C11.9154 13.4443 11.6154 13.3359 11.2487 13.3359C10.882 13.3359 10.582 13.4443 10.3487 13.6943C10.1154 13.9443 9.9987 14.2359 9.9987 14.5859C9.9987 14.9109 10.1154 15.2026 10.3487 15.4526C10.582 15.7026 10.882 15.8359 11.2487 15.8359ZM2.4987 10.8359H9.25703C8.08203 9.7026 7.4987 8.33594 7.4987 6.66927H2.4987V10.8359ZM3.7487 15.8359C4.11536 15.8359 4.41536 15.7026 4.6487 15.4526C4.88203 15.2026 4.9987 14.9109 4.9987 14.5859C4.9987 14.2359 4.88203 13.9443 4.6487 13.6943C4.41536 13.4443 4.11536 13.3359 3.7487 13.3359C3.38203 13.3359 3.08203 13.4443 2.8487 13.6943C2.61536 13.9443 2.4987 14.2359 2.4987 14.5859C2.4987 14.9109 2.61536 15.2026 2.8487 15.4526C3.08203 15.7026 3.38203 15.8359 3.7487 15.8359ZM13.332 0.835938C14.932 0.835938 16.3154 1.39427 17.457 2.54427C18.607 3.68594 19.1654 5.06927 19.1654 6.66927C19.1654 8.14427 18.6987 9.41094 17.732 10.4943C16.7737 11.5693 15.582 12.2193 14.1654 12.4276V15.0026C14.1654 15.7026 13.8904 16.3193 13.332 16.8359V18.3359C13.332 18.5609 13.2404 18.7526 13.082 18.9276C12.9154 19.0943 12.732 19.1693 12.4987 19.1693H11.6654C11.4404 19.1693 11.2487 19.0943 11.0737 18.9276C10.9958 18.8502 10.9342 18.758 10.8927 18.6563C10.8512 18.5547 10.8306 18.4457 10.832 18.3359V17.5026H4.16536V18.3359C4.16536 18.5609 4.09036 18.7526 3.9237 18.9276C3.7487 19.0943 3.55703 19.1693 3.33203 19.1693H2.4987C2.26536 19.1693 2.08203 19.0943 1.91536 18.9276C1.75703 18.7526 1.66536 18.5609 1.66536 18.3359V16.8359C1.10703 16.3193 0.832031 15.7026 0.832031 15.0026V6.66927C0.832031 5.3526 1.39036 4.46094 2.54036 4.0026C3.68203 3.5526 5.34036 3.33594 7.4987 3.33594H8.00703C8.24036 3.33594 8.40703 3.36094 8.51537 3.36094C9.69036 1.66927 11.2904 0.835938 13.332 0.835938Z" fill="#0071BD"/>
</g>
<defs>
<clipPath id="clip0_830_1385">
<rect width="20" height="20" fill="white"/>
</clipPath>
</defs>
</svg>
