<svg width="20" height="20" viewBox="0 0 20 20" fill="none" xmlns="http://www.w3.org/2000/svg">
<path fill-rule="evenodd" clip-rule="evenodd" d="M10.0013 1.66406C6.8588 1.66406 5.28714 1.66406 4.3113 2.64073C3.42464 3.52656 3.34297 4.9024 3.33464 7.4974H2.5013C2.28029 7.4974 2.06833 7.58519 1.91205 7.74147C1.75577 7.89775 1.66797 8.10972 1.66797 8.33073V9.16406C1.66797 9.29343 1.69809 9.42103 1.75595 9.53674C1.8138 9.65245 1.89781 9.75311 2.0013 9.83073L3.33464 10.8307C3.34297 13.4257 3.42464 14.8016 4.3113 15.6874C4.51297 15.8899 4.73964 16.0499 5.0013 16.1766V17.4974C5.0013 17.7184 5.0891 17.9304 5.24538 18.0867C5.40166 18.2429 5.61362 18.3307 5.83464 18.3307H7.08464C7.30565 18.3307 7.51761 18.2429 7.67389 18.0867C7.83017 17.9304 7.91797 17.7184 7.91797 17.4974V16.6491C8.5238 16.6641 9.21297 16.6641 10.0013 16.6641C10.7896 16.6641 11.4788 16.6641 12.0846 16.6491V17.4974C12.0846 17.7184 12.1724 17.9304 12.3287 18.0867C12.485 18.2429 12.697 18.3307 12.918 18.3307H14.168C14.389 18.3307 14.6009 18.2429 14.7572 18.0867C14.9135 17.9304 15.0013 17.7184 15.0013 17.4974V16.1766C15.2573 16.0536 15.4905 15.8882 15.6913 15.6874C16.578 14.8016 16.6605 13.4257 16.668 10.8307L18.0013 9.83073C18.1048 9.75311 18.1888 9.65245 18.2467 9.53674C18.3045 9.42103 18.3346 9.29343 18.3346 9.16406V8.33073C18.3346 8.10972 18.2468 7.89775 18.0906 7.74147C17.9343 7.58519 17.7223 7.4974 17.5013 7.4974H16.668C16.6596 4.9024 16.578 3.52656 15.6913 2.64073C14.7155 1.66406 13.1438 1.66406 10.0013 1.66406ZM4.58464 7.91406C4.58464 9.0924 4.58464 9.68156 4.9513 10.0474C5.31714 10.4141 5.9063 10.4141 7.08464 10.4141H12.918C14.0963 10.4141 14.6855 10.4141 15.0513 10.0474C15.418 9.68156 15.418 9.0924 15.418 7.91406V5.83073C15.418 4.6524 15.418 4.06323 15.0513 3.6974C14.6863 3.33073 14.0971 3.33073 12.918 3.33073H7.08464C5.9063 3.33073 5.31714 3.33073 4.9513 3.6974C4.58464 4.0624 4.58464 4.65156 4.58464 5.83073V7.91406ZM5.20964 13.3307C5.20964 13.165 5.27548 13.006 5.39269 12.8888C5.5099 12.7716 5.66888 12.7057 5.83464 12.7057H7.08464C7.2504 12.7057 7.40937 12.7716 7.52658 12.8888C7.64379 13.006 7.70964 13.165 7.70964 13.3307C7.70964 13.4965 7.64379 13.6555 7.52658 13.7727C7.40937 13.8899 7.2504 13.9557 7.08464 13.9557H5.83464C5.66888 13.9557 5.5099 13.8899 5.39269 13.7727C5.27548 13.6555 5.20964 13.4965 5.20964 13.3307ZM14.793 13.3307C14.793 13.165 14.7271 13.006 14.6099 12.8888C14.4927 12.7716 14.3337 12.7057 14.168 12.7057H12.918C12.7522 12.7057 12.5932 12.7716 12.476 12.8888C12.3588 13.006 12.293 13.165 12.293 13.3307C12.293 13.4965 12.3588 13.6555 12.476 13.7727C12.5932 13.8899 12.7522 13.9557 12.918 13.9557H14.168C14.3337 13.9557 14.4927 13.8899 14.6099 13.7727C14.7271 13.6555 14.793 13.4965 14.793 13.3307Z" fill="#0071BD"/>
</svg>
