<svg width="49" height="48" viewBox="0 0 49 48" fill="none" xmlns="http://www.w3.org/2000/svg">
<path fill-rule="evenodd" clip-rule="evenodd" d="M24.5 4C16.958 4 13.186 4 10.844 6.344C8.716 8.47 8.52 11.772 8.5 18H6.5C5.96957 18 5.46086 18.2107 5.08579 18.5858C4.71071 18.9609 4.5 19.4696 4.5 20V22C4.5 22.3105 4.57229 22.6167 4.71115 22.8944C4.85 23.1721 5.05161 23.4137 5.3 23.6L8.5 26C8.52 32.228 8.716 35.53 10.844 37.656C11.328 38.142 11.872 38.526 12.5 38.83V42C12.5 42.5304 12.7107 43.0391 13.0858 43.4142C13.4609 43.7893 13.9696 44 14.5 44H17.5C18.0304 44 18.5391 43.7893 18.9142 43.4142C19.2893 43.0391 19.5 42.5304 19.5 42V39.964C20.954 40 22.608 40 24.5 40C26.392 40 28.046 40 29.5 39.964V42C29.5 42.5304 29.7107 43.0391 30.0858 43.4142C30.4609 43.7893 30.9696 44 31.5 44H34.5C35.0304 44 35.5391 43.7893 35.9142 43.4142C36.2893 43.0391 36.5 42.5304 36.5 42V38.83C37.1143 38.5349 37.6742 38.138 38.156 37.656C40.284 35.53 40.482 32.228 40.5 26L43.7 23.6C43.9484 23.4137 44.15 23.1721 44.2889 22.8944C44.4277 22.6167 44.5 22.3105 44.5 22V20C44.5 19.4696 44.2893 18.9609 43.9142 18.5858C43.5391 18.2107 43.0304 18 42.5 18H40.5C40.48 11.772 40.284 8.47 38.156 6.344C35.814 4 32.042 4 24.5 4ZM11.5 19C11.5 21.828 11.5 23.242 12.38 24.12C13.258 25 14.672 25 17.5 25H31.5C34.328 25 35.742 25 36.62 24.12C37.5 23.242 37.5 21.828 37.5 19V14C37.5 11.172 37.5 9.758 36.62 8.88C35.744 8 34.33 8 31.5 8H17.5C14.672 8 13.258 8 12.38 8.88C11.5 9.756 11.5 11.17 11.5 14V19ZM13 32C13 31.6022 13.158 31.2206 13.4393 30.9393C13.7206 30.658 14.1022 30.5 14.5 30.5H17.5C17.8978 30.5 18.2794 30.658 18.5607 30.9393C18.842 31.2206 19 31.6022 19 32C19 32.3978 18.842 32.7794 18.5607 33.0607C18.2794 33.342 17.8978 33.5 17.5 33.5H14.5C14.1022 33.5 13.7206 33.342 13.4393 33.0607C13.158 32.7794 13 32.3978 13 32ZM36 32C36 31.6022 35.842 31.2206 35.5607 30.9393C35.2794 30.658 34.8978 30.5 34.5 30.5H31.5C31.1022 30.5 30.7206 30.658 30.4393 30.9393C30.158 31.2206 30 31.6022 30 32C30 32.3978 30.158 32.7794 30.4393 33.0607C30.7206 33.342 31.1022 33.5 31.5 33.5H34.5C34.8978 33.5 35.2794 33.342 35.5607 33.0607C35.842 32.7794 36 32.3978 36 32Z" fill="#F7931E"/>
</svg>
