<svg width="20" height="20" viewBox="0 0 20 20" fill="none" xmlns="http://www.w3.org/2000/svg">
<path d="M1.66406 10.0026C1.66406 6.8601 1.66406 5.28844 2.64073 4.3126C3.61656 3.33594 5.18823 3.33594 8.33073 3.33594H11.6641C14.8066 3.33594 16.3782 3.33594 17.3541 4.3126C18.3307 5.28844 18.3307 6.8601 18.3307 10.0026V11.6693C18.3307 14.8118 18.3307 16.3834 17.3541 17.3593C16.3782 18.3359 14.8066 18.3359 11.6641 18.3359H8.33073C5.18823 18.3359 3.61656 18.3359 2.64073 17.3593C1.66406 16.3834 1.66406 14.8118 1.66406 11.6693V10.0026Z" stroke="#0071BD" stroke-width="1.25"/>
<path d="M5.82812 3.33594V2.08594M14.1615 3.33594V2.08594" stroke="#0071BD" stroke-width="1.25" stroke-linecap="round"/>
<path d="M7.5 12.0859L8.75 10.8359V14.1693" stroke="#0071BD" stroke-width="1.25" stroke-linecap="round" stroke-linejoin="round"/>
<path d="M2.07812 7.5H17.9115M10.8281 13.3333V11.6667C10.8281 11.4457 10.9159 11.2337 11.0722 11.0774C11.2285 10.9211 11.4404 10.8333 11.6615 10.8333C11.8825 10.8333 12.0944 10.9211 12.2507 11.0774C12.407 11.2337 12.4948 11.4457 12.4948 11.6667V13.3333C12.4948 13.5543 12.407 13.7663 12.2507 13.9226C12.0944 14.0789 11.8825 14.1667 11.6615 14.1667C11.4404 14.1667 11.2285 14.0789 11.0722 13.9226C10.9159 13.7663 10.8281 13.5543 10.8281 13.3333Z" stroke="#0071BD" stroke-width="1.25" stroke-linecap="round"/>
</svg>
