<svg width="20" height="20" viewBox="0 0 20 20" fill="none" xmlns="http://www.w3.org/2000/svg">
<path d="M9.9974 11.1641L12.4141 13.5807C12.5668 13.7335 12.7613 13.8099 12.9974 13.8099C13.2335 13.8099 13.428 13.7335 13.5807 13.5807C13.7335 13.428 13.8099 13.2335 13.8099 12.9974C13.8099 12.7613 13.7335 12.5668 13.5807 12.4141L11.1641 9.9974L13.5807 7.58073C13.7335 7.42795 13.8099 7.23351 13.8099 6.9974C13.8099 6.76128 13.7335 6.56684 13.5807 6.41406C13.428 6.26128 13.2335 6.1849 12.9974 6.1849C12.7613 6.1849 12.5668 6.26128 12.4141 6.41406L9.9974 8.83073L7.58073 6.41406C7.42795 6.26128 7.23351 6.1849 6.9974 6.1849C6.76128 6.1849 6.56684 6.26128 6.41406 6.41406C6.26128 6.56684 6.1849 6.76128 6.1849 6.9974C6.1849 7.23351 6.26128 7.42795 6.41406 7.58073L8.83073 9.9974L6.41406 12.4141C6.26128 12.5668 6.1849 12.7613 6.1849 12.9974C6.1849 13.2335 6.26128 13.428 6.41406 13.5807C6.56684 13.7335 6.76128 13.8099 6.9974 13.8099C7.23351 13.8099 7.42795 13.7335 7.58073 13.5807L9.9974 11.1641ZM9.9974 18.3307C8.84462 18.3307 7.76128 18.1118 6.7474 17.6741C5.73351 17.2363 4.85156 16.6427 4.10156 15.8932C3.35156 15.1432 2.75795 14.2613 2.32073 13.2474C1.88351 12.2335 1.66462 11.1502 1.66406 9.9974C1.66406 8.84462 1.88295 7.76128 2.32073 6.7474C2.75851 5.73351 3.35212 4.85156 4.10156 4.10156C4.85156 3.35156 5.73351 2.75795 6.7474 2.32073C7.76128 1.88351 8.84462 1.66462 9.9974 1.66406C11.1502 1.66406 12.2335 1.88295 13.2474 2.32073C14.2613 2.75851 15.1432 3.35212 15.8932 4.10156C16.6432 4.85156 17.2371 5.73351 17.6749 6.7474C18.1127 7.76128 18.3313 8.84462 18.3307 9.9974C18.3307 11.1502 18.1118 12.2335 17.6741 13.2474C17.2363 14.2613 16.6427 15.1432 15.8932 15.8932C15.1432 16.6432 14.2613 17.2371 13.2474 17.6749C12.2335 18.1127 11.1502 18.3313 9.9974 18.3307ZM9.9974 16.6641C11.8585 16.6641 13.4349 16.0182 14.7266 14.7266C16.0182 13.4349 16.6641 11.8585 16.6641 9.9974C16.6641 8.13628 16.0182 6.5599 14.7266 5.26823C13.4349 3.97656 11.8585 3.33073 9.9974 3.33073C8.13628 3.33073 6.5599 3.97656 5.26823 5.26823C3.97656 6.5599 3.33073 8.13628 3.33073 9.9974C3.33073 11.8585 3.97656 13.4349 5.26823 14.7266C6.5599 16.0182 8.13628 16.6641 9.9974 16.6641Z" fill="#E11A1A"/>
</svg>
