<svg width="20" height="20" viewBox="0 0 20 20" fill="none" xmlns="http://www.w3.org/2000/svg">
<path d="M10.0013 1.66406C5.39297 1.66406 1.66797 5.38906 1.66797 9.9974C1.66797 14.6057 5.39297 18.3307 10.0013 18.3307C14.6096 18.3307 18.3346 14.6057 18.3346 9.9974C18.3346 5.38906 14.6096 1.66406 10.0013 1.66406ZM10.0013 16.6641C6.3263 16.6641 3.33464 13.6724 3.33464 9.9974C3.33464 6.3224 6.3263 3.33073 10.0013 3.33073C13.6763 3.33073 16.668 6.3224 16.668 9.9974C16.668 13.6724 13.6763 16.6641 10.0013 16.6641ZM12.993 5.83073L10.0013 8.8224L7.00963 5.83073L5.83464 7.00573L8.8263 9.9974L5.83464 12.9891L7.00963 14.1641L10.0013 11.1724L12.993 14.1641L14.168 12.9891L11.1763 9.9974L14.168 7.00573L12.993 5.83073Z" fill="#0071BD"/>
</svg>
