<svg width="20" height="20" viewBox="0 0 20 20" fill="none" xmlns="http://www.w3.org/2000/svg">
<path d="M8.19421 1.69262C8.28754 1.72428 8.37921 1.76262 8.46837 1.80595L9.53754 2.33262C9.68065 2.40306 9.83803 2.43969 9.99754 2.43969C10.157 2.43969 10.3144 2.40306 10.4575 2.33262L11.5267 1.80595C11.7967 1.67302 12.0903 1.59458 12.3906 1.57511C12.691 1.55565 12.9922 1.59554 13.2771 1.6925C13.5621 1.78946 13.8251 1.9416 14.0512 2.14022C14.2774 2.33885 14.4621 2.58007 14.595 2.85012L14.6559 2.98512L14.7084 3.12428L15.0917 4.25178C15.1959 4.55845 15.4367 4.79845 15.7425 4.90262L16.8709 5.28595C17.1795 5.39096 17.4622 5.56061 17.7 5.78358C17.9379 6.00655 18.1254 6.2777 18.2501 6.57892C18.3748 6.88014 18.4338 7.20451 18.4232 7.53035C18.4125 7.85619 18.3325 8.17601 18.1884 8.46845L17.6625 9.53762C17.5921 9.68073 17.5555 9.83811 17.5555 9.99762C17.5555 10.1571 17.5921 10.3145 17.6625 10.4576L18.1884 11.5268C18.3323 11.8192 18.4123 12.1389 18.4228 12.4647C18.4334 12.7904 18.3744 13.1147 18.2497 13.4158C18.125 13.7169 17.9375 13.988 17.6998 14.2109C17.462 14.4338 17.1794 14.6034 16.8709 14.7084L15.7425 15.0918C15.5916 15.1433 15.4545 15.2287 15.3418 15.3416C15.2291 15.4544 15.1438 15.5916 15.0925 15.7426L14.7084 16.8709C14.6033 17.1795 14.4337 17.4621 14.2108 17.6998C13.9879 17.9376 13.7168 18.1251 13.4157 18.2498C13.1146 18.3745 12.7903 18.4335 12.4646 18.4229C12.1388 18.4123 11.8191 18.3324 11.5267 18.1884L10.4575 17.6626C10.3144 17.5922 10.157 17.5555 9.99754 17.5555C9.83803 17.5555 9.68065 17.5922 9.53754 17.6626L8.46837 18.1884C8.17597 18.3324 7.85623 18.4123 7.53048 18.4229C7.20474 18.4335 6.88048 18.3745 6.57936 18.2498C6.27824 18.1251 6.00718 17.9376 5.78427 17.6998C5.56136 17.4621 5.39173 17.1795 5.28671 16.8709L4.90337 15.7426C4.8518 15.5916 4.76621 15.4544 4.65322 15.3417C4.54023 15.229 4.40286 15.1438 4.25171 15.0926L3.12421 14.7084C2.8156 14.6035 2.53293 14.4339 2.29507 14.2111C2.05721 13.9882 1.86963 13.7172 1.74486 13.416C1.62009 13.1149 1.56099 12.7906 1.57151 12.4648C1.58203 12.139 1.66193 11.8192 1.80587 11.5268L2.33254 10.4576C2.40298 10.3145 2.43961 10.1571 2.43961 9.99762C2.43961 9.83811 2.40298 9.68073 2.33254 9.53762L1.80587 8.46845C1.66193 8.176 1.58203 7.8562 1.57151 7.53041C1.56099 7.20462 1.62009 6.88034 1.74486 6.57921C1.86963 6.27808 2.05721 6.00703 2.29507 5.78416C2.53293 5.56129 2.8156 5.39172 3.12421 5.28678L4.25171 4.90345C4.40288 4.85198 4.5402 4.76645 4.65306 4.65345C4.76591 4.54046 4.85127 4.40303 4.90254 4.25178L5.28587 3.12428C5.38277 2.83928 5.53488 2.57615 5.7335 2.34994C5.93212 2.12374 6.17336 1.93888 6.44344 1.80593C6.71352 1.67298 7.00715 1.59454 7.30755 1.5751C7.60795 1.55565 7.90924 1.59559 8.19421 1.69262ZM6.4692 3.52595L6.08587 4.65428C5.97283 4.98663 5.78495 5.28857 5.53672 5.5368C5.28849 5.78503 4.98655 5.97291 4.6542 6.08595L3.52671 6.46928C3.38646 6.51709 3.25802 6.59425 3.14994 6.69561C3.04186 6.79698 2.95664 6.92021 2.89994 7.05711C2.84324 7.194 2.81638 7.34141 2.82113 7.4895C2.82589 7.6376 2.86217 7.78298 2.92754 7.91595L3.4542 8.98512C3.60933 9.3001 3.69001 9.64651 3.69001 9.99762C3.69001 10.3487 3.60933 10.6951 3.4542 11.0101L2.92754 12.0784C2.86203 12.2114 2.82564 12.3568 2.82082 12.5049C2.81599 12.6531 2.84283 12.8005 2.89954 12.9375C2.95625 13.0744 3.04154 13.1976 3.14969 13.299C3.25784 13.4003 3.38638 13.4774 3.52671 13.5251L4.6542 13.9085C4.98655 14.0215 5.28849 14.2094 5.53672 14.4576C5.78495 14.7058 5.97283 15.0078 6.08587 15.3401L6.4692 16.4684C6.51667 16.6089 6.59364 16.7377 6.69494 16.846C6.79623 16.9543 6.91952 17.0397 7.05653 17.0964C7.19354 17.1532 7.3411 17.1799 7.48932 17.175C7.63753 17.17 7.78297 17.1334 7.91587 17.0676L8.98504 16.5409C9.30002 16.3858 9.64643 16.3051 9.99754 16.3051C10.3486 16.3051 10.6951 16.3858 11.01 16.5409L12.0784 17.0676C12.2113 17.1331 12.3567 17.1695 12.5049 17.1743C12.653 17.1792 12.8004 17.1523 12.9374 17.0956C13.0743 17.0389 13.1976 16.9536 13.2989 16.8455C13.4002 16.7373 13.4773 16.6088 13.525 16.4684L13.9084 15.3401C14.0214 15.0078 14.2093 14.7058 14.4575 14.4576C14.7058 14.2094 15.0077 14.0215 15.34 13.9085L16.4684 13.5251C16.6087 13.4774 16.7372 13.4003 16.8454 13.299C16.9535 13.1976 17.0388 13.0744 17.0955 12.9375C17.1523 12.8005 17.1791 12.6531 17.1743 12.5049C17.1694 12.3568 17.133 12.2114 17.0675 12.0784L16.5409 11.0093C16.3859 10.6944 16.3053 10.3482 16.3053 9.9972C16.3053 9.64625 16.3859 9.29999 16.5409 8.98512L17.0675 7.91595C17.133 7.783 17.1694 7.6376 17.1743 7.48947C17.1791 7.34133 17.1523 7.19387 17.0955 7.05694C17.0388 6.92001 16.9535 6.79676 16.8454 6.69541C16.7372 6.59407 16.6087 6.51698 16.4684 6.46928L15.34 6.08595C15.0077 5.97291 14.7058 5.78503 14.4575 5.5368C14.2093 5.28857 14.0214 4.98663 13.9084 4.65428L13.525 3.52678L13.5009 3.46345L13.4734 3.40178L13.4217 3.30928C13.2848 3.09061 13.0716 2.93051 12.8235 2.86C12.5753 2.78949 12.3098 2.81359 12.0784 2.92762L11.0092 3.45428C10.6943 3.60928 10.3481 3.68988 9.99712 3.68988C9.64617 3.68988 9.29991 3.60928 8.98504 3.45428L7.91587 2.92762C7.78296 2.86225 7.63764 2.82598 7.4896 2.82123C7.34156 2.81648 7.19421 2.84335 7.05738 2.90005C6.92055 2.95676 6.79739 3.04199 6.69611 3.15006C6.59482 3.25813 6.51775 3.38656 6.47004 3.52678M8.37254 11.9893L12.8892 7.47262C13.0007 7.36079 13.1504 7.29533 13.3083 7.28939C13.4661 7.28346 13.6203 7.33749 13.7399 7.44063C13.8595 7.54376 13.9356 7.68835 13.953 7.84533C13.9703 8.00231 13.9276 8.16003 13.8334 8.28678L13.7725 8.35678L8.77254 13.3568C8.65948 13.4698 8.50741 13.5352 8.3476 13.5396C8.18779 13.5439 8.03239 13.4868 7.91337 13.3801L7.85087 13.3151L5.76754 10.8151C5.6668 10.6939 5.61557 10.5391 5.62412 10.3817C5.63267 10.2244 5.70036 10.076 5.81363 9.96644C5.92691 9.85685 6.0774 9.7941 6.23497 9.79077C6.39255 9.78743 6.54556 9.84375 6.66337 9.94845L6.72754 10.0151L8.37254 11.9893Z" fill="#0DA449"/>
</svg>
