<svg width="20" height="20" viewBox="0 0 20 20" fill="none" xmlns="http://www.w3.org/2000/svg">
<path d="M17.5 9.26094V4.16927C17.5 3.72724 17.3244 3.30332 17.0118 2.99076C16.6993 2.6782 16.2754 2.5026 15.8333 2.5026H12.35C12 1.53594 11.0833 0.835938 10 0.835938C8.91667 0.835938 8 1.53594 7.65 2.5026H4.16667C3.25 2.5026 2.5 3.2526 2.5 4.16927V15.8359C2.5 16.278 2.67559 16.7019 2.98816 17.0144C3.30072 17.327 3.72464 17.5026 4.16667 17.5026H9.25833C10.3083 18.5359 11.7417 19.1693 13.3333 19.1693C16.5583 19.1693 19.1667 16.5609 19.1667 13.3359C19.1667 11.7443 18.5333 10.3109 17.5 9.26094ZM10 2.5026C10.4583 2.5026 10.8333 2.8776 10.8333 3.33594C10.8333 3.79427 10.4583 4.16927 10 4.16927C9.54167 4.16927 9.16667 3.79427 9.16667 3.33594C9.16667 2.8776 9.54167 2.5026 10 2.5026ZM4.16667 15.8359V4.16927H5.83333V5.83594H14.1667V4.16927H15.8333V8.06927C15.075 7.71094 14.2333 7.5026 13.3333 7.5026H5.83333V9.16927H9.25C8.75 9.64427 8.36667 10.2109 8.06667 10.8359H5.83333V12.5026H7.56667C7.525 12.7776 7.5 13.0526 7.5 13.3359C7.5 14.2359 7.70833 15.0776 8.06667 15.8359H4.16667ZM13.3333 17.5026C11.0333 17.5026 9.16667 15.6359 9.16667 13.3359C9.16667 11.0359 11.0333 9.16927 13.3333 9.16927C15.6333 9.16927 17.5 11.0359 17.5 13.3359C17.5 15.6359 15.6333 17.5026 13.3333 17.5026ZM13.75 13.5443L16.1333 14.9526L15.5083 15.9693L12.5 14.1693V10.0026H13.75V13.5443Z" fill="#0071BD"/>
</svg>
