<svg width="32" height="32" viewBox="0 0 32 32" fill="none" xmlns="http://www.w3.org/2000/svg">
<path d="M26.5866 10.6678H28.0026C28.7098 10.6678 29.3881 10.9488 29.8882 11.4489C30.3883 11.949 30.6693 12.6273 30.6693 13.3345V18.6678C30.6693 19.3751 30.3883 20.0534 29.8882 20.5535C29.3881 21.0535 28.7098 21.3345 28.0026 21.3345H26.5866C26.2615 23.9122 25.007 26.2827 23.0583 28.0012C21.1096 29.7196 18.6007 30.6678 16.0026 30.6678V28.0012C18.1243 28.0012 20.1592 27.1583 21.6595 25.658C23.1597 24.1577 24.0026 22.1229 24.0026 20.0012V12.0012C24.0026 9.87944 23.1597 7.84461 21.6595 6.34432C20.1592 4.84402 18.1243 4.00117 16.0026 4.00117C13.8809 4.00117 11.846 4.84402 10.3457 6.34432C8.84546 7.84461 8.0026 9.87944 8.0026 12.0012V21.3345H4.0026C3.29536 21.3345 2.61708 21.0535 2.11699 20.5535C1.61689 20.0534 1.33594 19.3751 1.33594 18.6678V13.3345C1.33594 12.6273 1.61689 11.949 2.11699 11.4489C2.61708 10.9488 3.29536 10.6678 4.0026 10.6678H5.4186C5.74398 8.09036 6.99871 5.7202 8.94737 4.00207C10.896 2.28394 13.4047 1.33594 16.0026 1.33594C18.6005 1.33594 21.1092 2.28394 23.0578 4.00207C25.0065 5.7202 26.2612 8.09036 26.5866 10.6678ZM4.0026 13.3345V18.6678H5.33594V13.3345H4.0026ZM26.6693 13.3345V18.6678H28.0026V13.3345H26.6693ZM10.3493 21.0478L11.7626 18.7865C13.0334 19.5825 14.5031 20.0036 16.0026 20.0012C17.5021 20.0036 18.9718 19.5825 20.2426 18.7865L21.6559 21.0478C19.9616 22.1094 18.002 22.6709 16.0026 22.6678C14.0032 22.671 12.0436 22.1094 10.3493 21.0478Z" fill="#F8F8F8"/>
</svg>
