<svg width="49" height="48" viewBox="0 0 49 48" fill="none" xmlns="http://www.w3.org/2000/svg">
<path d="M6.97343 25.014C6.80469 25.5765 6.72031 26.1578 6.72031 26.7484C6.72031 28.075 7.15625 29.35 7.94375 30.3906C7.775 30.9531 7.69063 31.5343 7.69063 32.125C7.69063 33.4515 8.12656 34.7265 8.91406 35.7671C8.74531 36.3296 8.66093 36.9109 8.66093 37.5015C8.66093 39.9203 10.1 42.1 12.3313 43.0515C12.7234 43.2206 13.1464 43.3068 13.5734 43.3046L41.75 43.3046C42.5797 43.3046 43.25 42.6343 43.25 41.8046V24.7421C43.25 23.9125 42.5797 23.2421 41.75 23.2421H35.6891L31.6672 8.6734C31.0203 6.32496 28.8641 4.68434 26.4266 4.68434C25.0344 4.68434 23.7359 5.23746 22.775 6.24996C21.8141 7.25777 21.3219 8.57965 21.3922 9.97184L21.6734 15.7328H10.4281C9.86094 15.7328 9.30781 15.8828 8.82031 16.1687C6.92656 17.2703 5.75 19.2671 5.75 21.3718C5.75 22.6984 6.18594 23.9734 6.97343 25.014ZM39.875 26.6218V39.9343H36.0781V26.6218H39.875ZM10.475 19.1031H25.2125L24.7625 9.80309C24.7344 9.24527 24.9828 8.72028 25.4469 8.3734C25.7328 8.16246 26.0844 8.05465 26.4359 8.05934C26.8851 8.06369 27.3207 8.21363 27.6774 8.48663C28.0341 8.75964 28.2926 9.14098 28.4141 9.5734L33.0781 26.4718V39.9343H13.6062C13.1377 39.7244 12.7398 39.3835 12.4604 38.9527C12.181 38.522 12.032 38.0197 12.0312 37.5062C12.0312 37.0515 12.1391 36.6203 12.3547 36.2265L13.0062 35.0359L11.9797 34.1453C11.6907 33.895 11.4591 33.5854 11.3006 33.2376C11.142 32.8898 11.0603 32.5119 11.0609 32.1296C11.0609 31.675 11.1688 31.2437 11.3844 30.85L12.0359 29.6593L11.0094 28.7687C10.7204 28.5185 10.4888 28.2089 10.3303 27.8611C10.1717 27.5132 10.09 27.1353 10.0906 26.7531C10.0906 26.2984 10.1984 25.8671 10.4141 25.4734L11.0703 24.2781L10.0437 23.3875C9.75481 23.1372 9.52318 22.8276 9.36464 22.4798C9.20609 22.132 9.12436 21.7541 9.125 21.3718C9.125 20.4765 9.64062 19.614 10.475 19.1031Z" fill="#F7931E"/>
</svg>
