<svg width="48" height="48" viewBox="0 0 48 48" fill="none" xmlns="http://www.w3.org/2000/svg">
<path d="M24 44C35.046 44 44 35.046 44 24C44 12.954 35.046 4 24 4C12.954 4 4 12.954 4 24C4 35.046 12.954 44 24 44Z" stroke="#0071BD" stroke-width="3" stroke-linecap="round" stroke-linejoin="round"/>
<path d="M4 24H44" stroke="#0071BD" stroke-width="3" stroke-linecap="round" stroke-linejoin="round"/>
<path d="M24 44C28.418 44 32 35.046 32 24C32 12.954 28.418 4 24 4C19.582 4 16 12.954 16 24C16 35.046 19.582 44 24 44Z" stroke="#0071BD" stroke-width="3" stroke-linecap="round" stroke-linejoin="round"/>
<path d="M9.85938 10.1406C11.7144 12.0006 13.9188 13.4756 16.3458 14.4809C18.7727 15.4863 21.3744 16.002 24.0014 15.9986C26.6283 16.002 29.23 15.4863 31.657 14.4809C34.0839 13.4756 36.2883 12.0006 38.1434 10.1406M38.1434 37.8566C36.2883 35.9967 34.0839 34.5216 31.657 33.5163C29.23 32.511 26.6283 31.9952 24.0014 31.9986C21.3744 31.9952 18.7727 32.511 16.3458 33.5163C13.9188 34.5216 11.7144 35.9967 9.85938 37.8566" stroke="#0071BD" stroke-width="3" stroke-linecap="round" stroke-linejoin="round"/>
</svg>
