<svg width="20" height="20" viewBox="0 0 20 20" fill="none" xmlns="http://www.w3.org/2000/svg">
<path d="M13.775 9.21927L12.8917 8.33594L8.825 12.4026L7.05833 10.6359L6.175 11.5193L8.825 14.1693L13.775 9.21927ZM15.8333 2.5026H15V0.835938H13.3333V2.5026H6.66667V0.835938H5V2.5026H4.16667C3.24167 2.5026 2.50833 3.2526 2.50833 4.16927L2.5 15.8359C2.5 16.278 2.67559 16.7019 2.98816 17.0144C3.30072 17.327 3.72464 17.5026 4.16667 17.5026H15.8333C16.75 17.5026 17.5 16.7526 17.5 15.8359V4.16927C17.5 3.2526 16.75 2.5026 15.8333 2.5026ZM15.8333 15.8359H4.16667V6.66927H15.8333V15.8359Z" fill="#0071BD"/>
</svg>
