<svg width="32" height="32" viewBox="0 0 32 32" fill="none" xmlns="http://www.w3.org/2000/svg">
<path d="M15.9309 0C7.13155 0 0 6.99721 0 15.6308C0 24.2643 7.13155 31.2615 15.9309 31.2615C24.7302 31.2615 31.8617 24.2643 31.8617 15.6308C31.8617 6.99721 24.7302 0 15.9309 0ZM19.4468 12.9809L19.2664 15.3194H16.8207V23.44H13.7341V15.3194H12.085V12.9809H13.7341V11.4117C13.7341 10.7217 13.7528 9.65322 14.2631 8.98769C14.8045 8.28553 15.545 7.80928 16.8207 7.80928C18.8992 7.80928 19.7704 8.10236 19.7704 8.10236L19.3597 10.4958C19.3597 10.4958 18.6752 10.3004 18.0342 10.3004C17.3933 10.3004 16.8207 10.5263 16.8207 11.1552V12.9809H19.4468Z" fill="#0071BD"/>
</svg>
