<svg width="20" height="20" viewBox="0 0 20 20" fill="none" xmlns="http://www.w3.org/2000/svg">
<path d="M7.1474 14.3724L7.91406 11.1307L5.41406 8.98073L8.70573 8.6724L9.9974 5.66406L11.2891 8.70573L14.5807 8.98073L12.0807 11.1307L12.8474 14.3724L9.9974 12.6557L7.1474 14.3724ZM9.9974 1.66406C11.0917 1.66406 12.1754 1.87961 13.1864 2.2984C14.1975 2.71719 15.1161 3.33102 15.89 4.10484C16.6638 4.87866 17.2776 5.79732 17.6964 6.80837C18.1152 7.81941 18.3307 8.90305 18.3307 9.9974C18.3307 12.2075 17.4528 14.3271 15.89 15.89C14.3271 17.4528 12.2075 18.3307 9.9974 18.3307C8.90305 18.3307 7.81941 18.1152 6.80837 17.6964C5.79732 17.2776 4.87866 16.6638 4.10484 15.89C2.54204 14.3271 1.66406 12.2075 1.66406 9.9974C1.66406 7.78726 2.54204 5.66764 4.10484 4.10484C5.66764 2.54204 7.78726 1.66406 9.9974 1.66406ZM9.9974 3.33073C8.22929 3.33073 6.53359 4.03311 5.28335 5.28335C4.03311 6.53359 3.33073 8.22929 3.33073 9.9974C3.33073 11.7655 4.03311 13.4612 5.28335 14.7114C6.53359 15.9617 8.22929 16.6641 9.9974 16.6641C11.7655 16.6641 13.4612 15.9617 14.7114 14.7114C15.9617 13.4612 16.6641 11.7655 16.6641 9.9974C16.6641 8.22929 15.9617 6.53359 14.7114 5.28335C13.4612 4.03311 11.7655 3.33073 9.9974 3.33073Z" fill="#0071BD"/>
</svg>
