<svg width="49" height="48" viewBox="0 0 49 48" fill="none" xmlns="http://www.w3.org/2000/svg">
<path d="M45.5289 8.21849L36.597 17.1504L36.6204 17.2286L43.4034 42.1958C43.5195 42.7413 43.5054 43.3065 43.3621 43.8456C43.2189 44.3846 42.9506 44.8822 42.579 45.2981L40.3401 47.537C40.1953 47.7061 40.0103 47.8359 39.802 47.9146C39.5938 47.9932 39.3691 48.0181 39.1487 47.987C38.9283 47.9558 38.7193 47.8696 38.541 47.7363C38.3627 47.6031 38.2209 47.427 38.1286 47.2244L28.9544 30.6187L26.0435 27.7039L18.3463 35.4011C17.4641 36.1884 16.4781 36.851 15.4159 37.3704L17.135 43.0241C17.2655 43.5631 17.2629 44.1258 17.1274 44.6635C16.992 45.2013 16.7277 45.698 16.3575 46.1109L15.6737 46.7985C15.3246 47.145 14.8527 47.3394 14.3609 47.3394C13.8691 47.3394 13.3972 47.145 13.0481 46.7985L8.98455 42.7389L8.91422 42.6608L5.83532 39.5897L5.75718 39.5115L1.70147 35.4519C1.35502 35.1028 1.16061 34.6309 1.16061 34.1391C1.16061 33.6473 1.35502 33.1754 1.70147 32.8263L2.38914 32.1386C2.80273 31.7697 3.2998 31.5069 3.83752 31.3728C4.37524 31.2387 4.93749 31.2374 5.47586 31.3689L11.1296 33.0802C11.6495 32.0183 12.312 31.0324 13.0989 30.1498L20.7961 22.4525L17.8813 19.5456L1.27558 10.3714C1.073 10.2791 0.89694 10.1373 0.763663 9.95901C0.630385 9.78072 0.544189 9.57172 0.513036 9.35132C0.481883 9.13091 0.506779 8.90621 0.585424 8.69797C0.664069 8.48973 0.793926 8.30467 0.962998 8.15988L3.20184 5.92103C3.61792 5.5497 4.11559 5.28157 4.65456 5.13834C5.19354 4.99511 5.75866 4.98081 6.30419 5.09661L31.2714 11.8796L31.3496 11.903L40.2815 2.97107C41.7272 1.51758 46.6151 -1.01431 48.0686 0.431369C49.5143 1.88486 46.9785 6.7689 45.5289 8.21849Z" fill="#F7931E"/>
</svg>
