<svg width="49" height="48" viewBox="0 0 49 48" fill="none" xmlns="http://www.w3.org/2000/svg">
<g clip-path="url(#clip0_448_7744)">
<path d="M24.4746 0C11.2299 0.0144 0.5 10.7549 0.5 24C0.5 37.2547 11.2453 48 24.5 48C37.7547 48 48.5 37.2547 48.5 24C48.4908 22.105 48.2571 20.2178 47.804 18.3778L45.7928 20.3899C45.9253 21.18 46.0208 21.9826 46.0654 22.8H25.7V2.72736C26.3077 2.83056 26.9091 3.03216 27.4981 3.32256C27.5091 3.30962 27.5206 3.29713 27.5326 3.28512L30.1222 0.69552C28.2822 0.242533 26.395 0.00906703 24.5 0L24.4746 0ZM23.3 2.82192V12.4171H15.26C15.7342 11.0621 16.2824 9.8112 16.8958 8.69712C18.6872 5.44368 20.9341 3.40848 23.3 2.82192ZM17.7704 3.47136C16.6549 4.60032 15.6536 5.97696 14.793 7.53936C13.9866 9.00336 13.293 10.6435 12.7232 12.4171H6.2648C8.9216 8.23824 12.9728 5.03952 17.7704 3.47136ZM4.94288 14.8176H12.0507C11.4531 17.2954 11.0869 19.9824 10.9933 22.8005H2.93456C3.08364 20.0352 3.76558 17.3242 4.94288 14.8176ZM14.5304 14.8181H23.3V22.8H13.3962C13.4979 19.9512 13.8968 17.2546 14.5304 14.8181ZM2.93456 25.2H10.9803C11.0422 28.0109 11.3739 30.6979 11.9374 33.1824H4.94288C3.76558 30.6758 3.08364 27.9653 2.93456 25.2ZM13.3803 25.2H23.3V33.1824H14.4104C13.8128 30.7344 13.4475 28.0392 13.3803 25.2ZM25.7 25.2H36.0642C35.997 28.0392 35.6312 30.7344 35.0336 33.1824H25.7V25.2ZM38.4565 25.2H46.0654C45.9164 27.9653 45.2344 30.6758 44.0571 33.1824H37.5032C38.0648 30.6974 38.3946 28.0104 38.4565 25.2ZM6.2648 35.5824H12.5701C13.1662 37.5432 13.9141 39.3456 14.793 40.9416C15.4832 42.1944 16.2656 43.3267 17.1229 44.3098C12.6075 42.673 8.8016 39.5722 6.2648 35.5824ZM15.0939 35.5829H23.3V45.5659C23.1522 45.5578 23.0062 45.5429 22.8594 45.5323C20.6562 44.8123 18.5758 42.8347 16.8958 39.7843C16.2104 38.5392 15.6037 37.1266 15.0939 35.5834M25.7 35.5834H34.3501C33.8413 37.127 33.2341 38.5397 32.5486 39.7848C30.9032 42.7728 28.8738 44.7326 26.721 45.4886C26.3813 45.5225 26.0409 45.5485 25.7 45.5664V35.5834ZM36.872 35.5834H42.7352C40.3081 39.4023 36.7444 42.3638 32.5458 44.051C33.3157 43.1294 34.0218 42.0859 34.651 40.9426C35.5299 39.3466 36.2773 37.5437 36.872 35.5834Z" fill="#F7931E"/>
<path d="M36.0784 0C35.9352 0 35.7979 0.0568927 35.6966 0.158162C35.5953 0.259432 35.5384 0.396783 35.5384 0.54V3.5592C35.0388 3.70944 34.5597 3.9096 34.1085 4.15536L31.9711 2.01792C31.9201 1.9669 31.8595 1.92659 31.7927 1.89939C31.7259 1.87218 31.6544 1.85863 31.5823 1.85952C31.4413 1.86128 31.3066 1.91814 31.2069 2.01792L28.9164 4.30848C28.8661 4.35863 28.8263 4.41819 28.7991 4.48375C28.7719 4.54931 28.758 4.61959 28.758 4.69056C28.758 4.76153 28.7719 4.83181 28.7991 4.89737C28.8263 4.96293 28.8661 5.02249 28.9164 5.07264L31.0538 7.21008C30.808 7.66128 30.6079 8.14032 30.4572 8.64H27.4384C27.2952 8.64 27.1579 8.69689 27.0566 8.79816C26.9553 8.89943 26.8984 9.03678 26.8984 9.18V12.42C26.8984 12.5632 26.9553 12.7006 27.0566 12.8018C27.1579 12.9031 27.2952 12.96 27.4384 12.96H30.4576C30.6079 13.4597 30.808 13.9387 31.0538 14.3899L28.9164 16.5274C28.8661 16.5775 28.8263 16.6371 28.7991 16.7026C28.7719 16.7682 28.758 16.8385 28.758 16.9094C28.758 16.9804 28.7719 17.0507 28.7991 17.1162C28.8263 17.1818 28.8661 17.2414 28.9164 17.2915L31.2069 19.5821C31.2571 19.6323 31.3166 19.6721 31.3822 19.6993C31.4477 19.7265 31.518 19.7405 31.589 19.7405C31.66 19.7405 31.7302 19.7265 31.7958 19.6993C31.8614 19.6721 31.9209 19.6323 31.9711 19.5821L34.1085 17.4446C34.5597 17.6904 35.0388 17.8906 35.5384 18.0413V21.06C35.5384 21.2032 35.5953 21.3406 35.6966 21.4418C35.7979 21.5431 35.9352 21.6 36.0784 21.6H39.3184C39.4617 21.6 39.599 21.5431 39.7003 21.4418C39.8015 21.3406 39.8584 21.2032 39.8584 21.06V18.0408C40.3543 17.8918 40.8335 17.6921 41.2884 17.4446L43.4258 19.5821C43.476 19.6323 43.5355 19.6721 43.6011 19.6993C43.6666 19.7265 43.7369 19.7405 43.8079 19.7405C43.8788 19.7405 43.9491 19.7265 44.0147 19.6993C44.0802 19.6721 44.1398 19.6323 44.19 19.5821L46.4805 17.2915C46.5307 17.2414 46.5706 17.1818 46.5978 17.1162C46.6249 17.0507 46.6389 16.9804 46.6389 16.9094C46.6389 16.8385 46.6249 16.7682 46.5978 16.7026C46.5706 16.6371 46.5307 16.5775 46.4805 16.5274L44.3431 14.3899C44.5888 13.9387 44.789 13.4597 44.9397 12.96H47.9584C48.0294 12.96 48.0996 12.946 48.1651 12.9189C48.2306 12.8918 48.2901 12.852 48.3403 12.8018C48.3904 12.7517 48.4302 12.6922 48.4573 12.6266C48.4845 12.5611 48.4984 12.4909 48.4984 12.42V9.18C48.4984 9.03678 48.4415 8.89943 48.3403 8.79816C48.239 8.69689 48.1017 8.64 47.9584 8.64H44.9392C44.7903 8.14411 44.5905 7.66492 44.3431 7.21008L46.4805 5.07264C46.5307 5.02249 46.5706 4.96293 46.5978 4.89737C46.6249 4.83181 46.6389 4.76153 46.6389 4.69056C46.6389 4.61959 46.6249 4.54931 46.5978 4.48375C46.5706 4.41819 46.5307 4.35863 46.4805 4.30848L44.19 2.01792C44.139 1.9669 44.0784 1.92659 44.0116 1.89939C43.9448 1.87218 43.8733 1.85863 43.8012 1.85952C43.6602 1.86128 43.5254 1.91814 43.4258 2.01792L41.2884 4.15536C40.8335 3.90792 40.3543 3.70798 39.8584 3.55872V0.54C39.8584 0.396783 39.8015 0.259432 39.7003 0.158162C39.599 0.0568927 39.4617 0 39.3184 0L36.0784 0ZM37.6984 7.02C39.8085 7.02 41.4784 8.6904 41.4784 10.8C41.4784 12.9101 39.808 14.58 37.6984 14.58C35.5884 14.58 33.9184 12.9096 33.9184 10.8C33.9184 8.68992 35.5888 7.02 37.6984 7.02Z" fill="#F7931E"/>
</g>
<defs>
<clipPath id="clip0_448_7744">
<rect width="48" height="48" fill="white" transform="translate(0.5)"/>
</clipPath>
</defs>
</svg>
