<svg width="20" height="20" viewBox="0 0 20 20" fill="none" xmlns="http://www.w3.org/2000/svg">
<g clip-path="url(#clip0_597_9261)">
<path d="M9.9987 10C11.5595 10 12.9737 10.5167 14.0112 11.2392C14.997 11.9267 15.832 12.9483 15.832 14.0475C15.832 14.6508 15.5745 15.1508 15.1687 15.5225C14.787 15.8733 14.2887 16.1008 13.7754 16.2558C12.7495 16.5667 11.3987 16.6667 9.9987 16.6667C8.5987 16.6667 7.24787 16.5667 6.22203 16.2558C5.7087 16.1008 5.21037 15.8733 4.82787 15.5225C4.4237 15.1517 4.16537 14.6517 4.16537 14.0483C4.16537 12.9492 5.00037 11.9275 5.9862 11.24C7.0237 10.5167 8.43787 10 9.9987 10ZM15.832 10.8333C16.702 10.8333 17.492 11.1208 18.0762 11.5275C18.6095 11.9 19.1654 12.5192 19.1654 13.2742C19.1654 13.705 18.9779 14.0625 18.6987 14.3183C18.4437 14.5525 18.1287 14.69 17.8412 14.7767C17.4495 14.895 16.987 14.9558 16.507 14.9825C16.6087 14.695 16.6654 14.3825 16.6654 14.0475C16.6654 12.7683 15.8662 11.6817 14.972 10.9275C15.2544 10.865 15.5428 10.8334 15.832 10.8333ZM4.16537 10.8333C4.46287 10.8333 4.7512 10.8667 5.02537 10.9275C4.13203 11.6817 3.33203 12.7683 3.33203 14.0475C3.33203 14.3825 3.3887 14.695 3.49037 14.9825C3.01037 14.9558 2.5487 14.895 2.1562 14.7767C1.8687 14.69 1.5537 14.5525 1.29787 14.3183C1.1511 14.1871 1.03373 14.0263 0.953448 13.8465C0.873169 13.6666 0.831793 13.4719 0.832032 13.275C0.832032 12.5208 1.38703 11.9008 1.9212 11.5283C2.58182 11.0752 3.36426 10.8329 4.16537 10.8333ZM15.4154 5.83333C15.9679 5.83333 16.4978 6.05283 16.8885 6.44353C17.2792 6.83423 17.4987 7.36413 17.4987 7.91667C17.4987 8.4692 17.2792 8.99911 16.8885 9.38981C16.4978 9.78051 15.9679 10 15.4154 10C14.8628 10 14.3329 9.78051 13.9422 9.38981C13.5515 8.99911 13.332 8.4692 13.332 7.91667C13.332 7.36413 13.5515 6.83423 13.9422 6.44353C14.3329 6.05283 14.8628 5.83333 15.4154 5.83333ZM4.58203 5.83333C5.13457 5.83333 5.66447 6.05283 6.05517 6.44353C6.44587 6.83423 6.66537 7.36413 6.66537 7.91667C6.66537 8.4692 6.44587 8.99911 6.05517 9.38981C5.66447 9.78051 5.13457 10 4.58203 10C4.0295 10 3.49959 9.78051 3.10889 9.38981C2.71819 8.99911 2.4987 8.4692 2.4987 7.91667C2.4987 7.36413 2.71819 6.83423 3.10889 6.44353C3.49959 6.05283 4.0295 5.83333 4.58203 5.83333ZM9.9987 2.5C10.8828 2.5 11.7306 2.85119 12.3557 3.47631C12.9808 4.10143 13.332 4.94928 13.332 5.83333C13.332 6.71739 12.9808 7.56524 12.3557 8.19036C11.7306 8.81548 10.8828 9.16667 9.9987 9.16667C9.11464 9.16667 8.2668 8.81548 7.64168 8.19036C7.01655 7.56524 6.66537 6.71739 6.66537 5.83333C6.66537 4.94928 7.01655 4.10143 7.64168 3.47631C8.2668 2.85119 9.11464 2.5 9.9987 2.5Z" fill="#0071BD"/>
</g>
<defs>
<clipPath id="clip0_597_9261">
<rect width="20" height="20" fill="white"/>
</clipPath>
</defs>
</svg>
