<svg width="49" height="48" viewBox="0 0 49 48" fill="none" xmlns="http://www.w3.org/2000/svg">
<path d="M33.875 5.25C30.1081 5.25 26.765 6.73688 24.5 9.2925C22.235 6.73688 18.8919 5.25 15.125 5.25C11.8442 5.25397 8.69884 6.55904 6.37894 8.87894C4.05904 11.1988 2.75397 14.3442 2.75 17.625C2.75 31.1887 22.5894 42.0263 23.4331 42.4819C23.761 42.6585 24.1276 42.7509 24.5 42.7509C24.8724 42.7509 25.239 42.6585 25.5669 42.4819C26.4106 42.0263 46.25 31.1887 46.25 17.625C46.246 14.3442 44.941 11.1988 42.6211 8.87894C40.3012 6.55904 37.1558 5.25397 33.875 5.25ZM32.8456 31.9425C30.2343 34.1584 27.4427 36.1528 24.5 37.905C21.5573 36.1528 18.7657 34.1584 16.1544 31.9425C12.0912 28.4569 7.25 23.1413 7.25 17.625C7.25 15.5364 8.07968 13.5334 9.55653 12.0565C11.0334 10.5797 13.0364 9.75 15.125 9.75C18.4625 9.75 21.2563 11.5125 22.4169 14.3512C22.5858 14.7651 22.8742 15.1192 23.2452 15.3685C23.6162 15.6178 24.053 15.7509 24.5 15.7509C24.947 15.7509 25.3838 15.6178 25.7548 15.3685C26.1258 15.1192 26.4142 14.7651 26.5831 14.3512C27.7437 11.5125 30.5375 9.75 33.875 9.75C35.9636 9.75 37.9666 10.5797 39.4435 12.0565C40.9203 13.5334 41.75 15.5364 41.75 17.625C41.75 23.1413 36.9087 28.4569 32.8456 31.9425Z" fill="#F7931E"/>
</svg>
