<svg width="49" height="48" viewBox="0 0 49 48" fill="none" xmlns="http://www.w3.org/2000/svg">
<path d="M44.5 44H4.5M4.5 22L20.752 9C21.8159 8.14898 23.1376 7.68535 24.5 7.68535C25.8624 7.68535 27.1841 8.14898 28.248 9L44.5 22M31.5 11V7C31.5 6.73478 31.6054 6.48043 31.7929 6.29289C31.9804 6.10536 32.2348 6 32.5 6H37.5C37.7652 6 38.0196 6.10536 38.2071 6.29289C38.3946 6.48043 38.5 6.73478 38.5 7V17M8.5 44V19M40.5 44V19" stroke="#F7931E" stroke-width="4" stroke-linecap="round"/>
<path d="M30.5 44V34C30.5 31.172 30.5 29.758 29.62 28.88C28.744 28 27.33 28 24.5 28C21.672 28 20.258 28 19.38 28.88C18.5 29.756 18.5 31.17 18.5 34V44M28.5 19C28.5 20.0609 28.0786 21.0783 27.3284 21.8284C26.5783 22.5786 25.5609 23 24.5 23C23.4391 23 22.4217 22.5786 21.6716 21.8284C20.9214 21.0783 20.5 20.0609 20.5 19C20.5 17.9391 20.9214 16.9217 21.6716 16.1716C22.4217 15.4214 23.4391 15 24.5 15C25.5609 15 26.5783 15.4214 27.3284 16.1716C28.0786 16.9217 28.5 17.9391 28.5 19Z" stroke="#F7931E" stroke-width="4"/>
</svg>
