<svg width="57" height="48" viewBox="0 0 57 48" fill="none" xmlns="http://www.w3.org/2000/svg">
<g clip-path="url(#clip0_790_22633)">
<path d="M11.7753 44.808C11.7753 46.57 10.3473 48 8.58527 48H8.57327C7.72776 48 6.91688 47.6641 6.31902 47.0663C5.72115 46.4684 5.38527 45.6575 5.38527 44.812V3.188C5.38527 1.426 6.81327 0 8.57327 0H8.58527C10.3473 0 11.7753 1.428 11.7753 3.19V44.808ZM4.52727 5.37H2.29727C1.83349 5.39132 1.39573 5.59044 1.07488 5.92601C0.754028 6.26158 0.574735 6.70782 0.57422 7.17209C0.573705 7.63637 0.752009 8.08301 1.07211 8.41928C1.39222 8.75556 1.82954 8.95565 2.29327 8.978H4.52527L4.52727 5.37ZM51.7073 11.898H19.7073C18.3002 11.9001 16.9513 12.46 15.9563 13.455C14.9613 14.45 14.4014 15.7989 14.3993 17.206V35.702C14.3993 36.3985 14.5365 37.0882 14.803 37.7318C15.0696 38.3753 15.4603 38.96 15.9528 39.4525C16.4453 39.945 17.03 40.3357 17.6735 40.6023C18.317 40.8688 19.0067 41.006 19.7033 41.006H51.7073C53.1144 41.0039 54.4633 40.444 55.4583 39.449C56.4532 38.454 57.0132 37.1051 57.0153 35.698V17.202C57.0153 15.7953 56.4565 14.4462 55.4618 13.4515C54.4671 12.4568 53.118 11.898 51.7113 11.898H51.7073ZM54.2673 35.698C54.2646 36.3735 53.9951 37.0206 53.5175 37.4982C53.0398 37.9759 52.3928 38.2454 51.7173 38.248H19.7133C18.3073 38.248 17.1673 37.108 17.1673 35.702V17.204C17.1699 16.5289 17.4391 15.8821 17.9163 15.4045C18.3936 14.9269 19.0401 14.6572 19.7153 14.654H51.7153C52.3908 14.6566 53.0378 14.9261 53.5155 15.4038C53.9931 15.8814 54.2626 16.5285 54.2653 17.204L54.2673 35.698ZM24.7013 10.872C25.1946 10.872 25.6677 10.676 26.0165 10.3272C26.3653 9.9784 26.5613 9.5053 26.5613 9.012V5.238C26.5613 4.7447 26.3653 4.2716 26.0165 3.92278C25.6677 3.57396 25.1946 3.378 24.7013 3.378C24.208 3.378 23.7349 3.57396 23.3861 3.92278C23.0372 4.2716 22.8413 4.7447 22.8413 5.238V5.296V9.014C22.8413 9.5073 23.0372 9.9804 23.3861 10.3292C23.7349 10.678 24.208 10.874 24.7013 10.874V10.872ZM46.7193 10.872C47.2126 10.872 47.6857 10.676 48.0345 10.3272C48.3833 9.9784 48.5793 9.5053 48.5793 9.012V5.292C48.5793 4.7987 48.3833 4.3256 48.0345 3.97678C47.6857 3.62796 47.2126 3.432 46.7193 3.432C46.226 3.432 45.7529 3.62796 45.4041 3.97678C45.0552 4.3256 44.8593 4.7987 44.8593 5.292V9.012C44.8593 10.04 45.6933 10.872 46.7193 10.872ZM27.4733 5.37H43.9433V8.978H27.4733V5.37ZM55.6533 7.152C55.6522 6.68024 55.4643 6.2281 55.1308 5.89452C54.7972 5.56093 54.345 5.37306 53.8733 5.372H49.7513V8.98H53.8713C54.3429 8.97842 54.7947 8.79037 55.1282 8.4569C55.4616 8.12343 55.6497 7.6716 55.6513 7.2L55.6533 7.152Z" fill="#F7931E"/>
<path d="M24.9732 30.025H23.0332V28.229H21.2532V33.377H23.0332V31.297H24.9732V33.377H26.7532V28.229H24.9732V30.025ZM32.8972 28.823C32.2577 28.3719 31.4937 28.1308 30.7112 28.133C29.8832 28.133 29.1172 28.397 28.4912 28.847L28.5032 28.839C28.2539 29.07 28.055 29.35 27.9191 29.6615C27.7831 29.9729 27.713 30.3092 27.7132 30.649L27.7172 30.803V30.797L27.7152 30.911C27.7152 31.427 27.8652 31.909 28.1252 32.315L28.1192 32.305C28.3692 32.691 28.7172 32.993 29.1292 33.181L29.1432 33.187C29.5692 33.361 30.0652 33.463 30.5832 33.463L30.7512 33.459H30.7432L30.8452 33.461C31.3872 33.461 31.9032 33.343 32.3672 33.131L32.3452 33.141C32.7592 32.943 33.0952 32.635 33.3192 32.253L33.3252 32.243C33.5479 31.8229 33.664 31.3545 33.6632 30.879L33.6612 30.763V30.769L33.6652 30.621C33.6652 29.917 33.3712 29.281 32.8992 28.831L32.8972 28.823ZM31.5832 31.935C31.4772 32.0421 31.351 32.1271 31.212 32.1851C31.073 32.2431 30.9238 32.273 30.7732 32.273L30.6972 32.271H30.7012L30.6472 32.273C30.3375 32.2736 30.04 32.1521 29.8192 31.935C29.6076 31.5981 29.4958 31.2082 29.4965 30.8104C29.4972 30.4126 29.6105 30.0232 29.8232 29.687L29.8172 29.695C30.0472 29.485 30.3532 29.359 30.6912 29.359C31.0292 29.359 31.3352 29.487 31.5652 29.697C31.687 29.8443 31.7762 30.0145 31.8311 30.1976C31.8861 30.3807 31.9038 30.5729 31.8832 30.763V30.757C31.9286 31.177 31.8198 31.5992 31.5772 31.945L31.5812 31.939L31.5832 31.935ZM34.0032 29.495H35.8152V33.377H37.5952V29.495H39.4072V28.227H34.0032V29.495ZM41.9912 31.197H44.7512V30.137H41.9912V29.319H44.9592V28.227H40.2112V33.375H45.0552V32.203H41.9912V31.197ZM47.7792 28.229H45.9992V33.377H50.5552V32.109H47.7812L47.7792 28.229ZM21.7192 24.059L23.3872 23.175L25.0712 24.059L24.7512 22.199L26.0992 20.883L24.2392 20.611L23.3892 18.911L22.5552 20.611L20.6952 20.883L22.0432 22.199L21.7192 24.059ZM27.8932 24.059L29.5612 23.175L31.2292 24.059L30.9092 22.199L32.2552 20.883L30.3952 20.611L29.5612 18.911L28.7272 20.611L26.8512 20.883L28.1992 22.199L27.8932 24.059ZM34.0512 24.059L35.7192 23.175L37.3872 24.059L37.0672 22.199L38.4152 20.883L36.5552 20.611L35.7212 18.911L34.8872 20.611L33.0112 20.883L34.3752 22.199L34.0512 24.059ZM40.2092 24.059L41.8772 23.175L43.5452 24.059L43.2252 22.199L44.5732 20.883L42.7132 20.611L41.8792 18.911L41.0452 20.611L39.1692 20.883L40.5332 22.199L40.2092 24.059ZM48.0332 18.911L47.1992 20.611L45.3392 20.883L46.6852 22.199L46.3652 24.059L48.0332 23.175L49.7012 24.059L49.3812 22.199L50.7452 20.883L48.8692 20.611L48.0332 18.911ZM12.7852 5.375H21.6852V8.983H12.7852V5.375Z" fill="#F7931E"/>
</g>
<defs>
<clipPath id="clip0_790_22633">
<rect width="56" height="48" fill="white" transform="translate(0.5)"/>
</clipPath>
</defs>
</svg>
