<svg width="24" height="24" viewBox="0 0 24 24" fill="none" xmlns="http://www.w3.org/2000/svg">
<path d="M7.11719 11.25C7.33969 11.25 7.5572 11.316 7.7422 11.4396C7.92721 11.5632 8.0714 11.7389 8.15655 11.9445C8.2417 12.15 8.26398 12.3762 8.22057 12.5945C8.17716 12.8127 8.07002 13.0132 7.91268 13.1705C7.75535 13.3278 7.55489 13.435 7.33667 13.4784C7.11844 13.5218 6.89224 13.4995 6.68667 13.4144C6.4811 13.3292 6.3054 13.185 6.18178 13C6.05817 12.815 5.99219 12.5975 5.99219 12.375C5.99219 12.0766 6.11071 11.7905 6.32169 11.5795C6.53267 11.3685 6.81882 11.25 7.11719 11.25ZM7.11719 9.75C6.59801 9.75 6.0905 9.90395 5.65882 10.1924C5.22714 10.4808 4.89068 10.8908 4.692 11.3705C4.49332 11.8501 4.44134 12.3779 4.54263 12.8871C4.64391 13.3963 4.89392 13.864 5.26103 14.2312C5.62815 14.5983 6.09588 14.8483 6.60508 14.9496C7.11428 15.0508 7.64208 14.9989 8.12173 14.8002C8.60139 14.6015 9.01136 14.2651 9.2998 13.8334C9.58824 13.4017 9.74219 12.8942 9.74219 12.375C9.74219 11.6788 9.46563 11.0111 8.97334 10.5188C8.48106 10.0266 7.81338 9.75 7.11719 9.75Z" fill="#0071BD"/>
<path d="M18.7422 10.498H12.7422C12.3444 10.498 11.9628 10.656 11.6815 10.9373C11.4002 11.2186 11.2422 11.6002 11.2422 11.998V16.498H2.99219V7.948L11.9922 3.103L21.3897 8.158L22.0947 6.838L12.3447 1.588C12.2362 1.53022 12.1151 1.5 11.9922 1.5C11.8693 1.5 11.7482 1.53022 11.6397 1.588L1.88969 6.838C1.76993 6.90177 1.66971 6.99683 1.59971 7.11306C1.52971 7.22928 1.49255 7.36232 1.49219 7.498V22.498H2.99219V17.998H20.9922V22.498H22.4922V14.248C22.4922 13.2534 22.0971 12.2996 21.3938 11.5963C20.6906 10.8931 19.7367 10.498 18.7422 10.498ZM12.7422 16.498V11.998H18.7422C19.3389 11.998 19.9112 12.2351 20.3332 12.657C20.7551 13.079 20.9922 13.6513 20.9922 14.248V16.498H12.7422Z" fill="#0071BD"/>
</svg>
