<svg width="32" height="32" viewBox="0 0 32 32" fill="none" xmlns="http://www.w3.org/2000/svg">
<path d="M17.2258 0C25.3529 0 32.0023 6.52417 32.0023 14.4982V16.7634C32.0023 24.7374 25.3529 31.2615 17.2258 31.2615H14.9171C6.79005 31.2615 0.140625 24.7374 0.140625 16.7634V14.4982C0.140625 6.52417 6.79005 0 14.9171 0H17.2258ZM16.3619 7.85729L16.1564 7.85703C14.4444 7.85703 12.7325 7.91255 12.7325 7.91255C10.2321 7.91255 8.20508 9.90137 8.20508 12.3547C8.20508 12.3547 8.15311 13.797 8.14878 15.3451L8.14849 15.5475C8.14849 17.2808 8.20508 19.0734 8.20508 19.0734C8.20508 21.5267 10.2321 23.5156 12.7325 23.5156C12.7325 23.5156 14.3331 23.5711 15.9866 23.5711C17.7532 23.5711 19.6368 23.5156 19.6368 23.5156C22.1373 23.5156 24.1077 21.5823 24.1077 19.129C24.1077 19.129 24.1642 17.3565 24.1642 15.6586L24.1632 15.2601C24.1555 13.7366 24.1076 12.2991 24.1076 12.2991C24.1076 9.84582 22.1372 7.91255 19.6368 7.91255C19.6368 7.91255 18.0069 7.86138 16.3619 7.85729ZM16.1564 9.27125C17.5602 9.27125 19.3601 9.3168 19.3601 9.3168C21.4104 9.3168 22.6764 10.5589 22.6764 12.5706C22.6764 12.5706 22.7228 14.3065 22.7228 15.6685C22.7228 17.0608 22.6764 18.8574 22.6764 18.8574C22.6764 20.8691 21.4104 22.1112 19.3601 22.1112C19.3601 22.1112 17.7683 22.1495 16.3872 22.1559L16.0172 22.1567C14.6613 22.1567 13.0092 22.1112 13.0092 22.1112C10.9589 22.1112 9.63634 20.8135 9.63634 18.8018C9.63634 18.8018 9.58991 16.9987 9.58991 15.5774C9.58991 14.2471 9.63634 12.5706 9.63634 12.5706C9.63634 10.5589 10.9589 9.3168 13.0092 9.3168C13.0092 9.3168 14.7526 9.27125 16.1564 9.27125ZM16.1563 11.6892C13.8908 11.6892 12.0543 13.4912 12.0543 15.714C12.0543 17.9368 13.8908 19.7388 16.1563 19.7388C18.4219 19.7388 20.2584 17.9368 20.2584 15.714C20.2584 13.4912 18.4219 11.6892 16.1563 11.6892ZM16.1563 13.095C17.6306 13.095 18.8256 14.2676 18.8256 15.714C18.8256 17.1605 17.6306 18.333 16.1563 18.333C14.6821 18.333 13.487 17.1605 13.487 15.714C13.487 14.2676 14.6821 13.095 16.1563 13.095ZM20.4547 10.5723C19.9073 10.5723 19.4635 11.0099 19.4635 11.5496C19.4635 12.0894 19.9073 12.5269 20.4547 12.5269C21.0021 12.5269 21.4458 12.0894 21.4458 11.5496C21.4458 11.0098 21.0021 10.5723 20.4547 10.5723Z" fill="#0071BD"/>
</svg>
