<svg width="33" height="32" viewBox="0 0 33 32" fill="none" xmlns="http://www.w3.org/2000/svg">
<path d="M16.3137 0C7.51436 0 0.382812 6.99721 0.382812 15.6308C0.382812 24.2643 7.51436 31.2615 16.3137 31.2615C25.113 31.2615 32.2445 24.2643 32.2445 15.6308C32.2445 6.99721 25.113 0 16.3137 0ZM11.858 22.17H8.75274V12.4191H11.858V22.17ZM10.2214 11.198H10.1965C9.07011 11.198 8.34202 10.4531 8.34202 9.50668C8.34202 8.54197 9.095 7.81538 10.24 7.81538C11.3851 7.81538 12.0883 8.54197 12.1131 9.50668C12.1194 10.447 11.3913 11.198 10.2214 11.198ZM24.2791 22.17H20.7569V17.1267C20.7569 15.8078 20.2093 14.9042 18.9958 14.9042C18.0686 14.9042 17.552 15.5148 17.3156 16.1009C17.2284 16.3085 17.2409 16.6016 17.2409 16.9008V22.17H13.7498C13.7498 22.17 13.7934 13.2312 13.7498 12.4191H17.2409V13.9517C17.4463 13.28 18.5602 12.3275 20.3399 12.3275C22.5491 12.3275 24.2791 13.7319 24.2791 16.7481V22.17Z" fill="#0071BD"/>
</svg>
