<svg width="20" height="20" viewBox="0 0 20 20" fill="none" xmlns="http://www.w3.org/2000/svg">
<g clip-path="url(#clip0_448_7407)">
<path fill-rule="evenodd" clip-rule="evenodd" d="M10 1.66406C11.9891 1.66406 13.8968 2.45424 15.3033 3.86076C16.7098 5.26728 17.5 7.17494 17.5 9.16406C17.5 11.7257 16.1033 13.8224 14.6317 15.3266C13.8963 16.0698 13.094 16.7438 12.235 17.3399L11.88 17.5816L11.7133 17.6924L11.3992 17.8924L11.1192 18.0632L10.7725 18.2649C10.5371 18.3989 10.2709 18.4693 10 18.4693C9.72913 18.4693 9.46291 18.3989 9.2275 18.2649L8.88083 18.0632L8.4475 17.7966L8.2875 17.6924L7.94583 17.4649C7.01915 16.8377 6.15589 16.1215 5.36833 15.3266C3.89667 13.8216 2.5 11.7257 2.5 9.16406C2.5 7.17494 3.29018 5.26728 4.6967 3.86076C6.10322 2.45424 8.01088 1.66406 10 1.66406ZM10 3.33073C8.4529 3.33073 6.96917 3.94531 5.87521 5.03927C4.78125 6.13323 4.16667 7.61697 4.16667 9.16406C4.16667 11.0991 5.22667 12.7974 6.55917 14.1607C7.13218 14.7406 7.75145 15.273 8.41083 15.7524L8.7925 16.0241C8.91583 16.1099 9.03417 16.1899 9.14833 16.2641L9.47333 16.4724L9.75917 16.6466L10 16.7874L10.3792 16.5632L10.685 16.3716C10.8475 16.2682 11.0225 16.1524 11.2075 16.0241L11.5892 15.7524C12.2485 15.273 12.8678 14.7406 13.4408 14.1607C14.7733 12.7982 15.8333 11.0991 15.8333 9.16406C15.8333 7.61697 15.2188 6.13323 14.1248 5.03927C13.0308 3.94531 11.5471 3.33073 10 3.33073ZM10 5.83073C10.8841 5.83073 11.7319 6.18192 12.357 6.80704C12.9821 7.43216 13.3333 8.28001 13.3333 9.16406C13.3333 10.0481 12.9821 10.896 12.357 11.5211C11.7319 12.1462 10.8841 12.4974 10 12.4974C9.11594 12.4974 8.2681 12.1462 7.64298 11.5211C7.01786 10.896 6.66667 10.0481 6.66667 9.16406C6.66667 8.28001 7.01786 7.43216 7.64298 6.80704C8.2681 6.18192 9.11594 5.83073 10 5.83073ZM10 7.4974C9.55797 7.4974 9.13405 7.67299 8.82149 7.98555C8.50893 8.29811 8.33333 8.72203 8.33333 9.16406C8.33333 9.60609 8.50893 10.03 8.82149 10.3426C9.13405 10.6551 9.55797 10.8307 10 10.8307C10.442 10.8307 10.866 10.6551 11.1785 10.3426C11.4911 10.03 11.6667 9.60609 11.6667 9.16406C11.6667 8.72203 11.4911 8.29811 11.1785 7.98555C10.866 7.67299 10.442 7.4974 10 7.4974Z" fill="#0071BD"/>
</g>
<defs>
<clipPath id="clip0_448_7407">
<rect width="20" height="20" fill="white"/>
</clipPath>
</defs>
</svg>
