<svg width="20" height="21" viewBox="0 0 20 21" fill="none" xmlns="http://www.w3.org/2000/svg">
<path d="M7.69076 8H5.99886C5.06544 8 4.59838 8 4.24186 8.18166C3.92826 8.34144 3.67348 8.59623 3.51369 8.90983C3.33203 9.26635 3.33203 9.73341 3.33203 10.6668V15.3335C3.33203 16.2669 3.33203 16.7334 3.51369 17.0899C3.67348 17.4035 3.92826 17.6587 4.24186 17.8185C4.59803 18 5.06455 18 5.99615 18H14.0013C14.9329 18 15.3987 18 15.7549 17.8185C16.0685 17.6587 16.3241 17.4035 16.4839 17.0899C16.6654 16.7337 16.6654 16.2679 16.6654 15.3363V10.6641C16.6654 9.73249 16.6654 9.266 16.4839 8.90983C16.3241 8.59623 16.0685 8.34144 15.7549 8.18166C15.3983 8 14.9323 8 13.9989 8H12.3061M7.69076 8H12.3061M7.69076 8C7.58455 8 7.4987 7.9139 7.4987 7.80769V5.5C7.4987 4.11929 8.61799 3 9.9987 3C11.3794 3 12.4987 4.11929 12.4987 5.5V7.80769C12.4987 7.9139 12.4123 8 12.3061 8" stroke="#0071BD" stroke-width="2" stroke-linecap="round" stroke-linejoin="round"/>
</svg>
