<svg width="49" height="48" viewBox="0 0 49 48" fill="none" xmlns="http://www.w3.org/2000/svg">
<path d="M18.5 3.6875L30.648 10.7755L44.5 5.0035V22.0035H40.5V11.0035L32.5 14.3375V22.0035H28.5V14.1515L20.5 9.4855V33.8555L24.236 36.0355L22.22 39.4895L18.352 37.2315L4.5 43.0035V11.8555L18.5 3.6875ZM16.5 33.6695V9.4855L8.5 14.1515V37.0035L16.5 33.6695ZM30.844 25.5175L36.5 31.1755L42.158 25.5175L44.986 28.3475L39.33 34.0035L44.986 39.6595L42.158 42.4895L36.5 36.8315L30.844 42.4895L28.016 39.6595L33.672 34.0035L28.016 28.3475L30.844 25.5175Z" fill="#F7931E"/>
</svg>
