<svg width="49" height="48" viewBox="0 0 49 48" fill="none" xmlns="http://www.w3.org/2000/svg">
<g clip-path="url(#clip0_623_20998)">
<path d="M48.0601 7.93969L43.9998 3.87844C43.4373 3.31594 42.6741 3 41.8782 3H27.4998V1.5C27.4998 0.67125 26.8285 0 25.9998 0H22.9998C22.171 0 21.4998 0.67125 21.4998 1.5V3H5.74977C4.50758 3 3.49977 4.00781 3.49977 5.25V12.75C3.49977 13.9922 4.50758 15 5.74977 15H41.8782C42.6741 15 43.4363 14.6841 43.9998 14.1216L48.0601 10.0612C48.646 9.47437 48.646 8.52563 48.0601 7.93969ZM21.4998 46.5C21.4998 47.3288 22.171 48 22.9998 48H25.9998C26.8285 48 27.4998 47.3288 27.4998 46.5V36H21.4998V46.5ZM43.2498 21H27.4998V18H21.4998V21H7.12133C6.32539 21 5.5632 21.3159 4.99977 21.8784L0.939453 25.9397C0.353516 26.5256 0.353516 27.4753 0.939453 28.0613L4.99977 32.1216C5.56227 32.6841 6.32539 33 7.12133 33H43.2498C44.492 33 45.4998 31.9922 45.4998 30.75V23.25C45.4998 22.0078 44.492 21 43.2498 21Z" fill="#F7931E"/>
</g>
<defs>
<clipPath id="clip0_623_20998">
<rect width="48" height="48" fill="white" transform="translate(0.5)"/>
</clipPath>
</defs>
</svg>
