<svg width="24" height="24" viewBox="0 0 24 24" fill="none" xmlns="http://www.w3.org/2000/svg">
<g clip-path="url(#clip0_623_18991)">
<path d="M19.4628 2.32826C20.2464 2.94266 20.7864 3.93506 21.0072 4.97426C21.0339 4.98272 21.06 4.99315 21.0852 5.00546L23.5392 6.14066C23.6764 6.20365 23.7926 6.30457 23.8743 6.43152C23.956 6.55846 23.9996 6.70612 24 6.85706V21.6975C23.9991 21.8207 23.9697 21.9421 23.914 22.0521C23.8584 22.1621 23.778 22.2577 23.6791 22.3314C23.5803 22.4051 23.4658 22.4549 23.3445 22.477C23.2232 22.499 23.0984 22.4926 22.98 22.4583L16.1772 20.5383L8.0892 22.7679C7.94327 22.8079 7.78903 22.8063 7.644 22.7631L0.5688 20.6571C0.405265 20.609 0.261588 20.5095 0.159114 20.3733C0.0566412 20.2371 0.000839592 20.0715 0 19.9011L0 4.79426C0 4.26626 0.5136 3.88706 1.026 4.03586L7.8684 6.02906L11.346 4.96466C11.3939 4.95053 11.4428 4.94049 11.4924 4.93466C11.6268 4.14746 12.0024 3.39146 12.6324 2.65466C13.38 1.77866 14.6916 1.26506 15.9696 1.20386C17.2956 1.14026 18.3084 1.42346 19.4616 2.32706M1.5996 5.85386V19.3119L7.4436 21.0507V7.55426L1.5996 5.85386ZM11.4504 6.59066L9.0432 7.32626V20.8611L15.1212 19.1883V15.2343C15.1212 14.7975 15.48 14.4435 15.9216 14.4435C16.3632 14.4435 16.7208 14.7975 16.7208 15.2355V19.0479L22.4004 20.6499V7.35986L21.0564 6.73586C21.0336 6.86786 21.0048 6.99746 20.9688 7.12346C20.7079 8.04357 20.2701 8.90401 19.68 9.65666L16.7076 13.3683C16.6293 13.4658 16.5294 13.5438 16.4157 13.596C16.302 13.6482 16.1777 13.6731 16.0527 13.6688C15.9277 13.6645 15.8054 13.631 15.6955 13.5712C15.5857 13.5113 15.4914 13.4266 15.42 13.3239L12.642 9.30026C12.1836 8.65946 11.862 8.08826 11.6808 7.57706C11.5671 7.258 11.4898 6.92709 11.4504 6.59066ZM16.0464 2.78546C15.1752 2.82746 14.28 3.17786 13.854 3.67586C13.3416 4.27586 13.0896 4.83746 13.0392 5.40626C12.9792 6.09146 13.02 6.57506 13.1904 7.05386C13.3164 7.40786 13.5672 7.85666 13.9548 8.39786L16.128 11.5443L18.42 8.68226C18.8824 8.09132 19.2252 7.41593 19.4292 6.69386C19.7172 5.68586 19.2828 4.20506 18.4692 3.56906C17.6352 2.91506 17.0052 2.73866 16.0476 2.78546M16.2132 3.62186C17.538 3.62186 18.6132 4.68386 18.6132 5.99426C18.6115 6.30764 18.548 6.61762 18.4265 6.90647C18.3049 7.19532 18.1276 7.45739 17.9047 7.67771C17.6819 7.89802 17.4177 8.07226 17.1275 8.19047C16.8373 8.30869 16.5266 8.36856 16.2132 8.36666C14.8884 8.36666 13.8132 7.30466 13.8132 5.99426C13.8132 4.68386 14.8884 3.62186 16.2132 3.62186ZM16.2132 5.20346C16.1087 5.20283 16.0051 5.22278 15.9084 5.26218C15.8116 5.30158 15.7235 5.35965 15.6492 5.43309C15.5749 5.50652 15.5158 5.59387 15.4752 5.69016C15.4346 5.78645 15.4134 5.88978 15.4128 5.99426C15.4128 6.43106 15.7716 6.78506 16.2132 6.78506C16.3177 6.78553 16.4212 6.76542 16.5179 6.72588C16.6146 6.68633 16.7026 6.62813 16.7768 6.55458C16.851 6.48104 16.91 6.3936 16.9505 6.29725C16.9909 6.2009 17.0119 6.09754 17.0124 5.99306C17.0108 5.78247 16.9258 5.5811 16.776 5.43309C16.6262 5.28508 16.4238 5.2025 16.2132 5.20346Z" fill="#F7931E"/>
</g>
<defs>
<clipPath id="clip0_623_18991">
<rect width="24" height="24" fill="white"/>
</clipPath>
</defs>
</svg>
