<svg width="24" height="24" viewBox="0 0 24 24" fill="none" xmlns="http://www.w3.org/2000/svg">
<path d="M18 15L16.9425 16.0575L19.6275 18.75H7.5C6.70435 18.75 5.94129 18.4339 5.37868 17.8713C4.81607 17.3087 4.5 16.5456 4.5 15.75C4.5 14.9544 4.81607 14.1913 5.37868 13.6287C5.94129 13.0661 6.70435 12.75 7.5 12.75H16.5C17.6935 12.75 18.8381 12.2759 19.682 11.432C20.5259 10.5881 21 9.44347 21 8.25C21 7.05653 20.5259 5.91193 19.682 5.06802C18.8381 4.22411 17.6935 3.75 16.5 3.75H4.3725L7.0575 1.0575L6 0L1.5 4.5L6 9L7.0575 7.9425L4.3725 5.25H16.5C17.2956 5.25 18.0587 5.56607 18.6213 6.12868C19.1839 6.69129 19.5 7.45435 19.5 8.25C19.5 9.04565 19.1839 9.80871 18.6213 10.3713C18.0587 10.9339 17.2956 11.25 16.5 11.25H7.5C6.30653 11.25 5.16193 11.7241 4.31802 12.568C3.47411 13.4119 3 14.5565 3 15.75C3 16.9435 3.47411 18.0881 4.31802 18.932C5.16193 19.7759 6.30653 20.25 7.5 20.25H19.6275L16.9425 22.9425L18 24L22.5 19.5L18 15Z" fill="#F7931E"/>
</svg>
