<svg width="24" height="24" viewBox="0 0 24 24" fill="none" xmlns="http://www.w3.org/2000/svg">
<path d="M20.7462 12.0036L21.8502 10.0956C21.9829 9.86604 22.019 9.59318 21.9505 9.33703C21.8821 9.08087 21.7147 8.86238 21.4852 8.7296L19.5752 7.6256V5.4256C19.5752 5.16038 19.4698 4.90603 19.2823 4.71849C19.0948 4.53095 18.8404 4.4256 18.5752 4.4256H16.3762L15.2732 2.5166C15.14 2.28751 14.9219 2.1201 14.6662 2.0506C14.5394 2.01621 14.407 2.00735 14.2767 2.02451C14.1464 2.04168 14.0208 2.08454 13.9072 2.1506L11.9972 3.2546L10.0872 2.1496C9.85752 2.017 9.58458 1.98106 9.3284 2.0497C9.07223 2.11834 8.85382 2.28592 8.7212 2.5156L7.6172 4.4256H5.4182C5.15299 4.4256 4.89863 4.53095 4.7111 4.71849C4.52356 4.90603 4.4182 5.16038 4.4182 5.4256V7.6246L2.5082 8.7286C2.39424 8.79415 2.29434 8.88158 2.21427 8.98586C2.13419 9.09014 2.07551 9.20921 2.04159 9.33624C2.00767 9.46326 1.99919 9.59574 2.01663 9.72606C2.03407 9.85637 2.07708 9.98196 2.1432 10.0956L3.2472 12.0036L2.1432 13.9116C2.01119 14.1414 1.97537 14.414 2.04356 14.6701C2.11175 14.9262 2.27841 15.1449 2.5072 15.2786L4.4172 16.3826V18.5816C4.4172 18.8468 4.52256 19.1012 4.7101 19.2887C4.89763 19.4762 5.15199 19.5816 5.4172 19.5816H7.6172L8.7212 21.4916C8.80973 21.6429 8.93614 21.7686 9.08798 21.8563C9.23982 21.944 9.41187 21.9906 9.5872 21.9916C9.7612 21.9916 9.9342 21.9456 10.0882 21.8566L11.9962 20.7526L13.9062 21.8566C14.1358 21.989 14.4086 22.025 14.6647 21.9565C14.9207 21.8881 15.1392 21.7209 15.2722 21.4916L16.3752 19.5816H18.5742C18.8394 19.5816 19.0938 19.4762 19.2813 19.2887C19.4688 19.1012 19.5742 18.8468 19.5742 18.5816V16.3826L21.4842 15.2786C21.598 15.2129 21.6977 15.1253 21.7776 15.021C21.8575 14.9167 21.9161 14.7977 21.95 14.6707C21.9839 14.5438 21.9925 14.4114 21.9752 14.2811C21.9579 14.1509 21.9151 14.0253 21.8492 13.9116L20.7462 12.0036ZM9.4962 6.9936C9.89416 6.99373 10.2758 7.15195 10.5571 7.43344C10.8384 7.71493 10.9963 8.09664 10.9962 8.4946C10.9961 8.89256 10.8379 9.27416 10.5564 9.55547C10.2749 9.83677 9.89316 9.99473 9.4952 9.9946C9.09725 9.99447 8.71564 9.83625 8.43434 9.55476C8.15303 9.27327 7.99507 8.89155 7.9952 8.4936C7.99534 8.09564 8.15355 7.71404 8.43504 7.43273C8.71653 7.15143 9.09825 6.99346 9.4962 6.9936ZM9.7962 16.5936L8.1962 15.3946L14.1962 7.3946L15.7962 8.5936L9.7962 16.5936ZM14.4962 16.9936C14.2992 16.9935 14.104 16.9547 13.922 16.8792C13.74 16.8037 13.5746 16.6931 13.4353 16.5538C13.296 16.4144 13.1856 16.2489 13.1102 16.0669C13.0349 15.8848 12.9961 15.6896 12.9962 15.4926C12.9963 15.2955 13.0351 15.1004 13.1106 14.9184C13.1861 14.7364 13.2967 14.571 13.436 14.4317C13.5754 14.2924 13.7409 14.182 13.9229 14.1066C14.105 14.0313 14.3002 13.9925 14.4972 13.9926C14.8952 13.9927 15.2768 14.1509 15.5581 14.4324C15.8394 14.7139 15.9973 15.0956 15.9972 15.4936C15.9971 15.8916 15.8389 16.2732 15.5574 16.5545C15.2759 16.8358 14.8942 16.9937 14.4962 16.9936Z" fill="#0071BD"/>
</svg>
