<svg width="24" height="24" viewBox="0 0 24 24" fill="none" xmlns="http://www.w3.org/2000/svg">
<path d="M18.5 17.8V15.5C18.5 15.3667 18.45 15.25 18.35 15.15C18.25 15.05 18.1333 15 18 15C17.8667 15 17.75 15.05 17.65 15.15C17.55 15.25 17.5 15.3667 17.5 15.5V17.8C17.5 17.9333 17.525 18.0583 17.575 18.175C17.625 18.2917 17.7 18.4 17.8 18.5L19.325 20.025C19.425 20.125 19.5417 20.175 19.675 20.175C19.8083 20.175 19.925 20.125 20.025 20.025C20.125 19.925 20.175 19.8083 20.175 19.675C20.175 19.5417 20.125 19.425 20.025 19.325L18.5 17.8ZM5 21C4.45 21 3.97933 20.8043 3.588 20.413C3.19667 20.0217 3.00067 19.5507 3 19V5C3 4.45 3.196 3.97933 3.588 3.588C3.98 3.19667 4.45067 3.00067 5 3H19C19.55 3 20.021 3.196 20.413 3.588C20.805 3.98 21.0007 4.45067 21 5V10C21 10.2833 20.904 10.521 20.712 10.713C20.52 10.905 20.2827 11.0007 20 11C19.7167 11 19.4793 10.904 19.288 10.712C19.0967 10.52 19.0007 10.2827 19 10V5H5V19H10C10.2833 19 10.521 19.096 10.713 19.288C10.905 19.48 11.0007 19.7173 11 20C11 20.2833 10.904 20.521 10.712 20.713C10.52 20.905 10.2827 21.0007 10 21H5ZM5 18V19V5V11.075V11V18ZM7 16C7 16.2833 7.096 16.521 7.288 16.713C7.48 16.905 7.71733 17.0007 8 17H10.075C10.3583 17 10.596 16.904 10.788 16.712C10.98 16.52 11.0757 16.2827 11.075 16C11.075 15.7167 10.9793 15.4793 10.788 15.288C10.5967 15.0967 10.359 15.0007 10.075 15H8C7.71667 15 7.47933 15.096 7.288 15.288C7.09667 15.48 7.00067 15.7173 7 16ZM7 12C7 12.2833 7.096 12.521 7.288 12.713C7.48 12.905 7.71733 13.0007 8 13H13C13.2833 13 13.521 12.904 13.713 12.712C13.905 12.52 14.0007 12.2827 14 12C14 11.7167 13.904 11.4793 13.712 11.288C13.52 11.0967 13.2827 11.0007 13 11H8C7.71667 11 7.47933 11.096 7.288 11.288C7.09667 11.48 7.00067 11.7173 7 12ZM7 8C7 8.28333 7.096 8.521 7.288 8.713C7.48 8.905 7.71733 9.00067 8 9H16C16.2833 9 16.521 8.904 16.713 8.712C16.905 8.52 17.0007 8.28267 17 8C17 7.71667 16.904 7.47933 16.712 7.288C16.52 7.09667 16.2827 7.00067 16 7H8C7.71667 7 7.47933 7.096 7.288 7.288C7.09667 7.48 7.00067 7.71733 7 8ZM18 23C16.6167 23 15.4377 22.5123 14.463 21.537C13.4883 20.5617 13.0007 19.3827 13 18C13 16.6167 13.4877 15.4377 14.463 14.463C15.4383 13.4883 16.6173 13.0007 18 13C19.3833 13 20.5627 13.4877 21.538 14.463C22.5133 15.4383 23.0007 16.6173 23 18C23 19.3833 22.5123 20.5627 21.537 21.538C20.5617 22.5133 19.3827 23.0007 18 23Z" fill="#F7931E"/>
</svg>
