<svg width="49" height="48" viewBox="0 0 49 48" fill="none" xmlns="http://www.w3.org/2000/svg">
<path d="M43.9194 17.4194C46.4194 14.9194 45.2794 11.9994 43.9194 10.5794L37.9194 4.57937C35.3994 2.07937 32.4994 3.21937 31.0794 4.57937L27.6794 7.99937H22.4994C18.6994 7.99937 16.4994 9.99937 15.3794 12.2994L6.49937 21.1794V29.1794L5.07937 30.5794C2.57937 33.0994 3.71937 35.9994 5.07937 37.4194L11.0794 43.4194C12.1594 44.4994 13.3194 44.8994 14.4194 44.8994C15.8394 44.8994 17.1394 44.1994 17.9194 43.4194L23.3194 37.9994H30.4994C33.8994 37.9994 35.6194 35.8794 36.2394 33.7994C38.4994 33.1994 39.7394 31.4794 40.2394 29.7994C43.3394 28.9994 44.4994 26.0594 44.4994 23.9994V17.9994H43.3194L43.9194 17.4194ZM40.4994 23.9994C40.4994 24.8994 40.1194 25.9994 38.4994 25.9994H36.4994V27.9994C36.4994 28.8994 36.1194 29.9994 34.4994 29.9994H32.4994V31.9994C32.4994 32.8994 32.1194 33.9994 30.4994 33.9994H21.6794L15.1194 40.5594C14.4994 41.1394 14.1394 40.7994 13.9194 40.5794L7.93937 34.6194C7.35937 33.9994 7.69937 33.6394 7.91937 33.4194L10.4994 30.8194V22.8194L14.4994 18.8194V21.9994C14.4994 24.4194 16.0994 27.9994 20.4994 27.9994C24.8994 27.9994 26.4994 24.4194 26.4994 21.9994H40.4994V23.9994ZM41.0794 14.5794L37.6794 17.9994H22.4994V21.9994C22.4994 22.8994 22.1194 23.9994 20.4994 23.9994C18.8794 23.9994 18.4994 22.8994 18.4994 21.9994V15.9994C18.4994 15.0794 18.8394 11.9994 22.4994 11.9994H29.3194L33.8794 7.43937C34.4994 6.85937 34.8594 7.19937 35.0794 7.41937L41.0594 13.3794C41.6394 13.9994 41.2994 14.3594 41.0794 14.5794Z" fill="#F7931E"/>
</svg>
