<svg width="47" height="48" viewBox="0 0 47 48" fill="none" xmlns="http://www.w3.org/2000/svg">
<g clip-path="url(#clip0_793_22664)">
<path d="M19.2186 39.3622C18.7386 39.3622 18.4186 39.8422 18.4186 40.6422C18.4186 41.2822 18.7386 41.9222 19.3786 41.9222C19.8586 41.9222 20.1786 41.4422 20.1786 40.6422C20.1786 40.0022 19.8586 39.3622 19.2186 39.3622ZM6.41859 39.3622C6.41859 39.5222 6.25859 39.8422 6.25859 40.0022L6.09859 40.8022H6.89859L6.73859 40.0022C6.57859 39.8422 6.57859 39.6822 6.41859 39.3622ZM3.37859 39.3622H3.05859V40.4822H3.37859C3.85859 40.4822 4.01859 40.3222 4.01859 39.8422C4.01859 39.3622 3.85859 39.3622 3.37859 39.3622ZM15.6986 39.3622H15.3786V40.4822H15.6986C16.1786 40.4822 16.3386 40.3222 16.3386 39.8422C16.3386 39.3622 16.0186 39.3622 15.6986 39.3622ZM22.7386 39.3622H22.4186V40.3222H22.7386C23.2186 40.3222 23.3786 40.1622 23.3786 39.8422C23.3786 39.5222 23.0586 39.3622 22.7386 39.3622ZM46.7386 11.6822L23.3786 0.162223C23.2452 0.0783451 23.0955 0.0238818 22.9394 0.00246762C22.7833 -0.0189465 22.6244 -0.00681899 22.4733 0.0380409C22.3223 0.0829008 22.1825 0.159461 22.0634 0.262613C21.9443 0.365764 21.8486 0.493134 21.7826 0.636223L21.7806 0.642223V0.802223L21.3006 1.60222L18.5806 7.20222H28.3726C29.7686 7.20222 30.9006 8.33422 30.9006 9.73022V9.76422V46.5622C31.0606 46.4022 31.2206 46.2422 31.2206 46.0822L47.2206 13.2822C47.2995 13.1475 47.3499 12.9981 47.3687 12.8431C47.3875 12.6882 47.3742 12.531 47.3298 12.3814C47.2853 12.2318 47.2107 12.0929 47.1103 11.9733C47.01 11.8537 46.8862 11.756 46.7466 11.6862L46.7406 11.6842L46.7386 11.6822ZM18.8986 29.2822C17.8241 28.9141 16.7031 28.6993 15.5686 28.6442L15.5386 28.6422V33.2822C16.3568 32.914 17.0823 32.3675 17.6619 31.6827C18.2416 30.9978 18.6607 30.192 18.8886 29.3242L18.8986 29.2822ZM19.3786 19.3622C18.2068 19.7907 16.9683 20.0081 15.7206 20.0042L15.5306 20.0022H15.5406V22.5622H19.8606C19.8468 21.4495 19.6778 20.3442 19.3586 19.2782L19.3806 19.3622H19.3786ZM15.5386 14.2422V18.5622L15.6886 18.5642C16.8466 18.5642 17.9506 18.3282 18.9526 17.9022L18.8986 17.9222C18.6904 17.084 18.2778 16.3103 17.6978 15.6702C17.1178 15.0302 16.3884 14.5437 15.5746 14.2542L15.5386 14.2422Z" fill="#F7931E"/>
<path d="M20.9803 28.3184C21.5603 28.6364 22.0083 29.1364 22.2543 29.7404L22.2603 29.7584C23.5439 28.2922 24.3277 26.4556 24.4983 24.5144L24.5003 24.4784H21.4603C21.5408 25.8037 21.3705 27.1323 20.9583 28.3944L20.9803 28.3184ZM8.34031 31.0384C8.84431 31.4864 9.42431 31.8624 10.0583 32.1424L10.1003 32.1584C9.65831 31.5584 9.28031 30.8724 9.00031 30.1384L8.98031 30.0784C8.68264 30.3269 8.46201 30.655 8.34431 31.0244L8.34031 31.0384ZM21.1403 15.8384C20.5403 15.3684 19.8623 14.8944 19.1583 14.4564L19.0603 14.3984C19.6303 15.0884 20.1143 15.8804 20.4763 16.7364L20.5003 16.7984C20.8203 16.7984 21.1403 16.3184 21.1403 15.8384ZM19.3803 32.1584C19.9983 31.8644 20.5263 31.4884 20.9803 31.0384C20.9538 30.8415 20.883 30.6532 20.7731 30.4876C20.6633 30.322 20.5174 30.1835 20.3463 30.0824L20.3403 30.0784C20.1763 30.8764 19.8403 31.5764 19.3723 32.1684L19.3803 32.1584ZM21.6203 22.7184H24.6603C24.4504 20.742 23.7256 18.8551 22.5583 17.2464L22.5803 17.2784C22.2762 17.8988 21.7765 18.402 21.1583 18.7104L21.1403 18.7184C21.3003 19.9984 21.4603 21.2784 21.6203 22.7184ZM19.8603 24.4784H15.5403V26.8784C16.8838 26.9124 18.2097 27.1924 19.4523 27.7044L19.3803 27.6784C19.6872 26.6418 19.8487 25.5675 19.8603 24.4864V24.4784ZM9.94031 14.8784C9.35185 15.1025 8.80801 15.4296 8.33431 15.8444L8.34031 15.8384C8.35215 16.0219 8.40054 16.2012 8.48262 16.3657C8.56471 16.5302 8.67884 16.6766 8.81831 16.7964L8.82031 16.7984C9.07631 16.0564 9.45831 15.4164 9.94431 14.8724L9.94031 14.8784ZM8.34031 18.5584C7.84324 18.2183 7.41278 17.7899 7.07031 17.2944L7.06031 17.2784C5.76906 18.8643 4.98876 20.8042 4.82231 22.8424L4.82031 22.8784H7.70031C7.73231 21.3745 7.95749 19.8809 8.37031 18.4344L8.34031 18.5584ZM13.7803 32.9584V28.6384C12.6509 28.7621 11.535 28.9877 10.4463 29.3124L10.5803 29.2784C10.7778 30.0975 11.1679 30.8576 11.7182 31.4955C12.2685 32.1335 12.9631 32.6309 13.7443 32.9464L13.7803 32.9584Z" fill="#F7931E"/>
<path d="M28.9793 10.2429V10.1949C28.9793 9.88793 28.865 9.59193 28.6587 9.36456C28.4524 9.1372 28.1689 8.99474 27.8633 8.96494H1.77733C1.74533 8.96094 1.70733 8.96094 1.66933 8.96094C1.50533 8.96134 1.34322 8.99591 1.19334 9.06246C1.04346 9.12901 0.90909 9.22607 0.798813 9.34745C0.688537 9.46883 0.604772 9.61186 0.552862 9.76742C0.500952 9.92298 0.482038 10.0877 0.497326 10.2509V10.2469V46.7449C0.497326 47.4429 1.06333 48.0069 1.75933 48.0069H27.6973C28.0285 47.9838 28.3402 47.842 28.5753 47.6076C28.8104 47.3733 28.9531 47.062 28.9773 46.7309V46.7269L28.9793 10.2429ZM3.21933 22.4029C3.46069 19.6916 4.64483 17.1506 6.56579 15.222C8.48674 13.2934 11.023 12.0991 13.7333 11.8469L13.7793 11.8429V11.6829H15.5393V11.8429C17.0415 11.9611 18.5057 12.374 19.8483 13.0581C21.1909 13.7422 22.3857 14.684 23.3643 15.8297C24.343 16.9755 25.0863 18.3028 25.552 19.7359C26.0177 21.169 26.1965 22.6797 26.0783 24.1819C25.9601 25.6841 25.5472 27.1483 24.8632 28.4909C24.1791 29.8336 23.2373 31.0283 22.0915 32.0069C20.9457 32.9856 19.6184 33.7289 18.1854 34.1946C16.7523 34.6603 15.2415 34.8391 13.7393 34.7209L13.7793 34.7229C7.82533 34.1969 3.19333 29.2349 3.19333 23.1889C3.19333 22.9129 3.20333 22.6369 3.22133 22.3669L3.21933 22.4029ZM3.37933 41.1229H3.05933V42.4029H2.25933V38.7229H3.37933C3.78175 38.6783 4.18556 38.794 4.50333 39.0449L4.49933 39.0429C4.81933 39.2029 4.81933 39.5229 4.81933 39.8429C4.81462 40.1399 4.7007 40.4247 4.49933 40.6429C4.36318 40.7944 4.19663 40.9154 4.01053 40.9981C3.82443 41.0808 3.62298 41.1234 3.41933 41.1229H3.37933ZM7.21933 42.4029L6.89933 41.4429H5.93933L5.61933 42.4029H4.81933L5.93933 38.7229H7.05933L8.17933 42.4029H7.21933ZM9.45933 42.4029C9.12659 42.4287 8.79264 42.3717 8.48733 42.2369L8.49933 42.2429L8.65933 41.6029C8.96385 41.7353 9.2964 41.7903 9.62733 41.7629H9.61933C9.93933 41.7629 10.0993 41.6029 10.0993 41.4429C10.0993 41.2829 9.93933 41.1229 9.45933 40.9629C8.97933 40.6429 8.49933 40.3229 8.49933 39.8429C8.49933 39.2029 8.97933 38.7229 9.93933 38.7229C10.2721 38.6971 10.606 38.7542 10.9113 38.8889L10.8993 38.8829L10.7393 39.5229C10.4981 39.3758 10.2125 39.3191 9.93333 39.3629H9.93933C9.61933 39.3629 9.45933 39.5229 9.45933 39.6829C9.45933 39.8429 9.61933 40.0029 10.0993 40.1629C10.6393 40.2629 11.0453 40.7229 11.0593 41.2809C11.0593 41.9209 10.5793 42.4029 9.45933 42.4029ZM12.4993 42.4029C12.1666 42.4287 11.8326 42.3717 11.5273 42.2369L11.5393 42.2429V41.6029C11.8438 41.7353 12.1764 41.7903 12.5073 41.7629H12.4993C12.8193 41.7629 13.1393 41.6029 13.1393 41.4429C13.1393 41.2829 12.9793 41.1229 12.4993 40.9629C12.2364 40.939 11.9919 40.8176 11.8139 40.6225C11.6359 40.4275 11.5372 40.173 11.5373 39.9089L11.5393 39.8389V39.8429C11.5393 39.2029 12.0193 38.7229 12.9793 38.7229C13.3121 38.6971 13.646 38.7542 13.9513 38.8889L13.9393 38.8829L13.7793 39.5229C13.5381 39.3758 13.2525 39.3191 12.9733 39.3629H12.9793C12.6593 39.3629 12.4993 39.5229 12.4993 39.6829C12.4993 39.8429 12.6593 40.0029 13.1393 40.1629C13.6793 40.2629 14.0853 40.7229 14.0993 41.2809C14.0321 41.6414 13.8257 41.9629 13.5249 42.1725C13.224 42.3821 12.8527 42.4648 12.4913 42.4029H12.4993ZM16.8193 40.8029C16.6834 40.961 16.5039 41.0754 16.3033 41.132C16.1026 41.1886 15.8898 41.1847 15.6913 41.1209L15.6993 41.1229H15.3793V42.4029H14.5793V38.7229H15.6993C16.1018 38.6783 16.5056 38.794 16.8233 39.0449L16.8193 39.0429C17.1393 39.2029 17.1393 39.5229 17.1393 39.8429C17.1033 40.2029 16.9893 40.5289 16.8133 40.8129L16.8193 40.8029ZM20.9793 40.4829C21.0119 40.7157 20.9954 40.9527 20.9311 41.1788C20.8668 41.4048 20.7559 41.6149 20.6057 41.7957C20.4554 41.9764 20.2691 42.1238 20.0586 42.2284C19.8481 42.3329 19.6181 42.3924 19.3833 42.4029H19.0593C18.5938 42.3988 18.1486 42.212 17.8194 41.8828C17.4903 41.5537 17.3035 41.1084 17.2993 40.6429V40.4829C17.2638 40.0189 17.41 39.5593 17.7071 39.201C18.0041 38.8428 18.4288 38.614 18.8913 38.5629H19.0673C19.5053 38.563 19.9276 38.7263 20.2516 39.0211C20.5756 39.3159 20.778 39.7209 20.8193 40.1569V40.1649L20.9793 40.4829ZM23.3793 42.4029C23.2193 42.0829 23.2193 41.9229 23.0593 41.6029C22.8993 41.1229 22.7393 40.9629 22.4193 40.9629H22.0993V42.4029H21.2993V38.7229H22.4193C22.6185 38.6887 22.8229 38.6998 23.0172 38.7556C23.2115 38.8113 23.3906 38.9102 23.5413 39.0449L23.5393 39.0429C23.7402 39.2607 23.8541 39.5447 23.8593 39.8409C23.854 40.044 23.7918 40.2435 23.6797 40.4128C23.5676 40.5822 23.4101 40.7167 23.2253 40.8009L23.2193 40.8029C23.5393 40.9629 23.5393 41.1229 23.6993 41.4429C23.7353 41.8029 23.8493 42.1289 24.0253 42.4129L24.0193 42.4029H23.3793ZM27.3793 39.5229H26.4193V42.4029H25.6193V39.5229H24.4993V38.8829H27.2193V39.5229H27.3793Z" fill="#F7931E"/>
<path d="M8.34047 28.3219C8.03936 27.0443 7.82883 25.7471 7.71047 24.4399L7.70047 24.3219H4.98047C5.19223 26.2474 5.91752 28.0807 7.08047 29.6299L7.06047 29.6019C7.40847 29.0959 7.83447 28.6699 8.32447 28.3319L8.34047 28.3219ZM13.7805 24.4819H9.46047C9.46247 25.6239 9.63847 26.7259 9.96247 27.7599L9.94047 27.6819C11.1628 27.2639 12.4315 26.9966 13.7185 26.8859L13.7805 26.8819V24.4819ZM13.7805 13.9219C12.0205 14.2419 10.9005 16.1619 10.4205 17.6019C11.4025 17.9939 12.5405 18.2759 13.7265 18.3979L13.7805 18.4019V13.9219ZM13.7805 22.7219V20.1619C12.4369 20.1279 11.111 19.848 9.86847 19.3359L9.94047 19.3619C9.62083 20.4525 9.45918 21.5834 9.46047 22.7199L13.7805 22.7219Z" fill="#F7931E"/>
</g>
<defs>
<clipPath id="clip0_793_22664">
<rect width="46" height="48" fill="white" transform="translate(0.5)"/>
</clipPath>
</defs>
</svg>
