<svg width="90" height="90" viewBox="0 0 90 90" fill="none" xmlns="http://www.w3.org/2000/svg">
<g clip-path="url(#clip0_597_7007)">
<path d="M44.997 0.445312C20.3633 0.445312 0.390625 20.3963 0.390625 45.0032C0.390625 69.61 20.3633 89.5611 44.997 89.5611C69.6306 89.5611 89.6035 69.61 89.6035 45.0032C89.6035 20.3963 69.6306 0.445312 44.997 0.445312ZM61.561 45.5076L36.4699 60.4667C36.2902 60.5757 36.0615 60.5811 35.8764 60.4721C35.6968 60.3687 35.5825 60.1759 35.5825 59.9609V45.0016V30.0424C35.5825 29.8304 35.6968 29.6346 35.8764 29.531C36.0615 29.425 36.2902 29.4304 36.4699 29.5364L61.561 44.4985C61.7407 44.6004 61.8469 44.7975 61.8469 45.0015C61.8469 45.2098 61.7408 45.403 61.561 45.5076Z" fill="#0071BD"/>
</g>
<defs>
<clipPath id="clip0_597_7007">
<rect width="89.2128" height="89.1158" fill="white" transform="translate(0.390625 0.445312)"/>
</clipPath>
</defs>
</svg>
