<svg width="24" height="25" viewBox="0 0 24 25" fill="none" xmlns="http://www.w3.org/2000/svg">
<g clip-path="url(#clip0_549_8682)">
<path d="M12 24.5C8.8174 24.5 5.76516 23.2357 3.51472 20.9853C1.26428 18.7348 0 15.6826 0 12.5C0 9.3174 1.26428 6.26516 3.51472 4.01472C5.76516 1.76428 8.8174 0.5 12 0.5C15.1826 0.5 18.2348 1.76428 20.4853 4.01472C22.7357 6.26516 24 9.3174 24 12.5C24 15.6826 22.7357 18.7348 20.4853 20.9853C18.2348 23.2357 15.1826 24.5 12 24.5ZM14.4 8.9C14.4 9.236 14.148 9.86 13.896 10.1L12 11.996C11.316 12.692 10.8 13.916 10.8 14.9V16.1H13.2V14.9C13.2 14.552 13.452 13.94 13.704 13.7L15.6 11.804C16.284 11.108 16.8 9.884 16.8 8.9C16.8 7.62696 16.2943 6.40606 15.3941 5.50589C14.4939 4.60571 13.273 4.1 12 4.1C10.727 4.1 9.50606 4.60571 8.60589 5.50589C7.70571 6.40606 7.2 7.62696 7.2 8.9H9.6C9.6 8.26348 9.85286 7.65303 10.3029 7.20294C10.753 6.75286 11.3635 6.5 12 6.5C12.6365 6.5 13.247 6.75286 13.6971 7.20294C14.1471 7.65303 14.4 8.26348 14.4 8.9ZM10.8 18.5V20.9H13.2V18.5H10.8Z" fill="#F7931E"/>
</g>
<defs>
<clipPath id="clip0_549_8682">
<rect width="24" height="24" fill="white" transform="translate(0 0.5)"/>
</clipPath>
</defs>
</svg>
