<svg width="49" height="48" viewBox="0 0 49 48" fill="none" xmlns="http://www.w3.org/2000/svg">
<g clip-path="url(#clip0_623_21005)">
<path d="M23.096 4.38645C23.8852 4.09116 24.7476 4.05266 25.56 4.27645L25.904 4.38645L39.904 9.63645C40.6139 9.90263 41.2335 10.3651 41.6906 10.9699C42.1477 11.5747 42.4236 12.2969 42.486 13.0525L42.5 13.3825V24.1084C42.4999 27.3493 41.6249 30.53 39.9672 33.3148C38.3095 36.0997 35.9308 38.3853 33.082 39.9305L32.55 40.2085L25.842 43.5625C25.4726 43.7469 25.0692 43.8531 24.6569 43.8744C24.2447 43.8957 23.8324 43.8317 23.446 43.6865L23.158 43.5625L16.45 40.2085C13.5512 38.759 11.0976 36.5538 9.34801 33.8257C7.59847 31.0975 6.61796 27.9476 6.51 24.7085L6.5 24.1084V13.3825C6.50001 12.6247 6.71525 11.8826 7.12067 11.2424C7.52608 10.6022 8.10499 10.0904 8.79 9.76645L9.096 9.63645L23.096 4.38645ZM24.5 8.13245L10.5 13.3825V24.1084C10.5001 26.6185 11.1749 29.0823 12.4539 31.242C13.7329 33.4017 15.569 35.1779 17.77 36.3845L18.24 36.6305L24.5 39.7605L30.76 36.6305C33.0055 35.5079 34.9078 33.8023 36.2677 31.6922C37.6277 29.582 38.3952 27.1451 38.49 24.6364L38.5 24.1084V13.3825L24.5 8.13245ZM31.366 17.2545C31.7259 16.8958 32.2089 16.6875 32.7168 16.672C33.2247 16.6565 33.7194 16.8349 34.1006 17.1709C34.4817 17.507 34.7206 17.9756 34.7688 18.4814C34.817 18.9872 34.6708 19.4925 34.36 19.8945L34.194 20.0825L23.726 30.5525C23.3447 30.9337 22.8366 31.1616 22.2983 31.193C21.76 31.2243 21.229 31.0569 20.806 30.7225L20.614 30.5525L15.806 25.7444C15.4435 25.3854 15.2319 24.9013 15.2146 24.3914C15.1973 23.8814 15.3756 23.3841 15.7129 23.0013C16.0503 22.6185 16.5212 22.379 17.0292 22.332C17.5373 22.285 18.0442 22.434 18.446 22.7485L18.634 22.9144L22.17 26.4505L31.366 17.2545Z" fill="#F7931E"/>
</g>
<defs>
<clipPath id="clip0_623_21005">
<rect width="48" height="48" fill="white" transform="translate(0.5)"/>
</clipPath>
</defs>
</svg>
