<svg width="100" height="104" viewBox="0 0 100 104" fill="none" xmlns="http://www.w3.org/2000/svg">
<g filter="url(#filter0_d_844_7794)">
<path d="M54.1693 27H45.8359V31.1667C45.8359 32.2717 46.2749 33.3315 47.0563 34.1129C47.8377 34.8943 48.8975 35.3333 50.0026 35.3333C51.1077 35.3333 52.1675 34.8943 52.9489 34.1129C53.7303 33.3315 54.1693 32.2717 54.1693 31.1667V27Z" fill="white"/>
<path fill-rule="evenodd" clip-rule="evenodd" d="M25 10.3359V18.6693H29.1667V31.1693C29.1667 36.6946 31.3616 41.9937 35.2686 45.9007C39.1756 49.8077 44.4747 52.0026 50 52.0026C44.4747 52.0026 39.1756 54.1975 35.2686 58.1045C31.3616 62.0116 29.1667 67.3106 29.1667 72.8359V85.3359H25V93.6693H75V85.3359H70.8333V72.8359C70.8333 67.3106 68.6384 62.0116 64.7314 58.1045C60.8244 54.1975 55.5253 52.0026 50 52.0026C52.7359 52.0026 55.445 51.4637 57.9726 50.4168C60.5002 49.3698 62.7968 47.8352 64.7314 45.9007C66.6659 43.9661 68.2005 41.6695 69.2475 39.1418C70.2945 36.6142 70.8333 33.9051 70.8333 31.1693V18.6693H75V10.3359H25ZM37.5 18.6693H62.5V31.1693C62.5 34.4845 61.183 37.6639 58.8388 40.0081C56.4946 42.3523 53.3152 43.6693 50 43.6693C46.6848 43.6693 43.5054 42.3523 41.1612 40.0081C38.817 37.6639 37.5 34.4845 37.5 31.1693V18.6693ZM37.5 72.8359V85.3359H62.5V72.8359C62.5 69.5207 61.183 66.3413 58.8388 63.9971C56.4946 61.6529 53.3152 60.3359 50 60.3359C46.6848 60.3359 43.5054 61.6529 41.1612 63.9971C38.817 66.3413 37.5 69.5207 37.5 72.8359Z" fill="white"/>
</g>
<defs>
<filter id="filter0_d_844_7794" x="-10" y="-8" width="120" height="120" filterUnits="userSpaceOnUse" color-interpolation-filters="sRGB">
<feFlood flood-opacity="0" result="BackgroundImageFix"/>
<feColorMatrix in="SourceAlpha" type="matrix" values="0 0 0 0 0 0 0 0 0 0 0 0 0 0 0 0 0 0 127 0" result="hardAlpha"/>
<feOffset/>
<feGaussianBlur stdDeviation="5"/>
<feComposite in2="hardAlpha" operator="out"/>
<feColorMatrix type="matrix" values="0 0 0 0 0 0 0 0 0 0 0 0 0 0 0 0 0 0 0.8 0"/>
<feBlend mode="normal" in2="BackgroundImageFix" result="effect1_dropShadow_844_7794"/>
<feBlend mode="normal" in="SourceGraphic" in2="effect1_dropShadow_844_7794" result="shape"/>
</filter>
</defs>
</svg>
