<svg width="12" height="12" viewBox="0 0 12 12" fill="none" xmlns="http://www.w3.org/2000/svg">
<path fill-rule="evenodd" clip-rule="evenodd" d="M1.19231 5.40445C1.19231 3.09973 3.06066 1.23137 5.36539 1.23137C7.67012 1.23137 9.53847 3.09973 9.53847 5.40445C9.53847 7.70919 7.67012 9.57754 5.36539 9.57754C3.06066 9.57754 1.19231 7.70919 1.19231 5.40445ZM5.36539 0.0390625C2.40217 0.0390625 0 2.44123 0 5.40445C0 8.3677 2.40217 10.7698 5.36539 10.7698C6.63222 10.7698 7.79651 10.3308 8.71441 9.59655L10.9054 11.7875C11.1382 12.0203 11.5157 12.0203 11.7485 11.7875C11.9813 11.5547 11.9813 11.1773 11.7485 10.9445L9.55749 8.75347C10.2917 7.83557 10.7308 6.67128 10.7308 5.40445C10.7308 2.44123 8.32864 0.0390625 5.36539 0.0390625Z" fill="#0071BD"/>
</svg>
