<svg width="24" height="24" viewBox="0 0 24 24" fill="none" xmlns="http://www.w3.org/2000/svg">
<path d="M20.3316 3.67106C20.1424 3.48322 19.9051 3.35118 19.6458 3.28943C19.3864 3.22768 19.1151 3.23863 18.8616 3.32106L4.23159 8.20106C3.96026 8.28703 3.72049 8.45149 3.54258 8.67365C3.36466 8.89581 3.25657 9.16572 3.23196 9.44928C3.20735 9.73284 3.26732 10.0173 3.4043 10.2668C3.54128 10.5163 3.74913 10.7196 4.00159 10.8511L10.0716 13.8511L13.0716 19.9411C13.1922 20.1794 13.3767 20.3796 13.6045 20.5191C13.8323 20.6586 14.0944 20.732 14.3616 20.7311H14.4616C14.7477 20.71 15.0208 20.6034 15.2455 20.425C15.4702 20.2467 15.6361 20.0049 15.7216 19.7311L20.6716 5.14106C20.76 4.88899 20.7749 4.617 20.7148 4.35675C20.6546 4.09651 20.5217 3.85871 20.3316 3.67106ZM4.85159 9.58106L17.6216 5.32106L10.5316 12.4111L4.85159 9.58106ZM14.4316 19.1511L11.5916 13.4711L18.6816 6.38106L14.4316 19.1511Z" fill="#0071BD"/>
</svg>
