<svg width="32" height="32" viewBox="0 0 32 32" fill="none" xmlns="http://www.w3.org/2000/svg">
<path d="M16 20C18.2091 20 20 18.2091 20 16C20 13.7909 18.2091 12 16 12C13.7909 12 12 13.7909 12 16C12 18.2091 13.7909 20 16 20Z" stroke="#F8F8F8" stroke-width="3"/>
<path d="M18.3539 2.86673C17.8646 2.66406 17.2433 2.66406 16.0006 2.66406C14.7579 2.66406 14.1366 2.66406 13.6473 2.86673C13.3235 3.00075 13.0293 3.19726 12.7816 3.44503C12.5338 3.6928 12.3373 3.98697 12.2033 4.31073C12.0806 4.60806 12.0313 4.95606 12.0126 5.4614C12.0043 5.82672 11.9033 6.18393 11.719 6.49949C11.5348 6.81505 11.2733 7.0786 10.9593 7.2654C10.6405 7.44412 10.2815 7.53886 9.91598 7.54073C9.5505 7.5426 9.19055 7.45152 8.86993 7.27606C8.42193 7.03873 8.09793 6.90806 7.7766 6.8654C7.07569 6.77322 6.36687 6.96314 5.80593 7.3934C5.38727 7.7174 5.07527 8.25473 4.45393 9.33073C3.8326 10.4067 3.5206 10.9441 3.4526 11.4707C3.40678 11.818 3.42983 12.1709 3.52042 12.5093C3.61102 12.8476 3.76739 13.1648 3.9806 13.4427C4.17793 13.6987 4.45393 13.9134 4.88193 14.1827C5.5126 14.5787 5.91793 15.2534 5.91793 15.9974C5.91793 16.7414 5.5126 17.4161 4.88193 17.8107C4.45393 18.0814 4.1766 18.2961 3.9806 18.5521C3.76739 18.83 3.61102 19.1472 3.52042 19.4855C3.42983 19.8239 3.40678 20.1768 3.4526 20.5241C3.52193 21.0494 3.8326 21.5881 4.4526 22.6641C5.07527 23.7401 5.38593 24.2774 5.80593 24.6014C6.08385 24.8146 6.40105 24.971 6.73941 25.0616C7.07777 25.1522 7.43066 25.1752 7.77793 25.1294C8.09793 25.0867 8.42193 24.9561 8.86993 24.7187C9.19055 24.5433 9.5505 24.4522 9.91598 24.4541C10.2815 24.4559 10.6405 24.5507 10.9593 24.7294C11.6033 25.1027 11.9859 25.7894 12.0126 26.5334C12.0313 27.0401 12.0793 27.3867 12.2033 27.6841C12.3373 28.0078 12.5338 28.302 12.7816 28.5498C13.0293 28.7975 13.3235 28.994 13.6473 29.1281C14.1366 29.3307 14.7579 29.3307 16.0006 29.3307C17.2433 29.3307 17.8646 29.3307 18.3539 29.1281C18.6777 28.994 18.9719 28.7975 19.2196 28.5498C19.4674 28.302 19.6639 28.0078 19.7979 27.6841C19.9206 27.3867 19.9699 27.0401 19.9886 26.5334C20.0153 25.7894 20.3979 25.1014 21.0419 24.7294C21.3607 24.5507 21.7197 24.4559 22.0852 24.4541C22.4507 24.4522 22.8107 24.5433 23.1313 24.7187C23.5793 24.9561 23.9033 25.0867 24.2233 25.1294C24.5705 25.1752 24.9234 25.1522 25.2618 25.0616C25.6002 24.971 25.9174 24.8146 26.1953 24.6014C26.6153 24.2787 26.9259 23.7401 27.5473 22.6641C28.1686 21.5881 28.4806 21.0507 28.5486 20.5241C28.5944 20.1768 28.5714 19.8239 28.4808 19.4855C28.3902 19.1472 28.2338 18.83 28.0206 18.5521C27.8233 18.2961 27.5473 18.0814 27.1193 17.8121C26.8069 17.6222 26.548 17.3561 26.3667 17.0386C26.1855 16.7212 26.088 16.3629 26.0833 15.9974C26.0833 15.2534 26.4886 14.5787 27.1193 14.1841C27.5473 13.9134 27.8246 13.6987 28.0206 13.4427C28.2338 13.1648 28.3902 12.8476 28.4808 12.5093C28.5714 12.1709 28.5944 11.818 28.5486 11.4707C28.4793 10.9454 28.1686 10.4067 27.5486 9.33073C26.9259 8.25473 26.6153 7.7174 26.1953 7.3934C25.9174 7.18018 25.6002 7.02381 25.2618 6.93322C24.9234 6.84262 24.5705 6.81958 24.2233 6.8654C23.9033 6.90806 23.5793 7.03873 23.1299 7.27606C22.8095 7.45128 22.4498 7.54223 22.0846 7.54036C21.7193 7.53849 21.3606 7.44388 21.0419 7.2654C20.7279 7.0786 20.4664 6.81505 20.2822 6.49949C20.0979 6.18393 19.9969 5.82672 19.9886 5.4614C19.9699 4.95473 19.9219 4.60806 19.7979 4.31073C19.6639 3.98697 19.4674 3.6928 19.2196 3.44503C18.9719 3.19726 18.6777 3.00075 18.3539 2.86673Z" stroke="#F8F8F8" stroke-width="3"/>
</svg>
