<svg width="32" height="32" viewBox="0 0 32 32" fill="none" xmlns="http://www.w3.org/2000/svg">
<path d="M20.8811 3.67026L29.4525 11.956C29.5354 12.036 29.6012 12.1319 29.6462 12.2379C29.6912 12.344 29.7144 12.4579 29.7144 12.5731C29.7144 12.6883 29.6912 12.8023 29.6462 12.9083C29.6012 13.0143 29.5354 13.1102 29.4525 13.1903L20.8811 21.476C20.8028 21.5532 20.7099 21.6141 20.6079 21.6553C20.5059 21.6965 20.3968 21.7171 20.2868 21.716C20.0595 21.716 19.8415 21.6257 19.6807 21.4649C19.52 21.3042 19.4297 21.0862 19.4297 20.8588V16.5845C11.7725 16.8931 8.54969 21.1788 8.41255 21.3617C8.30344 21.5053 8.15283 21.6119 7.98113 21.6671C7.80942 21.7223 7.6249 21.7234 7.45255 21.6703C7.28063 21.6149 7.1306 21.5066 7.02388 21.3609C6.91715 21.2152 6.85919 21.0394 6.85826 20.8588C6.85826 11.6931 14.3897 8.88169 19.4297 8.59598V4.2874C19.4301 4.11883 19.4801 3.95411 19.5736 3.81385C19.6672 3.67359 19.7999 3.56401 19.9554 3.49883C20.1093 3.43245 20.2795 3.4133 20.4443 3.44383C20.6091 3.47435 20.7612 3.55316 20.8811 3.67026ZM8.85826 4.57312C7.41851 4.57312 6.03773 5.14506 5.01968 6.16311C4.00162 7.18116 3.42969 8.56194 3.42969 10.0017V23.1445C3.42969 24.5843 4.00162 25.9651 5.01968 26.9831C6.03773 28.0012 7.41851 28.5731 8.85826 28.5731H22.0011C23.4409 28.5731 24.8216 28.0012 25.8397 26.9831C26.8578 25.9651 27.4297 24.5843 27.4297 23.1445V22.5731C27.4297 22.3458 27.3394 22.1278 27.1786 21.967C27.0179 21.8063 26.7999 21.716 26.5725 21.716C26.3452 21.716 26.1272 21.8063 25.9665 21.967C25.8057 22.1278 25.7154 22.3458 25.7154 22.5731V23.1445C25.7154 24.1296 25.3241 25.0744 24.6275 25.7709C23.931 26.4675 22.9862 26.8588 22.0011 26.8588H8.85826C7.87317 26.8588 6.92843 26.4675 6.23186 25.7709C5.5353 25.0744 5.14397 24.1296 5.14397 23.1445V10.0017C5.14397 9.0166 5.5353 8.07186 6.23186 7.37529C6.92843 6.67873 7.87317 6.2874 8.85826 6.2874H14.0011C14.2284 6.2874 14.4465 6.1971 14.6072 6.03635C14.768 5.87561 14.8583 5.65759 14.8583 5.43026C14.8583 5.20293 14.768 4.98492 14.6072 4.82417C14.4465 4.66342 14.2284 4.57312 14.0011 4.57312H8.85826Z" fill="#0071BD"/>
</svg>
