<svg width="49" height="48" viewBox="0 0 49 48" fill="none" xmlns="http://www.w3.org/2000/svg">
<g clip-path="url(#clip0_623_21013)">
<path d="M24.5016 0.75C11.247 0.75 0.507812 11.1562 0.507812 24C0.507812 36.8438 11.247 47.25 24.5016 47.25C37.7563 47.25 48.4954 36.8438 48.4954 24C48.4954 11.1562 37.7563 0.75 24.5016 0.75ZM24.5016 42.75C13.8302 42.75 5.15178 34.3406 5.15178 24C5.15178 13.6594 13.8302 5.25 24.5016 5.25C35.1731 5.25 43.8515 13.6594 43.8515 24C43.8515 34.3406 35.1731 42.75 24.5016 42.75ZM32.6286 29.3063C30.6162 31.65 27.646 33 24.5016 33C21.3573 33 18.3871 31.6594 16.3747 29.3063C15.5523 28.35 14.0914 28.2281 13.1046 29.0156C12.1177 29.8125 11.9919 31.2281 12.8046 32.1844C15.7071 35.5594 19.9738 37.4906 24.5016 37.4906C29.0295 37.4906 33.2961 35.5594 36.1986 32.1844C37.021 31.2281 36.8855 29.8125 35.8987 29.0156C34.9118 28.2281 33.4509 28.35 32.6286 29.3063ZM13.7141 19.7812C14.4591 18.4969 15.5717 17.7562 16.7617 17.7562C17.9517 17.7562 19.0643 18.4969 19.8093 19.7812L20.7284 21.375C20.9316 21.7219 21.3282 21.8156 21.6282 21.7219C21.9765 21.6187 22.2087 21.3 22.1796 20.9437C21.8604 16.9969 19.0643 14.25 16.7617 14.25C14.4591 14.25 11.663 16.9969 11.3437 20.9437C11.3147 21.2906 11.5469 21.6187 11.8952 21.7219C12.2241 21.825 12.6111 21.675 12.795 21.375L13.7141 19.7812ZM32.2416 14.25C29.9389 14.25 27.1429 16.9969 26.8236 20.9437C26.7946 21.2906 27.0268 21.6187 27.3751 21.7219C27.7137 21.825 28.091 21.675 28.2748 21.375L29.194 19.7812C29.9389 18.4969 31.0515 17.7562 32.2416 17.7562C33.4316 17.7562 34.5442 18.4969 35.2892 19.7812L36.2083 21.375C36.4115 21.7219 36.8081 21.8156 37.108 21.7219C37.4563 21.6187 37.6885 21.3 37.6595 20.9437C37.3402 16.9969 34.5442 14.25 32.2416 14.25Z" fill="#F7931E"/>
</g>
<defs>
<clipPath id="clip0_623_21013">
<rect width="48" height="48" fill="white" transform="translate(0.5)"/>
</clipPath>
</defs>
</svg>
