<svg width="24" height="24" viewBox="0 0 24 24" fill="none" xmlns="http://www.w3.org/2000/svg">
<path d="M3.75 12.0006C3.75 11.8017 3.82902 11.6109 3.96967 11.4703C4.11032 11.3296 4.30109 11.2506 4.5 11.2506H11.25C11.4489 11.2506 11.6397 11.3296 11.7803 11.4703C11.921 11.6109 12 11.8017 12 12.0006C12 12.1995 11.921 12.3903 11.7803 12.5309C11.6397 12.6716 11.4489 12.7506 11.25 12.7506H4.5C4.30109 12.7506 4.11032 12.6716 3.96967 12.5309C3.82902 12.3903 3.75 12.1995 3.75 12.0006ZM4.5 6.75059H9.75C9.94891 6.75059 10.1397 6.67157 10.2803 6.53092C10.421 6.39027 10.5 6.1995 10.5 6.00059C10.5 5.80168 10.421 5.61091 10.2803 5.47026C10.1397 5.32961 9.94891 5.25059 9.75 5.25059H4.5C4.30109 5.25059 4.11032 5.32961 3.96967 5.47026C3.82902 5.61091 3.75 5.80168 3.75 6.00059C3.75 6.1995 3.82902 6.39027 3.96967 6.53092C4.11032 6.67157 4.30109 6.75059 4.5 6.75059ZM17.25 17.2506H4.5C4.30109 17.2506 4.11032 17.3296 3.96967 17.4703C3.82902 17.6109 3.75 17.8017 3.75 18.0006C3.75 18.1995 3.82902 18.3903 3.96967 18.5309C4.11032 18.6716 4.30109 18.7506 4.5 18.7506H17.25C17.4489 18.7506 17.6397 18.6716 17.7803 18.5309C17.921 18.3903 18 18.1995 18 18.0006C18 17.8017 17.921 17.6109 17.7803 17.4703C17.6397 17.3296 17.4489 17.2506 17.25 17.2506ZM21.5306 7.71996L17.7806 3.96997C17.711 3.90023 17.6283 3.84491 17.5372 3.80717C17.4462 3.76943 17.3486 3.75 17.25 3.75C17.1514 3.75 17.0538 3.76943 16.9628 3.80717C16.8717 3.84491 16.789 3.90023 16.7194 3.96997L12.9694 7.71996C12.8286 7.8607 12.7496 8.05157 12.7496 8.25059C12.7496 8.44961 12.8286 8.64048 12.9694 8.78122C13.1101 8.92195 13.301 9.00101 13.5 9.00101C13.699 9.00101 13.8899 8.92195 14.0306 8.78122L16.5 6.3109V13.5006C16.5 13.6995 16.579 13.8903 16.7197 14.0309C16.8603 14.1716 17.0511 14.2506 17.25 14.2506C17.4489 14.2506 17.6397 14.1716 17.7803 14.0309C17.921 13.8903 18 13.6995 18 13.5006V6.3109L20.4694 8.78122C20.5391 8.8509 20.6218 8.90617 20.7128 8.94389C20.8039 8.9816 20.9015 9.00101 21 9.00101C21.0985 9.00101 21.1961 8.9816 21.2872 8.94389C21.3782 8.90617 21.4609 8.8509 21.5306 8.78122C21.6003 8.71153 21.6556 8.62881 21.6933 8.53776C21.731 8.44672 21.7504 8.34914 21.7504 8.25059C21.7504 8.15204 21.731 8.05446 21.6933 7.96342C21.6556 7.87237 21.6003 7.78965 21.5306 7.71996Z" fill="#0071BD"/>
</svg>
