<svg width="0" height="0" class="hidden">
  <symbol xmlns="http://www.w3.org/2000/svg" fill="none" stroke-width="3" stroke="currentColor" viewBox="0 0 24 24" id="arrow-left">
    <path stroke-linecap="round" stroke-linejoin="round" d="M15.75 19.5 8.25 12l7.5-7.5"></path>
  </symbol>
  <symbol xmlns="http://www.w3.org/2000/svg" fill="none" stroke-width="3" stroke="currentColor" viewBox="0 0 24 24" id="arrow-right">
    <path stroke-linecap="round" stroke-linejoin="round" d="m8.25 4.5 7.5 7.5-7.5 7.5"></path>
  </symbol>
  <symbol fill="none" xmlns="http://www.w3.org/2000/svg" viewBox="0 0 12 12" id="star">
    <path d="M6 0.5L7.34708 4.6459H11.7063L8.17963 7.2082L9.52671 11.3541L6 8.7918L2.47329 11.3541L3.82037 7.2082L0.293661 4.6459H4.65292L6 0.5Z" fill="currentColor"></path>
  </symbol>
  <symbol fill="none" xmlns="http://www.w3.org/2000/svg" viewBox="0 0 20 20" id="event-available">
    <path d="M13.775 9.21927L12.8917 8.33594L8.825 12.4026L7.05833 10.6359L6.175 11.5193L8.825 14.1693L13.775 9.21927ZM15.8333 2.5026H15V0.835938H13.3333V2.5026H6.66667V0.835938H5V2.5026H4.16667C3.24167 2.5026 2.50833 3.2526 2.50833 4.16927L2.5 15.8359C2.5 16.278 2.67559 16.7019 2.98816 17.0144C3.30072 17.327 3.72464 17.5026 4.16667 17.5026H15.8333C16.75 17.5026 17.5 16.7526 17.5 15.8359V4.16927C17.5 3.2526 16.75 2.5026 15.8333 2.5026ZM15.8333 15.8359H4.16667V6.66927H15.8333V15.8359Z" fill="currentColor"></path>
  </symbol>
  <symbol fill="none" xmlns="http://www.w3.org/2000/svg" viewBox="0 0 20 20" id="clipboard-text-time">
    <path d="M17.5 9.26094V4.16927C17.5 3.72724 17.3244 3.30332 17.0118 2.99076C16.6993 2.6782 16.2754 2.5026 15.8333 2.5026H12.35C12 1.53594 11.0833 0.835938 10 0.835938C8.91667 0.835938 8 1.53594 7.65 2.5026H4.16667C3.25 2.5026 2.5 3.2526 2.5 4.16927V15.8359C2.5 16.278 2.67559 16.7019 2.98816 17.0144C3.30072 17.327 3.72464 17.5026 4.16667 17.5026H9.25833C10.3083 18.5359 11.7417 19.1693 13.3333 19.1693C16.5583 19.1693 19.1667 16.5609 19.1667 13.3359C19.1667 11.7443 18.5333 10.3109 17.5 9.26094ZM10 2.5026C10.4583 2.5026 10.8333 2.8776 10.8333 3.33594C10.8333 3.79427 10.4583 4.16927 10 4.16927C9.54167 4.16927 9.16667 3.79427 9.16667 3.33594C9.16667 2.8776 9.54167 2.5026 10 2.5026ZM4.16667 15.8359V4.16927H5.83333V5.83594H14.1667V4.16927H15.8333V8.06927C15.075 7.71094 14.2333 7.5026 13.3333 7.5026H5.83333V9.16927H9.25C8.75 9.64427 8.36667 10.2109 8.06667 10.8359H5.83333V12.5026H7.56667C7.525 12.7776 7.5 13.0526 7.5 13.3359C7.5 14.2359 7.70833 15.0776 8.06667 15.8359H4.16667ZM13.3333 17.5026C11.0333 17.5026 9.16667 15.6359 9.16667 13.3359C9.16667 11.0359 11.0333 9.16927 13.3333 9.16927C15.6333 9.16927 17.5 11.0359 17.5 13.3359C17.5 15.6359 15.6333 17.5026 13.3333 17.5026ZM13.75 13.5443L16.1333 14.9526L15.5083 15.9693L12.5 14.1693V10.0026H13.75V13.5443Z" fill="currentColor"></path>
  </symbol>
  <symbol fill="none" xmlns="http://www.w3.org/2000/svg" viewBox="0 0 20 20" id="travel-card">
    <path d="M5.70833 14.2917L3.04167 12.8333L3.91667 11.9583L6 12.25L9.25 9L2.75 5.45833L3.91667 4.29167L11.875 6.33333L15.1458 3.10417C15.3819 2.86806 15.6772 2.75 16.0317 2.75C16.3861 2.75 16.6811 2.86806 16.9167 3.10417C17.1528 3.34028 17.2708 3.63556 17.2708 3.99C17.2708 4.34444 17.1528 4.63944 16.9167 4.875L13.6667 8.125L15.7083 16.0833L14.5417 17.25L11 10.75L7.75 14L8.04167 16.0833L7.16667 16.9583L5.70833 14.2917Z" fill="currentColor"></path>
  </symbol>
  <symbol xmlns="http://www.w3.org/2000/svg" fill="none" stroke="currentColor" stroke-width="2" stroke-linecap="round" stroke-linejoin="round" viewBox="0 0 24 24" id="map-pin">
    <path d="M20 10c0 6-8 12-8 12s-8-6-8-12a8 8 0 0 1 16 0Z"></path>
    <circle cx="12" cy="10" r="3"></circle>
  </symbol>
  <symbol xmlns="http://www.w3.org/2000/svg" fill="none" stroke="currentColor" stroke-width="2" stroke-linecap="round" stroke-linejoin="round" viewBox="0 0 24 24" id="phone">
    <path d="M22 16.92v3a2 2 0 0 1-2.18 2 19.79 19.79 0 0 1-8.63-3.07 19.5 19.5 0 0 1-6-6 19.79 19.79 0 0 1-3.07-8.67A2 2 0 0 1 4.11 2h3a2 2 0 0 1 2 1.72 12.84 12.84 0 0 0 .7 2.81 2 2 0 0 1-.45 2.11L8.09 9.91a16 16 0 0 0 6 6l1.27-1.27a2 2 0 0 1 2.11-.45 12.84 12.84 0 0 0 2.81.7A2 2 0 0 1 22 16.92z"></path>
  </symbol>
  <symbol xmlns="http://www.w3.org/2000/svg" fill="none" stroke="currentColor" stroke-width="2" stroke-linecap="round" stroke-linejoin="round" viewBox="0 0 24 24" id="mail">
    <rect width="20" height="16" x="2" y="4" rx="2"></rect>
    <path d="m22 7-8.97 5.7a1.94 1.94 0 0 1-2.06 0L2 7"></path>
  </symbol>
  <symbol fill="none" xmlns="http://www.w3.org/2000/svg" viewBox="0 0 20 20" id="location">
    <g clip-path="url(#clip0_448_7407)">
      <path fill-rule="evenodd" clip-rule="evenodd" d="M10 1.66406C11.9891 1.66406 13.8968 2.45424 15.3033 3.86076C16.7098 5.26728 17.5 7.17494 17.5 9.16406C17.5 11.7257 16.1033 13.8224 14.6317 15.3266C13.8963 16.0698 13.094 16.7438 12.235 17.3399L11.88 17.5816L11.7133 17.6924L11.3992 17.8924L11.1192 18.0632L10.7725 18.2649C10.5371 18.3989 10.2709 18.4693 10 18.4693C9.72913 18.4693 9.46291 18.3989 9.2275 18.2649L8.88083 18.0632L8.4475 17.7966L8.2875 17.6924L7.94583 17.4649C7.01915 16.8377 6.15589 16.1215 5.36833 15.3266C3.89667 13.8216 2.5 11.7257 2.5 9.16406C2.5 7.17494 3.29018 5.26728 4.6967 3.86076C6.10322 2.45424 8.01088 1.66406 10 1.66406ZM10 3.33073C8.4529 3.33073 6.96917 3.94531 5.87521 5.03927C4.78125 6.13323 4.16667 7.61697 4.16667 9.16406C4.16667 11.0991 5.22667 12.7974 6.55917 14.1607C7.13218 14.7406 7.75145 15.273 8.41083 15.7524L8.7925 16.0241C8.91583 16.1099 9.03417 16.1899 9.14833 16.2641L9.47333 16.4724L9.75917 16.6466L10 16.7874L10.3792 16.5632L10.685 16.3716C10.8475 16.2682 11.0225 16.1524 11.2075 16.0241L11.5892 15.7524C12.2485 15.273 12.8678 14.7406 13.4408 14.1607C14.7733 12.7982 15.8333 11.0991 15.8333 9.16406C15.8333 7.61697 15.2188 6.13323 14.1248 5.03927C13.0308 3.94531 11.5471 3.33073 10 3.33073ZM10 5.83073C10.8841 5.83073 11.7319 6.18192 12.357 6.80704C12.9821 7.43216 13.3333 8.28001 13.3333 9.16406C13.3333 10.0481 12.9821 10.896 12.357 11.5211C11.7319 12.1462 10.8841 12.4974 10 12.4974C9.11594 12.4974 8.2681 12.1462 7.64298 11.5211C7.01786 10.896 6.66667 10.0481 6.66667 9.16406C6.66667 8.28001 7.01786 7.43216 7.64298 6.80704C8.2681 6.18192 9.11594 5.83073 10 5.83073ZM10 7.4974C9.55797 7.4974 9.13405 7.67299 8.82149 7.98555C8.50893 8.29811 8.33333 8.72203 8.33333 9.16406C8.33333 9.60609 8.50893 10.03 8.82149 10.3426C9.13405 10.6551 9.55797 10.8307 10 10.8307C10.442 10.8307 10.866 10.6551 11.1785 10.3426C11.4911 10.03 11.6667 9.60609 11.6667 9.16406C11.6667 8.72203 11.4911 8.29811 11.1785 7.98555C10.866 7.67299 10.442 7.4974 10 7.4974Z" fill="currentColor"></path>
    </g>
    <defs>
      <clipPath id="clip0_448_7407">
        <rect width="20" height="20" fill="white"></rect>
      </clipPath>
    </defs>
  </symbol>
  <symbol fill="none" xmlns="http://www.w3.org/2000/svg" viewBox="0 0 20 20" id="calendar-date">
    <path d="M1.66406 10.0026C1.66406 6.8601 1.66406 5.28844 2.64073 4.3126C3.61656 3.33594 5.18823 3.33594 8.33073 3.33594H11.6641C14.8066 3.33594 16.3782 3.33594 17.3541 4.3126C18.3307 5.28844 18.3307 6.8601 18.3307 10.0026V11.6693C18.3307 14.8118 18.3307 16.3834 17.3541 17.3593C16.3782 18.3359 14.8066 18.3359 11.6641 18.3359H8.33073C5.18823 18.3359 3.61656 18.3359 2.64073 17.3593C1.66406 16.3834 1.66406 14.8118 1.66406 11.6693V10.0026Z" stroke="currentColor" stroke-width="1.25"></path>
    <path d="M5.82812 3.33594V2.08594M14.1615 3.33594V2.08594" stroke="currentColor" stroke-width="1.25" stroke-linecap="round"></path>
    <path d="M7.5 12.0859L8.75 10.8359V14.1693" stroke="currentColor" stroke-width="1.25" stroke-linecap="round" stroke-linejoin="round"></path>
    <path d="M2.07812 7.5H17.9115M10.8281 13.3333V11.6667C10.8281 11.4457 10.9159 11.2337 11.0722 11.0774C11.2285 10.9211 11.4404 10.8333 11.6615 10.8333C11.8825 10.8333 12.0944 10.9211 12.2507 11.0774C12.407 11.2337 12.4948 11.4457 12.4948 11.6667V13.3333C12.4948 13.5543 12.407 13.7663 12.2507 13.9226C12.0944 14.0789 11.8825 14.1667 11.6615 14.1667C11.4404 14.1667 11.2285 14.0789 11.0722 13.9226C10.9159 13.7663 10.8281 13.5543 10.8281 13.3333Z" stroke="currentColor" stroke-width="1.25" stroke-linecap="round"></path>
  </symbol>
  <symbol fill="none" xmlns="http://www.w3.org/2000/svg" viewBox="0 0 24 25" id="question">
    <g clip-path="url(#clip0_549_8682)">
      <path d="M12 24.5C8.8174 24.5 5.76516 23.2357 3.51472 20.9853C1.26428 18.7348 0 15.6826 0 12.5C0 9.3174 1.26428 6.26516 3.51472 4.01472C5.76516 1.76428 8.8174 0.5 12 0.5C15.1826 0.5 18.2348 1.76428 20.4853 4.01472C22.7357 6.26516 24 9.3174 24 12.5C24 15.6826 22.7357 18.7348 20.4853 20.9853C18.2348 23.2357 15.1826 24.5 12 24.5ZM14.4 8.9C14.4 9.236 14.148 9.86 13.896 10.1L12 11.996C11.316 12.692 10.8 13.916 10.8 14.9V16.1H13.2V14.9C13.2 14.552 13.452 13.94 13.704 13.7L15.6 11.804C16.284 11.108 16.8 9.884 16.8 8.9C16.8 7.62696 16.2943 6.40606 15.3941 5.50589C14.4939 4.60571 13.273 4.1 12 4.1C10.727 4.1 9.50606 4.60571 8.60589 5.50589C7.70571 6.40606 7.2 7.62696 7.2 8.9H9.6C9.6 8.26348 9.85286 7.65303 10.3029 7.20294C10.753 6.75286 11.3635 6.5 12 6.5C12.6365 6.5 13.247 6.75286 13.6971 7.20294C14.1471 7.65303 14.4 8.26348 14.4 8.9ZM10.8 18.5V20.9H13.2V18.5H10.8Z" fill="currentColor"></path>
    </g>
    <defs>
      <clipPath id="clip0_549_8682">
        <rect width="24" height="24" fill="white" transform="translate(0 0.5)"></rect>
      </clipPath>
    </defs>
  </symbol>
  <symbol fill="none" xmlns="http://www.w3.org/2000/svg" viewBox="0 0 20 20" id="cancel">
    <path d="M10.0013 1.66406C5.39297 1.66406 1.66797 5.38906 1.66797 9.9974C1.66797 14.6057 5.39297 18.3307 10.0013 18.3307C14.6096 18.3307 18.3346 14.6057 18.3346 9.9974C18.3346 5.38906 14.6096 1.66406 10.0013 1.66406ZM10.0013 16.6641C6.3263 16.6641 3.33464 13.6724 3.33464 9.9974C3.33464 6.3224 6.3263 3.33073 10.0013 3.33073C13.6763 3.33073 16.668 6.3224 16.668 9.9974C16.668 13.6724 13.6763 16.6641 10.0013 16.6641ZM12.993 5.83073L10.0013 8.8224L7.00963 5.83073L5.83464 7.00573L8.8263 9.9974L5.83464 12.9891L7.00963 14.1641L10.0013 11.1724L12.993 14.1641L14.168 12.9891L11.1763 9.9974L14.168 7.00573L12.993 5.83073Z" fill="currentColor"></path>
  </symbol>
  <symbol fill="none" xmlns="http://www.w3.org/2000/svg" viewBox="0 0 20 20" id="group-3">
    <g clip-path="url(#clip0_597_9261)">
      <path d="M9.9987 10C11.5595 10 12.9737 10.5167 14.0112 11.2392C14.997 11.9267 15.832 12.9483 15.832 14.0475C15.832 14.6508 15.5745 15.1508 15.1687 15.5225C14.787 15.8733 14.2887 16.1008 13.7754 16.2558C12.7495 16.5667 11.3987 16.6667 9.9987 16.6667C8.5987 16.6667 7.24787 16.5667 6.22203 16.2558C5.7087 16.1008 5.21037 15.8733 4.82787 15.5225C4.4237 15.1517 4.16537 14.6517 4.16537 14.0483C4.16537 12.9492 5.00037 11.9275 5.9862 11.24C7.0237 10.5167 8.43787 10 9.9987 10ZM15.832 10.8333C16.702 10.8333 17.492 11.1208 18.0762 11.5275C18.6095 11.9 19.1654 12.5192 19.1654 13.2742C19.1654 13.705 18.9779 14.0625 18.6987 14.3183C18.4437 14.5525 18.1287 14.69 17.8412 14.7767C17.4495 14.895 16.987 14.9558 16.507 14.9825C16.6087 14.695 16.6654 14.3825 16.6654 14.0475C16.6654 12.7683 15.8662 11.6817 14.972 10.9275C15.2544 10.865 15.5428 10.8334 15.832 10.8333ZM4.16537 10.8333C4.46287 10.8333 4.7512 10.8667 5.02537 10.9275C4.13203 11.6817 3.33203 12.7683 3.33203 14.0475C3.33203 14.3825 3.3887 14.695 3.49037 14.9825C3.01037 14.9558 2.5487 14.895 2.1562 14.7767C1.8687 14.69 1.5537 14.5525 1.29787 14.3183C1.1511 14.1871 1.03373 14.0263 0.953448 13.8465C0.873169 13.6666 0.831793 13.4719 0.832032 13.275C0.832032 12.5208 1.38703 11.9008 1.9212 11.5283C2.58182 11.0752 3.36426 10.8329 4.16537 10.8333ZM15.4154 5.83333C15.9679 5.83333 16.4978 6.05283 16.8885 6.44353C17.2792 6.83423 17.4987 7.36413 17.4987 7.91667C17.4987 8.4692 17.2792 8.99911 16.8885 9.38981C16.4978 9.78051 15.9679 10 15.4154 10C14.8628 10 14.3329 9.78051 13.9422 9.38981C13.5515 8.99911 13.332 8.4692 13.332 7.91667C13.332 7.36413 13.5515 6.83423 13.9422 6.44353C14.3329 6.05283 14.8628 5.83333 15.4154 5.83333ZM4.58203 5.83333C5.13457 5.83333 5.66447 6.05283 6.05517 6.44353C6.44587 6.83423 6.66537 7.36413 6.66537 7.91667C6.66537 8.4692 6.44587 8.99911 6.05517 9.38981C5.66447 9.78051 5.13457 10 4.58203 10C4.0295 10 3.49959 9.78051 3.10889 9.38981C2.71819 8.99911 2.4987 8.4692 2.4987 7.91667C2.4987 7.36413 2.71819 6.83423 3.10889 6.44353C3.49959 6.05283 4.0295 5.83333 4.58203 5.83333ZM9.9987 2.5C10.8828 2.5 11.7306 2.85119 12.3557 3.47631C12.9808 4.10143 13.332 4.94928 13.332 5.83333C13.332 6.71739 12.9808 7.56524 12.3557 8.19036C11.7306 8.81548 10.8828 9.16667 9.9987 9.16667C9.11464 9.16667 8.2668 8.81548 7.64168 8.19036C7.01655 7.56524 6.66537 6.71739 6.66537 5.83333C6.66537 4.94928 7.01655 4.10143 7.64168 3.47631C8.2668 2.85119 9.11464 2.5 9.9987 2.5Z" fill="currentColor"></path>
    </g>
    <defs>
      <clipPath id="clip0_597_9261">
        <rect width="20" height="20" fill="white"></rect>
      </clipPath>
    </defs>
  </symbol>
  <symbol fill="none" xmlns="http://www.w3.org/2000/svg" viewBox="0 0 44 44" id="back-to-top">
    <path d="M44 22C44 34.15 34.15 44 22 44C9.84998 44 0 34.15 0 22C0 9.84998 9.84998 0 22 0C34.15 0 44 9.84998 44 22ZM3.66669 22C3.66669 32.125 11.875 40.3333 22 40.3333C32.125 40.3333 40.3333 32.125 40.3333 22C40.3333 11.875 32.125 3.66669 22 3.66669C11.875 3.66669 3.66669 11.875 3.66669 22Z" fill="currentColor" fill-opacity="0.8"></path>
    <path d="M32.4752 30.9414C33.1749 31.6411 33.1749 32.7756 32.4752 33.4752C31.7756 34.1749 30.6411 34.1749 29.9414 33.4752L22.25 25.7838L14.5585 33.4752C13.8588 34.1749 12.7244 34.1749 12.0247 33.4752C11.325 32.7756 11.325 31.6411 12.0247 30.9414L20.9831 21.9831C21.6827 21.2834 22.8172 21.2834 23.5169 21.9831L32.4752 30.9414Z" fill="currentColor" fill-opacity="0.8"></path>
    <path d="M32.4752 18.4024C33.1749 19.102 33.1749 20.2365 32.4752 20.9362C31.7756 21.6359 30.6411 21.6359 29.9414 20.9362L22.25 13.2447L14.5585 20.9362C13.8588 21.6359 12.7244 21.6359 12.0247 20.9362C11.325 20.2365 11.325 19.102 12.0247 18.4024L20.9831 9.44401C21.6827 8.74434 22.8172 8.74434 23.5169 9.44401L32.4752 18.4024Z" fill="currentColor" fill-opacity="0.8"></path>
    <circle cx="22" cy="22" r="22" transform="rotate(-180 22 22)" fill="white" fill-opacity="0"></circle>
  </symbol>
  <symbol fill="none" xmlns="http://www.w3.org/2000/svg" viewBox="0 0 20 21" id="whatsapp">
    <path d="M15.8776 4.58911C15.1136 3.81738 14.2036 3.2055 13.2006 2.78915C12.1977 2.37281 11.1219 2.16033 10.0359 2.16411C5.48594 2.16411 1.7776 5.87244 1.7776 10.4224C1.7776 11.8808 2.16094 13.2974 2.8776 14.5474L1.71094 18.8308L6.08594 17.6808C7.29427 18.3391 8.6526 18.6891 10.0359 18.6891C14.5859 18.6891 18.2943 14.9808 18.2943 10.4308C18.2943 8.22245 17.4359 6.14745 15.8776 4.58911ZM10.0359 17.2891C8.8026 17.2891 7.59427 16.9558 6.53594 16.3308L6.28594 16.1808L3.68594 16.8641L4.3776 14.3308L4.21094 14.0724C3.52573 12.9783 3.16189 11.7135 3.16094 10.4224C3.16094 6.63911 6.24427 3.55578 10.0276 3.55578C11.8609 3.55578 13.5859 4.27245 14.8776 5.57245C15.5172 6.20908 16.024 6.96633 16.3688 7.8003C16.7135 8.63427 16.8893 9.52837 16.8859 10.4308C16.9026 14.2141 13.8193 17.2891 10.0359 17.2891ZM13.8026 12.1558C13.5943 12.0558 12.5776 11.5558 12.3943 11.4808C12.2026 11.4141 12.0693 11.3808 11.9276 11.5808C11.7859 11.7891 11.3943 12.2558 11.2776 12.3891C11.1609 12.5308 11.0359 12.5474 10.8276 12.4391C10.6193 12.3391 9.9526 12.1141 9.16927 11.4141C8.5526 10.8641 8.14427 10.1891 8.01927 9.98078C7.9026 9.77245 8.0026 9.66411 8.11094 9.55578C8.2026 9.46411 8.31927 9.31411 8.41927 9.19744C8.51927 9.08078 8.56094 8.98911 8.6276 8.85578C8.69427 8.71411 8.66094 8.59745 8.61094 8.49745C8.56094 8.39745 8.14427 7.38078 7.9776 6.96411C7.81094 6.56411 7.63594 6.61411 7.51094 6.60578H7.11094C6.96927 6.60578 6.7526 6.65578 6.56094 6.86411C6.3776 7.07245 5.84427 7.57245 5.84427 8.58911C5.84427 9.60578 6.58594 10.5891 6.68594 10.7224C6.78594 10.8641 8.14427 12.9474 10.2109 13.8391C10.7026 14.0558 11.0859 14.1808 11.3859 14.2724C11.8776 14.4308 12.3276 14.4058 12.6859 14.3558C13.0859 14.2974 13.9109 13.8558 14.0776 13.3724C14.2526 12.8891 14.2526 12.4808 14.1943 12.3891C14.1359 12.2974 14.0109 12.2558 13.8026 12.1558Z" fill="currentColor"></path>
  </symbol>
  <symbol xmlns="http://www.w3.org/2000/svg" fill="none" stroke="currentColor" stroke-width="2" stroke-linecap="round" stroke-linejoin="round" viewBox="0 0 24 24" id="cloud-sun">
    <path d="M12 2v2"></path>
    <path d="m4.93 4.93 1.41 1.41"></path>
    <path d="M20 12h2"></path>
    <path d="m19.07 4.93-1.41 1.41"></path>
    <path d="M15.947 12.65a4 4 0 0 0-5.925-4.128"></path>
    <path d="M13 22H7a5 5 0 1 1 4.9-6H13a3 3 0 0 1 0 6Z"></path>
  </symbol>
  <symbol xmlns="http://www.w3.org/2000/svg" fill="none" stroke="currentColor" stroke-width="2" stroke-linecap="round" stroke-linejoin="round" viewBox="0 0 24 24" id="clock">
    <circle cx="12" cy="12" r="10"></circle>
    <polyline points="12 6 12 12 16 14"></polyline>
  </symbol>
  <symbol fill="none" xmlns="http://www.w3.org/2000/svg" viewBox="0 0 32 32" id="settings">
    <path d="M16 20C18.2091 20 20 18.2091 20 16C20 13.7909 18.2091 12 16 12C13.7909 12 12 13.7909 12 16C12 18.2091 13.7909 20 16 20Z" stroke="#F8F8F8" stroke-width="3"></path>
    <path d="M18.3539 2.86673C17.8646 2.66406 17.2433 2.66406 16.0006 2.66406C14.7579 2.66406 14.1366 2.66406 13.6473 2.86673C13.3235 3.00075 13.0293 3.19726 12.7816 3.44503C12.5338 3.6928 12.3373 3.98697 12.2033 4.31073C12.0806 4.60806 12.0313 4.95606 12.0126 5.4614C12.0043 5.82672 11.9033 6.18393 11.719 6.49949C11.5348 6.81505 11.2733 7.0786 10.9593 7.2654C10.6405 7.44412 10.2815 7.53886 9.91598 7.54073C9.5505 7.5426 9.19055 7.45152 8.86993 7.27606C8.42193 7.03873 8.09793 6.90806 7.7766 6.8654C7.07569 6.77322 6.36687 6.96314 5.80593 7.3934C5.38727 7.7174 5.07527 8.25473 4.45393 9.33073C3.8326 10.4067 3.5206 10.9441 3.4526 11.4707C3.40678 11.818 3.42983 12.1709 3.52042 12.5093C3.61102 12.8476 3.76739 13.1648 3.9806 13.4427C4.17793 13.6987 4.45393 13.9134 4.88193 14.1827C5.5126 14.5787 5.91793 15.2534 5.91793 15.9974C5.91793 16.7414 5.5126 17.4161 4.88193 17.8107C4.45393 18.0814 4.1766 18.2961 3.9806 18.5521C3.76739 18.83 3.61102 19.1472 3.52042 19.4855C3.42983 19.8239 3.40678 20.1768 3.4526 20.5241C3.52193 21.0494 3.8326 21.5881 4.4526 22.6641C5.07527 23.7401 5.38593 24.2774 5.80593 24.6014C6.08385 24.8146 6.40105 24.971 6.73941 25.0616C7.07777 25.1522 7.43066 25.1752 7.77793 25.1294C8.09793 25.0867 8.42193 24.9561 8.86993 24.7187C9.19055 24.5433 9.5505 24.4522 9.91598 24.4541C10.2815 24.4559 10.6405 24.5507 10.9593 24.7294C11.6033 25.1027 11.9859 25.7894 12.0126 26.5334C12.0313 27.0401 12.0793 27.3867 12.2033 27.6841C12.3373 28.0078 12.5338 28.302 12.7816 28.5498C13.0293 28.7975 13.3235 28.994 13.6473 29.1281C14.1366 29.3307 14.7579 29.3307 16.0006 29.3307C17.2433 29.3307 17.8646 29.3307 18.3539 29.1281C18.6777 28.994 18.9719 28.7975 19.2196 28.5498C19.4674 28.302 19.6639 28.0078 19.7979 27.6841C19.9206 27.3867 19.9699 27.0401 19.9886 26.5334C20.0153 25.7894 20.3979 25.1014 21.0419 24.7294C21.3607 24.5507 21.7197 24.4559 22.0852 24.4541C22.4507 24.4522 22.8107 24.5433 23.1313 24.7187C23.5793 24.9561 23.9033 25.0867 24.2233 25.1294C24.5705 25.1752 24.9234 25.1522 25.2618 25.0616C25.6002 24.971 25.9174 24.8146 26.1953 24.6014C26.6153 24.2787 26.9259 23.7401 27.5473 22.6641C28.1686 21.5881 28.4806 21.0507 28.5486 20.5241C28.5944 20.1768 28.5714 19.8239 28.4808 19.4855C28.3902 19.1472 28.2338 18.83 28.0206 18.5521C27.8233 18.2961 27.5473 18.0814 27.1193 17.8121C26.8069 17.6222 26.548 17.3561 26.3667 17.0386C26.1855 16.7212 26.088 16.3629 26.0833 15.9974C26.0833 15.2534 26.4886 14.5787 27.1193 14.1841C27.5473 13.9134 27.8246 13.6987 28.0206 13.4427C28.2338 13.1648 28.3902 12.8476 28.4808 12.5093C28.5714 12.1709 28.5944 11.818 28.5486 11.4707C28.4793 10.9454 28.1686 10.4067 27.5486 9.33073C26.9259 8.25473 26.6153 7.7174 26.1953 7.3934C25.9174 7.18018 25.6002 7.02381 25.2618 6.93322C24.9234 6.84262 24.5705 6.81958 24.2233 6.8654C23.9033 6.90806 23.5793 7.03873 23.1299 7.27606C22.8095 7.45128 22.4498 7.54223 22.0846 7.54036C21.7193 7.53849 21.3606 7.44388 21.0419 7.2654C20.7279 7.0786 20.4664 6.81505 20.2822 6.49949C20.0979 6.18393 19.9969 5.82672 19.9886 5.4614C19.9699 4.95473 19.9219 4.60806 19.7979 4.31073C19.6639 3.98697 19.4674 3.6928 19.2196 3.44503C18.9719 3.19726 18.6777 3.00075 18.3539 2.86673Z" stroke="#F8F8F8" stroke-width="3"></path>
  </symbol>
  <symbol fill="none" xmlns="http://www.w3.org/2000/svg" viewBox="0 0 32 32" id="customer-service-2">
    <path d="M26.5866 10.6678H28.0026C28.7098 10.6678 29.3881 10.9488 29.8882 11.4489C30.3883 11.949 30.6693 12.6273 30.6693 13.3345V18.6678C30.6693 19.3751 30.3883 20.0534 29.8882 20.5535C29.3881 21.0535 28.7098 21.3345 28.0026 21.3345H26.5866C26.2615 23.9122 25.007 26.2827 23.0583 28.0012C21.1096 29.7196 18.6007 30.6678 16.0026 30.6678V28.0012C18.1243 28.0012 20.1592 27.1583 21.6595 25.658C23.1597 24.1577 24.0026 22.1229 24.0026 20.0012V12.0012C24.0026 9.87944 23.1597 7.84461 21.6595 6.34432C20.1592 4.84402 18.1243 4.00117 16.0026 4.00117C13.8809 4.00117 11.846 4.84402 10.3457 6.34432C8.84546 7.84461 8.0026 9.87944 8.0026 12.0012V21.3345H4.0026C3.29536 21.3345 2.61708 21.0535 2.11699 20.5535C1.61689 20.0534 1.33594 19.3751 1.33594 18.6678V13.3345C1.33594 12.6273 1.61689 11.949 2.11699 11.4489C2.61708 10.9488 3.29536 10.6678 4.0026 10.6678H5.4186C5.74398 8.09036 6.99871 5.7202 8.94737 4.00207C10.896 2.28394 13.4047 1.33594 16.0026 1.33594C18.6005 1.33594 21.1092 2.28394 23.0578 4.00207C25.0065 5.7202 26.2612 8.09036 26.5866 10.6678ZM4.0026 13.3345V18.6678H5.33594V13.3345H4.0026ZM26.6693 13.3345V18.6678H28.0026V13.3345H26.6693ZM10.3493 21.0478L11.7626 18.7865C13.0334 19.5825 14.5031 20.0036 16.0026 20.0012C17.5021 20.0036 18.9718 19.5825 20.2426 18.7865L21.6559 21.0478C19.9616 22.1094 18.002 22.6709 16.0026 22.6678C14.0032 22.671 12.0436 22.1094 10.3493 21.0478Z" fill="currentColor"></path>
  </symbol>
  <symbol fill="none" xmlns="http://www.w3.org/2000/svg" viewBox="0 0 24 24" id="clipboard-text">
    <g clip-path="url(#clip0_773_15088)">
      <path d="M8 4H7.2002C6.08009 4 5.51962 4 5.0918 4.21799C4.71547 4.40973 4.40973 4.71547 4.21799 5.0918C4 5.51962 4 6.08009 4 7.2002V8M8 4H16M8 4V2M16 4H16.8002C17.9203 4 18.4796 4 18.9074 4.21799C19.2837 4.40973 19.5905 4.71547 19.7822 5.0918C20 5.5192 20 6.07899 20 7.19691V8M16 4V2M4 8V16.8002C4 17.9203 4 18.4801 4.21799 18.9079C4.40973 19.2842 4.71547 19.5905 5.0918 19.7822C5.5192 20 6.07899 20 7.19691 20H16.8031C17.921 20 18.48 20 18.9074 19.7822C19.2837 19.5905 19.5905 19.2842 19.7822 18.9079C20 18.4805 20 17.9215 20 16.8036V8M4 8H20M16 16H16.002L16.002 16.002L16 16.002V16ZM12 16H12.002L12.002 16.002L12 16.002V16ZM8 16H8.002L8.00195 16.002L8 16.002V16ZM16.002 12V12.002L16 12.002V12H16.002ZM12 12H12.002L12.002 12.002L12 12.002V12ZM8 12H8.002L8.00195 12.002L8 12.002V12Z" stroke="currentColor" stroke-width="2" stroke-linecap="round" stroke-linejoin="round"></path>
    </g>
    <defs>
      <clipPath id="clip0_773_15088">
        <rect width="24" height="24" fill="white"></rect>
      </clipPath>
    </defs>
  </symbol>
  <symbol fill="none" xmlns="http://www.w3.org/2000/svg" viewBox="0 0 24 24" id="category">
    <path d="M17 10C18.6569 10 20 8.65685 20 7C20 5.34315 18.6569 4 17 4C15.3431 4 14 5.34315 14 7C14 8.65685 15.3431 10 17 10Z" stroke="currentColor" stroke-width="1.66667" stroke-linecap="round" stroke-linejoin="round"></path>
    <path d="M7 20C8.65685 20 10 18.6569 10 17C10 15.3431 8.65685 14 7 14C5.34315 14 4 15.3431 4 17C4 18.6569 5.34315 20 7 20Z" stroke="currentColor" stroke-width="1.66667" stroke-linecap="round" stroke-linejoin="round"></path>
    <path d="M14 14H20V19C20 19.2652 19.8946 19.5196 19.7071 19.7071C19.5196 19.8946 19.2652 20 19 20H15C14.7348 20 14.4804 19.8946 14.2929 19.7071C14.1054 19.5196 14 19.2652 14 19V14ZM4 4H10V9C10 9.26522 9.89464 9.51957 9.70711 9.70711C9.51957 9.89464 9.26522 10 9 10H5C4.73478 10 4.48043 9.89464 4.29289 9.70711C4.10536 9.51957 4 9.26522 4 9V4Z" stroke="currentColor" stroke-width="1.66667" stroke-linecap="round" stroke-linejoin="round"></path>
  </symbol>
  <symbol fill="none" xmlns="http://www.w3.org/2000/svg" viewBox="0 0 24 25" id="info">
    <path d="M11 17.5H13V11.5H11V17.5ZM12 9.5C12.2833 9.5 12.521 9.404 12.713 9.212C12.905 9.02 13.0007 8.78267 13 8.5C13 8.21667 12.904 7.97933 12.712 7.788C12.52 7.59667 12.2827 7.50067 12 7.5C11.7167 7.5 11.4793 7.596 11.288 7.788C11.0967 7.98 11.0007 8.21733 11 8.5C11 8.78333 11.096 9.021 11.288 9.213C11.48 9.405 11.7173 9.50067 12 9.5ZM12 22.5C10.6167 22.5 9.31667 22.2373 8.1 21.712C6.88333 21.1867 5.825 20.4743 4.925 19.575C4.025 18.675 3.31267 17.6167 2.788 16.4C2.26333 15.1833 2.00067 13.8833 2 12.5C2 11.1167 2.26267 9.81667 2.788 8.6C3.31333 7.38333 4.02567 6.325 4.925 5.425C5.825 4.525 6.88333 3.81267 8.1 3.288C9.31667 2.76333 10.6167 2.50067 12 2.5C13.3833 2.5 14.6833 2.76267 15.9 3.288C17.1167 3.81333 18.175 4.52567 19.075 5.425C19.975 6.325 20.6877 7.38333 21.213 8.6C21.7383 9.81667 22.0007 11.1167 22 12.5C22 13.8833 21.7373 15.1833 21.212 16.4C20.6867 17.6167 19.9743 18.675 19.075 19.575C18.175 20.475 17.1167 21.1877 15.9 21.713C14.6833 22.2383 13.3833 22.5007 12 22.5ZM12 20.5C14.2333 20.5 16.125 19.725 17.675 18.175C19.225 16.625 20 14.7333 20 12.5C20 10.2667 19.225 8.375 17.675 6.825C16.125 5.275 14.2333 4.5 12 4.5C9.76667 4.5 7.875 5.275 6.325 6.825C4.775 8.375 4 10.2667 4 12.5C4 14.7333 4.775 16.625 6.325 18.175C7.875 19.725 9.76667 20.5 12 20.5Z" fill="currentColor"></path>
  </symbol>
  <symbol fill="none" xmlns="http://www.w3.org/2000/svg" viewBox="0 0 24 24" id="offer">
    <path d="M20.7462 12.0036L21.8502 10.0956C21.9829 9.86604 22.019 9.59318 21.9505 9.33703C21.8821 9.08087 21.7147 8.86238 21.4852 8.7296L19.5752 7.6256V5.4256C19.5752 5.16038 19.4698 4.90603 19.2823 4.71849C19.0948 4.53095 18.8404 4.4256 18.5752 4.4256H16.3762L15.2732 2.5166C15.14 2.28751 14.9219 2.1201 14.6662 2.0506C14.5394 2.01621 14.407 2.00735 14.2767 2.02451C14.1464 2.04168 14.0208 2.08454 13.9072 2.1506L11.9972 3.2546L10.0872 2.1496C9.85752 2.017 9.58458 1.98106 9.3284 2.0497C9.07223 2.11834 8.85382 2.28592 8.7212 2.5156L7.6172 4.4256H5.4182C5.15299 4.4256 4.89863 4.53095 4.7111 4.71849C4.52356 4.90603 4.4182 5.16038 4.4182 5.4256V7.6246L2.5082 8.7286C2.39424 8.79415 2.29434 8.88158 2.21427 8.98586C2.13419 9.09014 2.07551 9.20921 2.04159 9.33624C2.00767 9.46326 1.99919 9.59574 2.01663 9.72606C2.03407 9.85637 2.07708 9.98196 2.1432 10.0956L3.2472 12.0036L2.1432 13.9116C2.01119 14.1414 1.97537 14.414 2.04356 14.6701C2.11175 14.9262 2.27841 15.1449 2.5072 15.2786L4.4172 16.3826V18.5816C4.4172 18.8468 4.52256 19.1012 4.7101 19.2887C4.89763 19.4762 5.15199 19.5816 5.4172 19.5816H7.6172L8.7212 21.4916C8.80973 21.6429 8.93614 21.7686 9.08798 21.8563C9.23982 21.944 9.41187 21.9906 9.5872 21.9916C9.7612 21.9916 9.9342 21.9456 10.0882 21.8566L11.9962 20.7526L13.9062 21.8566C14.1358 21.989 14.4086 22.025 14.6647 21.9565C14.9207 21.8881 15.1392 21.7209 15.2722 21.4916L16.3752 19.5816H18.5742C18.8394 19.5816 19.0938 19.4762 19.2813 19.2887C19.4688 19.1012 19.5742 18.8468 19.5742 18.5816V16.3826L21.4842 15.2786C21.598 15.2129 21.6977 15.1253 21.7776 15.021C21.8575 14.9167 21.9161 14.7977 21.95 14.6707C21.9839 14.5438 21.9925 14.4114 21.9752 14.2811C21.9579 14.1509 21.9151 14.0253 21.8492 13.9116L20.7462 12.0036ZM9.4962 6.9936C9.89416 6.99373 10.2758 7.15195 10.5571 7.43344C10.8384 7.71493 10.9963 8.09664 10.9962 8.4946C10.9961 8.89256 10.8379 9.27416 10.5564 9.55547C10.2749 9.83677 9.89316 9.99473 9.4952 9.9946C9.09725 9.99447 8.71564 9.83625 8.43434 9.55476C8.15303 9.27327 7.99507 8.89155 7.9952 8.4936C7.99534 8.09564 8.15355 7.71404 8.43504 7.43273C8.71653 7.15143 9.09825 6.99346 9.4962 6.9936ZM9.7962 16.5936L8.1962 15.3946L14.1962 7.3946L15.7962 8.5936L9.7962 16.5936ZM14.4962 16.9936C14.2992 16.9935 14.104 16.9547 13.922 16.8792C13.74 16.8037 13.5746 16.6931 13.4353 16.5538C13.296 16.4144 13.1856 16.2489 13.1102 16.0669C13.0349 15.8848 12.9961 15.6896 12.9962 15.4926C12.9963 15.2955 13.0351 15.1004 13.1106 14.9184C13.1861 14.7364 13.2967 14.571 13.436 14.4317C13.5754 14.2924 13.7409 14.182 13.9229 14.1066C14.105 14.0313 14.3002 13.9925 14.4972 13.9926C14.8952 13.9927 15.2768 14.1509 15.5581 14.4324C15.8394 14.7139 15.9973 15.0956 15.9972 15.4936C15.9971 15.8916 15.8389 16.2732 15.5574 16.5545C15.2759 16.8358 14.8942 16.9937 14.4962 16.9936Z" fill="currentColor"></path>
  </symbol>
  <symbol fill="none" xmlns="http://www.w3.org/2000/svg" viewBox="0 0 24 24" id="event">
    <path d="M21 4.5C21 4.10218 20.842 3.72064 20.5607 3.43934C20.2794 3.15804 19.8978 3 19.5 3H16.5V1.5H15V3H9V1.5H7.5V3H4.5C4.10218 3 3.72064 3.15804 3.43934 3.43934C3.15804 3.72064 3 4.10218 3 4.5V19.5C3 19.8978 3.15804 20.2794 3.43934 20.5607C3.72064 20.842 4.10218 21 4.5 21H7.5V19.5H4.5V4.5H7.5V6H9V4.5H15V6H16.5V4.5H19.5V9H21V4.5Z" fill="currentColor"></path>
    <path d="M15.75 11.25L17.6617 14.9535L21.75 15.5468L18.75 18.4297L19.5 22.5L15.75 20.5785L12 22.5L12.75 18.4297L9.75 15.5468L13.95 14.9535L15.75 11.25Z" fill="currentColor"></path>
  </symbol>
  <symbol fill="none" xmlns="http://www.w3.org/2000/svg" viewBox="0 0 12 12" id="search">
    <path fill-rule="evenodd" clip-rule="evenodd" d="M1.19231 5.40445C1.19231 3.09973 3.06066 1.23137 5.36539 1.23137C7.67012 1.23137 9.53847 3.09973 9.53847 5.40445C9.53847 7.70919 7.67012 9.57754 5.36539 9.57754C3.06066 9.57754 1.19231 7.70919 1.19231 5.40445ZM5.36539 0.0390625C2.40217 0.0390625 0 2.44123 0 5.40445C0 8.3677 2.40217 10.7698 5.36539 10.7698C6.63222 10.7698 7.79651 10.3308 8.71441 9.59655L10.9054 11.7875C11.1382 12.0203 11.5157 12.0203 11.7485 11.7875C11.9813 11.5547 11.9813 11.1773 11.7485 10.9445L9.55749 8.75347C10.2917 7.83557 10.7308 6.67128 10.7308 5.40445C10.7308 2.44123 8.32864 0.0390625 5.36539 0.0390625Z" fill="currentColor"></path>
  </symbol>
  <symbol fill="none" xmlns="http://www.w3.org/2000/svg" viewBox="0 0 49 48" id="dislike">
    <path d="M6.97343 25.014C6.80469 25.5765 6.72031 26.1578 6.72031 26.7484C6.72031 28.075 7.15625 29.35 7.94375 30.3906C7.775 30.9531 7.69063 31.5343 7.69063 32.125C7.69063 33.4515 8.12656 34.7265 8.91406 35.7671C8.74531 36.3296 8.66093 36.9109 8.66093 37.5015C8.66093 39.9203 10.1 42.1 12.3313 43.0515C12.7234 43.2206 13.1464 43.3068 13.5734 43.3046L41.75 43.3046C42.5797 43.3046 43.25 42.6343 43.25 41.8046V24.7421C43.25 23.9125 42.5797 23.2421 41.75 23.2421H35.6891L31.6672 8.6734C31.0203 6.32496 28.8641 4.68434 26.4266 4.68434C25.0344 4.68434 23.7359 5.23746 22.775 6.24996C21.8141 7.25777 21.3219 8.57965 21.3922 9.97184L21.6734 15.7328H10.4281C9.86094 15.7328 9.30781 15.8828 8.82031 16.1687C6.92656 17.2703 5.75 19.2671 5.75 21.3718C5.75 22.6984 6.18594 23.9734 6.97343 25.014ZM39.875 26.6218V39.9343H36.0781V26.6218H39.875ZM10.475 19.1031H25.2125L24.7625 9.80309C24.7344 9.24527 24.9828 8.72028 25.4469 8.3734C25.7328 8.16246 26.0844 8.05465 26.4359 8.05934C26.8851 8.06369 27.3207 8.21363 27.6774 8.48663C28.0341 8.75964 28.2926 9.14098 28.4141 9.5734L33.0781 26.4718V39.9343H13.6062C13.1377 39.7244 12.7398 39.3835 12.4604 38.9527C12.181 38.522 12.032 38.0197 12.0312 37.5062C12.0312 37.0515 12.1391 36.6203 12.3547 36.2265L13.0062 35.0359L11.9797 34.1453C11.6907 33.895 11.4591 33.5854 11.3006 33.2376C11.142 32.8898 11.0603 32.5119 11.0609 32.1296C11.0609 31.675 11.1688 31.2437 11.3844 30.85L12.0359 29.6593L11.0094 28.7687C10.7204 28.5185 10.4888 28.2089 10.3303 27.8611C10.1717 27.5132 10.09 27.1353 10.0906 26.7531C10.0906 26.2984 10.1984 25.8671 10.4141 25.4734L11.0703 24.2781L10.0437 23.3875C9.75481 23.1372 9.52318 22.8276 9.36464 22.4798C9.20609 22.132 9.12436 21.7541 9.125 21.3718C9.125 20.4765 9.64062 19.614 10.475 19.1031Z" fill="currentColor"></path>
  </symbol>
  <symbol fill="none" xmlns="http://www.w3.org/2000/svg" viewBox="0 0 20 20" id="checkmark-starburst">
    <path d="M8.19421 1.69262C8.28754 1.72428 8.37921 1.76262 8.46837 1.80595L9.53754 2.33262C9.68065 2.40306 9.83803 2.43969 9.99754 2.43969C10.157 2.43969 10.3144 2.40306 10.4575 2.33262L11.5267 1.80595C11.7967 1.67302 12.0903 1.59458 12.3906 1.57511C12.691 1.55565 12.9922 1.59554 13.2771 1.6925C13.5621 1.78946 13.8251 1.9416 14.0512 2.14022C14.2774 2.33885 14.4621 2.58007 14.595 2.85012L14.6559 2.98512L14.7084 3.12428L15.0917 4.25178C15.1959 4.55845 15.4367 4.79845 15.7425 4.90262L16.8709 5.28595C17.1795 5.39096 17.4622 5.56061 17.7 5.78358C17.9379 6.00655 18.1254 6.2777 18.2501 6.57892C18.3748 6.88014 18.4338 7.20451 18.4232 7.53035C18.4125 7.85619 18.3325 8.17601 18.1884 8.46845L17.6625 9.53762C17.5921 9.68073 17.5555 9.83811 17.5555 9.99762C17.5555 10.1571 17.5921 10.3145 17.6625 10.4576L18.1884 11.5268C18.3323 11.8192 18.4123 12.1389 18.4228 12.4647C18.4334 12.7904 18.3744 13.1147 18.2497 13.4158C18.125 13.7169 17.9375 13.988 17.6998 14.2109C17.462 14.4338 17.1794 14.6034 16.8709 14.7084L15.7425 15.0918C15.5916 15.1433 15.4545 15.2287 15.3418 15.3416C15.2291 15.4544 15.1438 15.5916 15.0925 15.7426L14.7084 16.8709C14.6033 17.1795 14.4337 17.4621 14.2108 17.6998C13.9879 17.9376 13.7168 18.1251 13.4157 18.2498C13.1146 18.3745 12.7903 18.4335 12.4646 18.4229C12.1388 18.4123 11.8191 18.3324 11.5267 18.1884L10.4575 17.6626C10.3144 17.5922 10.157 17.5555 9.99754 17.5555C9.83803 17.5555 9.68065 17.5922 9.53754 17.6626L8.46837 18.1884C8.17597 18.3324 7.85623 18.4123 7.53048 18.4229C7.20474 18.4335 6.88048 18.3745 6.57936 18.2498C6.27824 18.1251 6.00718 17.9376 5.78427 17.6998C5.56136 17.4621 5.39173 17.1795 5.28671 16.8709L4.90337 15.7426C4.8518 15.5916 4.76621 15.4544 4.65322 15.3417C4.54023 15.229 4.40286 15.1438 4.25171 15.0926L3.12421 14.7084C2.8156 14.6035 2.53293 14.4339 2.29507 14.2111C2.05721 13.9882 1.86963 13.7172 1.74486 13.416C1.62009 13.1149 1.56099 12.7906 1.57151 12.4648C1.58203 12.139 1.66193 11.8192 1.80587 11.5268L2.33254 10.4576C2.40298 10.3145 2.43961 10.1571 2.43961 9.99762C2.43961 9.83811 2.40298 9.68073 2.33254 9.53762L1.80587 8.46845C1.66193 8.176 1.58203 7.8562 1.57151 7.53041C1.56099 7.20462 1.62009 6.88034 1.74486 6.57921C1.86963 6.27808 2.05721 6.00703 2.29507 5.78416C2.53293 5.56129 2.8156 5.39172 3.12421 5.28678L4.25171 4.90345C4.40288 4.85198 4.5402 4.76645 4.65306 4.65345C4.76591 4.54046 4.85127 4.40303 4.90254 4.25178L5.28587 3.12428C5.38277 2.83928 5.53488 2.57615 5.7335 2.34994C5.93212 2.12374 6.17336 1.93888 6.44344 1.80593C6.71352 1.67298 7.00715 1.59454 7.30755 1.5751C7.60795 1.55565 7.90924 1.59559 8.19421 1.69262ZM6.4692 3.52595L6.08587 4.65428C5.97283 4.98663 5.78495 5.28857 5.53672 5.5368C5.28849 5.78503 4.98655 5.97291 4.6542 6.08595L3.52671 6.46928C3.38646 6.51709 3.25802 6.59425 3.14994 6.69561C3.04186 6.79698 2.95664 6.92021 2.89994 7.05711C2.84324 7.194 2.81638 7.34141 2.82113 7.4895C2.82589 7.6376 2.86217 7.78298 2.92754 7.91595L3.4542 8.98512C3.60933 9.3001 3.69001 9.64651 3.69001 9.99762C3.69001 10.3487 3.60933 10.6951 3.4542 11.0101L2.92754 12.0784C2.86203 12.2114 2.82564 12.3568 2.82082 12.5049C2.81599 12.6531 2.84283 12.8005 2.89954 12.9375C2.95625 13.0744 3.04154 13.1976 3.14969 13.299C3.25784 13.4003 3.38638 13.4774 3.52671 13.5251L4.6542 13.9085C4.98655 14.0215 5.28849 14.2094 5.53672 14.4576C5.78495 14.7058 5.97283 15.0078 6.08587 15.3401L6.4692 16.4684C6.51667 16.6089 6.59364 16.7377 6.69494 16.846C6.79623 16.9543 6.91952 17.0397 7.05653 17.0964C7.19354 17.1532 7.3411 17.1799 7.48932 17.175C7.63753 17.17 7.78297 17.1334 7.91587 17.0676L8.98504 16.5409C9.30002 16.3858 9.64643 16.3051 9.99754 16.3051C10.3486 16.3051 10.6951 16.3858 11.01 16.5409L12.0784 17.0676C12.2113 17.1331 12.3567 17.1695 12.5049 17.1743C12.653 17.1792 12.8004 17.1523 12.9374 17.0956C13.0743 17.0389 13.1976 16.9536 13.2989 16.8455C13.4002 16.7373 13.4773 16.6088 13.525 16.4684L13.9084 15.3401C14.0214 15.0078 14.2093 14.7058 14.4575 14.4576C14.7058 14.2094 15.0077 14.0215 15.34 13.9085L16.4684 13.5251C16.6087 13.4774 16.7372 13.4003 16.8454 13.299C16.9535 13.1976 17.0388 13.0744 17.0955 12.9375C17.1523 12.8005 17.1791 12.6531 17.1743 12.5049C17.1694 12.3568 17.133 12.2114 17.0675 12.0784L16.5409 11.0093C16.3859 10.6944 16.3053 10.3482 16.3053 9.9972C16.3053 9.64625 16.3859 9.29999 16.5409 8.98512L17.0675 7.91595C17.133 7.783 17.1694 7.6376 17.1743 7.48947C17.1791 7.34133 17.1523 7.19387 17.0955 7.05694C17.0388 6.92001 16.9535 6.79676 16.8454 6.69541C16.7372 6.59407 16.6087 6.51698 16.4684 6.46928L15.34 6.08595C15.0077 5.97291 14.7058 5.78503 14.4575 5.5368C14.2093 5.28857 14.0214 4.98663 13.9084 4.65428L13.525 3.52678L13.5009 3.46345L13.4734 3.40178L13.4217 3.30928C13.2848 3.09061 13.0716 2.93051 12.8235 2.86C12.5753 2.78949 12.3098 2.81359 12.0784 2.92762L11.0092 3.45428C10.6943 3.60928 10.3481 3.68988 9.99712 3.68988C9.64617 3.68988 9.29991 3.60928 8.98504 3.45428L7.91587 2.92762C7.78296 2.86225 7.63764 2.82598 7.4896 2.82123C7.34156 2.81648 7.19421 2.84335 7.05738 2.90005C6.92055 2.95676 6.79739 3.04199 6.69611 3.15006C6.59482 3.25813 6.51775 3.38656 6.47004 3.52678M8.37254 11.9893L12.8892 7.47262C13.0007 7.36079 13.1504 7.29533 13.3083 7.28939C13.4661 7.28346 13.6203 7.33749 13.7399 7.44063C13.8595 7.54376 13.9356 7.68835 13.953 7.84533C13.9703 8.00231 13.9276 8.16003 13.8334 8.28678L13.7725 8.35678L8.77254 13.3568C8.65948 13.4698 8.50741 13.5352 8.3476 13.5396C8.18779 13.5439 8.03239 13.4868 7.91337 13.3801L7.85087 13.3151L5.76754 10.8151C5.6668 10.6939 5.61557 10.5391 5.62412 10.3817C5.63267 10.2244 5.70036 10.076 5.81363 9.96644C5.92691 9.85685 6.0774 9.7941 6.23497 9.79077C6.39255 9.78743 6.54556 9.84375 6.66337 9.94845L6.72754 10.0151L8.37254 11.9893Z" fill="currentColor"></path>
  </symbol>
  <symbol fill="none" xmlns="http://www.w3.org/2000/svg" viewBox="0 0 25 24" id="subscription-cashflow">
    <g clip-path="url(#clip0_623_21626)">
      <path d="M14.8127 9.09991C14.6751 8.7098 14.4198 8.372 14.082 8.13312C13.7443 7.89424 13.3407 7.76604 12.927 7.7662H11.379C10.9374 7.76388 10.5106 7.92541 10.1811 8.21954C9.85171 8.51368 9.64303 8.91952 9.59548 9.35859C9.54792 9.79766 9.66487 10.2388 9.9237 10.5966C10.1825 10.9545 10.5648 11.2036 10.9967 11.2959L13.3539 11.8102C13.8359 11.9157 14.2618 12.1956 14.55 12.5961C14.8381 12.9966 14.9681 13.4895 14.915 13.98C14.8618 14.4705 14.6293 14.9241 14.262 15.2536C13.8948 15.5831 13.4187 15.7652 12.9253 15.7651H11.5933C10.7224 15.7651 9.98188 15.2096 9.70759 14.4331M12.2602 7.7662V5.76562M12.2602 17.7656V15.7668M3.92188 23.1416V18.8559H8.20759" stroke="currentColor" stroke-width="1.42857" stroke-linecap="round" stroke-linejoin="round"></path>
      <path d="M23.4443 9.94828C23.8994 12.3744 23.5361 14.8829 22.4113 17.0801C21.2865 19.2774 19.464 21.0389 17.2298 22.0884C14.9956 23.1378 12.4762 23.4157 10.067 22.8784C7.65779 22.3411 5.49518 21.019 3.9186 19.1197M1.5426 14.0489C1.0875 11.6228 1.45085 9.11425 2.57561 6.91701C3.70037 4.71976 5.52288 2.95818 7.75709 1.90876C9.99129 0.859326 12.5107 0.581456 14.9199 1.11876C17.3291 1.65606 19.4917 2.97811 21.0683 4.87742" stroke="currentColor" stroke-width="1.42857" stroke-linecap="round" stroke-linejoin="round"></path>
      <path d="M21.067 0.859375V5.14509H16.7812" stroke="currentColor" stroke-width="1.42857" stroke-linecap="round" stroke-linejoin="round"></path>
    </g>
    <defs>
      <clipPath id="clip0_623_21626">
        <rect width="24" height="24" fill="white" transform="translate(0.492188)"></rect>
      </clipPath>
    </defs>
  </symbol>
  <symbol fill="none" xmlns="http://www.w3.org/2000/svg" viewBox="0 0 24 24" id="calender">
    <path d="M19.5 4H16.5V2.5C16.5 2.36739 16.4473 2.24021 16.3536 2.14645C16.2598 2.05268 16.1326 2 16 2C15.8674 2 15.7402 2.05268 15.6464 2.14645C15.5527 2.24021 15.5 2.36739 15.5 2.5V4H8.5V2.5C8.5 2.36739 8.44732 2.24021 8.35355 2.14645C8.25979 2.05268 8.13261 2 8 2C7.86739 2 7.74021 2.05268 7.64645 2.14645C7.55268 2.24021 7.5 2.36739 7.5 2.5V4H4.5C3.8372 4.00079 3.20178 4.26444 2.73311 4.73311C2.26444 5.20178 2.00079 5.8372 2 6.5V19.5C2.00079 20.1628 2.26444 20.7982 2.73311 21.2669C3.20178 21.7356 3.8372 21.9992 4.5 22H19.5C20.1629 21.9995 20.7985 21.7359 21.2672 21.2672C21.7359 20.7985 21.9995 20.1629 22 19.5V6.5C21.9995 5.83712 21.7359 5.20154 21.2672 4.73282C20.7985 4.26409 20.1629 4.00053 19.5 4ZM21 19.5C21 19.8978 20.842 20.2794 20.5607 20.5607C20.2794 20.842 19.8978 21 19.5 21H4.5C4.10218 21 3.72064 20.842 3.43934 20.5607C3.15804 20.2794 3 19.8978 3 19.5V11H21V19.5ZM21 10H3V6.5C3 5.672 3.67 5 4.5 5H7.5V6.5C7.5 6.63261 7.55268 6.75979 7.64645 6.85355C7.74021 6.94732 7.86739 7 8 7C8.13261 7 8.25979 6.94732 8.35355 6.85355C8.44732 6.75979 8.5 6.63261 8.5 6.5V5H15.5V6.5C15.5 6.63261 15.5527 6.75979 15.6464 6.85355C15.7402 6.94732 15.8674 7 16 7C16.1326 7 16.2598 6.94732 16.3536 6.85355C16.4473 6.75979 16.5 6.63261 16.5 6.5V5H19.5C19.8978 5 20.2794 5.15804 20.5607 5.43934C20.842 5.72064 21 6.10218 21 6.5V10Z" fill="currentColor"></path>
  </symbol>
  <symbol fill="none" xmlns="http://www.w3.org/2000/svg" viewBox="0 0 24 24" id="sort">
    <path d="M3.75 12.0006C3.75 11.8017 3.82902 11.6109 3.96967 11.4703C4.11032 11.3296 4.30109 11.2506 4.5 11.2506H11.25C11.4489 11.2506 11.6397 11.3296 11.7803 11.4703C11.921 11.6109 12 11.8017 12 12.0006C12 12.1995 11.921 12.3903 11.7803 12.5309C11.6397 12.6716 11.4489 12.7506 11.25 12.7506H4.5C4.30109 12.7506 4.11032 12.6716 3.96967 12.5309C3.82902 12.3903 3.75 12.1995 3.75 12.0006ZM4.5 6.75059H9.75C9.94891 6.75059 10.1397 6.67157 10.2803 6.53092C10.421 6.39027 10.5 6.1995 10.5 6.00059C10.5 5.80168 10.421 5.61091 10.2803 5.47026C10.1397 5.32961 9.94891 5.25059 9.75 5.25059H4.5C4.30109 5.25059 4.11032 5.32961 3.96967 5.47026C3.82902 5.61091 3.75 5.80168 3.75 6.00059C3.75 6.1995 3.82902 6.39027 3.96967 6.53092C4.11032 6.67157 4.30109 6.75059 4.5 6.75059ZM17.25 17.2506H4.5C4.30109 17.2506 4.11032 17.3296 3.96967 17.4703C3.82902 17.6109 3.75 17.8017 3.75 18.0006C3.75 18.1995 3.82902 18.3903 3.96967 18.5309C4.11032 18.6716 4.30109 18.7506 4.5 18.7506H17.25C17.4489 18.7506 17.6397 18.6716 17.7803 18.5309C17.921 18.3903 18 18.1995 18 18.0006C18 17.8017 17.921 17.6109 17.7803 17.4703C17.6397 17.3296 17.4489 17.2506 17.25 17.2506ZM21.5306 7.71996L17.7806 3.96997C17.711 3.90023 17.6283 3.84491 17.5372 3.80717C17.4462 3.76943 17.3486 3.75 17.25 3.75C17.1514 3.75 17.0538 3.76943 16.9628 3.80717C16.8717 3.84491 16.789 3.90023 16.7194 3.96997L12.9694 7.71996C12.8286 7.8607 12.7496 8.05157 12.7496 8.25059C12.7496 8.44961 12.8286 8.64048 12.9694 8.78122C13.1101 8.92195 13.301 9.00101 13.5 9.00101C13.699 9.00101 13.8899 8.92195 14.0306 8.78122L16.5 6.3109V13.5006C16.5 13.6995 16.579 13.8903 16.7197 14.0309C16.8603 14.1716 17.0511 14.2506 17.25 14.2506C17.4489 14.2506 17.6397 14.1716 17.7803 14.0309C17.921 13.8903 18 13.6995 18 13.5006V6.3109L20.4694 8.78122C20.5391 8.8509 20.6218 8.90617 20.7128 8.94389C20.8039 8.9816 20.9015 9.00101 21 9.00101C21.0985 9.00101 21.1961 8.9816 21.2872 8.94389C21.3782 8.90617 21.4609 8.8509 21.5306 8.78122C21.6003 8.71153 21.6556 8.62881 21.6933 8.53776C21.731 8.44672 21.7504 8.34914 21.7504 8.25059C21.7504 8.15204 21.731 8.05446 21.6933 7.96342C21.6556 7.87237 21.6003 7.78965 21.5306 7.71996Z" fill="currentColor"></path>
  </symbol>
  <symbol fill="none" xmlns="http://www.w3.org/2000/svg" viewBox="0 0 24 24" id="hotel">
    <path d="M7.11719 11.25C7.33969 11.25 7.5572 11.316 7.7422 11.4396C7.92721 11.5632 8.0714 11.7389 8.15655 11.9445C8.2417 12.15 8.26398 12.3762 8.22057 12.5945C8.17716 12.8127 8.07002 13.0132 7.91268 13.1705C7.75535 13.3278 7.55489 13.435 7.33667 13.4784C7.11844 13.5218 6.89224 13.4995 6.68667 13.4144C6.4811 13.3292 6.3054 13.185 6.18178 13C6.05817 12.815 5.99219 12.5975 5.99219 12.375C5.99219 12.0766 6.11071 11.7905 6.32169 11.5795C6.53267 11.3685 6.81882 11.25 7.11719 11.25ZM7.11719 9.75C6.59801 9.75 6.0905 9.90395 5.65882 10.1924C5.22714 10.4808 4.89068 10.8908 4.692 11.3705C4.49332 11.8501 4.44134 12.3779 4.54263 12.8871C4.64391 13.3963 4.89392 13.864 5.26103 14.2312C5.62815 14.5983 6.09588 14.8483 6.60508 14.9496C7.11428 15.0508 7.64208 14.9989 8.12173 14.8002C8.60139 14.6015 9.01136 14.2651 9.2998 13.8334C9.58824 13.4017 9.74219 12.8942 9.74219 12.375C9.74219 11.6788 9.46563 11.0111 8.97334 10.5188C8.48106 10.0266 7.81338 9.75 7.11719 9.75Z" fill="currentColor"></path>
    <path d="M18.7422 10.498H12.7422C12.3444 10.498 11.9628 10.656 11.6815 10.9373C11.4002 11.2186 11.2422 11.6002 11.2422 11.998V16.498H2.99219V7.948L11.9922 3.103L21.3897 8.158L22.0947 6.838L12.3447 1.588C12.2362 1.53022 12.1151 1.5 11.9922 1.5C11.8693 1.5 11.7482 1.53022 11.6397 1.588L1.88969 6.838C1.76993 6.90177 1.66971 6.99683 1.59971 7.11306C1.52971 7.22928 1.49255 7.36232 1.49219 7.498V22.498H2.99219V17.998H20.9922V22.498H22.4922V14.248C22.4922 13.2534 22.0971 12.2996 21.3938 11.5963C20.6906 10.8931 19.7367 10.498 18.7422 10.498ZM12.7422 16.498V11.998H18.7422C19.3389 11.998 19.9112 12.2351 20.3332 12.657C20.7551 13.079 20.9922 13.6513 20.9922 14.248V16.498H12.7422Z" fill="currentColor"></path>
  </symbol>
  <symbol fill="none" xmlns="http://www.w3.org/2000/svg" viewBox="0 0 32 32" id="instagram">
    <path d="M17.2258 0C25.3529 0 32.0023 6.52417 32.0023 14.4982V16.7634C32.0023 24.7374 25.3529 31.2615 17.2258 31.2615H14.9171C6.79005 31.2615 0.140625 24.7374 0.140625 16.7634V14.4982C0.140625 6.52417 6.79005 0 14.9171 0H17.2258ZM16.3619 7.85729L16.1564 7.85703C14.4444 7.85703 12.7325 7.91255 12.7325 7.91255C10.2321 7.91255 8.20508 9.90137 8.20508 12.3547C8.20508 12.3547 8.15311 13.797 8.14878 15.3451L8.14849 15.5475C8.14849 17.2808 8.20508 19.0734 8.20508 19.0734C8.20508 21.5267 10.2321 23.5156 12.7325 23.5156C12.7325 23.5156 14.3331 23.5711 15.9866 23.5711C17.7532 23.5711 19.6368 23.5156 19.6368 23.5156C22.1373 23.5156 24.1077 21.5823 24.1077 19.129C24.1077 19.129 24.1642 17.3565 24.1642 15.6586L24.1632 15.2601C24.1555 13.7366 24.1076 12.2991 24.1076 12.2991C24.1076 9.84582 22.1372 7.91255 19.6368 7.91255C19.6368 7.91255 18.0069 7.86138 16.3619 7.85729ZM16.1564 9.27125C17.5602 9.27125 19.3601 9.3168 19.3601 9.3168C21.4104 9.3168 22.6764 10.5589 22.6764 12.5706C22.6764 12.5706 22.7228 14.3065 22.7228 15.6685C22.7228 17.0608 22.6764 18.8574 22.6764 18.8574C22.6764 20.8691 21.4104 22.1112 19.3601 22.1112C19.3601 22.1112 17.7683 22.1495 16.3872 22.1559L16.0172 22.1567C14.6613 22.1567 13.0092 22.1112 13.0092 22.1112C10.9589 22.1112 9.63634 20.8135 9.63634 18.8018C9.63634 18.8018 9.58991 16.9987 9.58991 15.5774C9.58991 14.2471 9.63634 12.5706 9.63634 12.5706C9.63634 10.5589 10.9589 9.3168 13.0092 9.3168C13.0092 9.3168 14.7526 9.27125 16.1564 9.27125ZM16.1563 11.6892C13.8908 11.6892 12.0543 13.4912 12.0543 15.714C12.0543 17.9368 13.8908 19.7388 16.1563 19.7388C18.4219 19.7388 20.2584 17.9368 20.2584 15.714C20.2584 13.4912 18.4219 11.6892 16.1563 11.6892ZM16.1563 13.095C17.6306 13.095 18.8256 14.2676 18.8256 15.714C18.8256 17.1605 17.6306 18.333 16.1563 18.333C14.6821 18.333 13.487 17.1605 13.487 15.714C13.487 14.2676 14.6821 13.095 16.1563 13.095ZM20.4547 10.5723C19.9073 10.5723 19.4635 11.0099 19.4635 11.5496C19.4635 12.0894 19.9073 12.5269 20.4547 12.5269C21.0021 12.5269 21.4458 12.0894 21.4458 11.5496C21.4458 11.0098 21.0021 10.5723 20.4547 10.5723Z" fill="currentColor"></path>
  </symbol>
  <symbol fill="none" xmlns="http://www.w3.org/2000/svg" viewBox="0 0 33 32" id="youtube">
    <path d="M14.5703 18.6487L19.7852 15.6447L14.5703 12.6406V18.6487Z" fill="currentColor"></path>
    <path d="M16.6965 0C7.89717 0 0.765625 6.99721 0.765625 15.6308C0.765625 24.2643 7.89717 31.2615 16.6965 31.2615C25.4958 31.2615 32.6273 24.2643 32.6273 15.6308C32.6273 6.99721 25.4958 0 16.6965 0ZM24.6619 18.4272C24.6619 21.1199 21.9176 21.1199 21.9176 21.1199H11.4754C8.73105 21.1199 8.73105 18.4272 8.73105 18.4272V12.8404C8.73105 10.1478 11.4754 10.1478 11.4754 10.1478H21.9176C24.6619 10.1478 24.6619 12.8404 24.6619 12.8404V18.4272Z" fill="currentColor"></path>
  </symbol>
  <symbol fill="none" xmlns="http://www.w3.org/2000/svg" viewBox="0 0 33 32" id="linkedin">
    <path d="M16.3137 0C7.51436 0 0.382812 6.99721 0.382812 15.6308C0.382812 24.2643 7.51436 31.2615 16.3137 31.2615C25.113 31.2615 32.2445 24.2643 32.2445 15.6308C32.2445 6.99721 25.113 0 16.3137 0ZM11.858 22.17H8.75274V12.4191H11.858V22.17ZM10.2214 11.198H10.1965C9.07011 11.198 8.34202 10.4531 8.34202 9.50668C8.34202 8.54197 9.095 7.81538 10.24 7.81538C11.3851 7.81538 12.0883 8.54197 12.1131 9.50668C12.1194 10.447 11.3913 11.198 10.2214 11.198ZM24.2791 22.17H20.7569V17.1267C20.7569 15.8078 20.2093 14.9042 18.9958 14.9042C18.0686 14.9042 17.552 15.5148 17.3156 16.1009C17.2284 16.3085 17.2409 16.6016 17.2409 16.9008V22.17H13.7498C13.7498 22.17 13.7934 13.2312 13.7498 12.4191H17.2409V13.9517C17.4463 13.28 18.5602 12.3275 20.3399 12.3275C22.5491 12.3275 24.2791 13.7319 24.2791 16.7481V22.17Z" fill="currentColor"></path>
  </symbol>
  <symbol fill="none" xmlns="http://www.w3.org/2000/svg" viewBox="0 0 32 32" id="facebook">
    <path d="M15.9309 0C7.13155 0 0 6.99721 0 15.6308C0 24.2643 7.13155 31.2615 15.9309 31.2615C24.7302 31.2615 31.8617 24.2643 31.8617 15.6308C31.8617 6.99721 24.7302 0 15.9309 0ZM19.4468 12.9809L19.2664 15.3194H16.8207V23.44H13.7341V15.3194H12.085V12.9809H13.7341V11.4117C13.7341 10.7217 13.7528 9.65322 14.2631 8.98769C14.8045 8.28553 15.545 7.80928 16.8207 7.80928C18.8992 7.80928 19.7704 8.10236 19.7704 8.10236L19.3597 10.4958C19.3597 10.4958 18.6752 10.3004 18.0342 10.3004C17.3933 10.3004 16.8207 10.5263 16.8207 11.1552V12.9809H19.4468Z" fill="currentColor"></path>
  </symbol>
  <symbol fill="none" xmlns="http://www.w3.org/2000/svg" viewBox="0 0 24 24" id="menu">
    <path d="M3 4H21V6H3V4ZM3 11H15V13H3V11ZM3 18H21V20H3V18Z" fill="currentColor"></path>
  </symbol>
  <symbol fill="none" xmlns="http://www.w3.org/2000/svg" viewBox="0 0 24 24" id="close">
    <path d="M18 18L12 12M12 12L6 6M12 12L18 6M12 12L6 18" stroke="white" stroke-width="2" stroke-linecap="round" stroke-linejoin="round"></path>
  </symbol>
  <symbol fill="none" xmlns="http://www.w3.org/2000/svg" viewBox="0 0 24 25" id="task">
    <path d="M22 5.68001L10.59 17.1L6.35 12.86L7.76 11.45L10.59 14.28L20.59 4.28001L22 5.68001ZM19.79 10.72C19.92 11.29 20 11.89 20 12.5C20 16.92 16.42 20.5 12 20.5C7.58 20.5 4 16.92 4 12.5C4 8.08001 7.58 4.50001 12 4.50001C13.58 4.50001 15.04 4.96001 16.28 5.75001L17.72 4.31001C16.0464 3.12956 14.048 2.49718 12 2.50001C6.48 2.50001 2 6.98001 2 12.5C2 18.02 6.48 22.5 12 22.5C17.52 22.5 22 18.02 22 12.5C22 11.31 21.78 10.17 21.4 9.11001L19.79 10.72Z" fill="currentColor"></path>
  </symbol>
  <symbol fill="none" xmlns="http://www.w3.org/2000/svg" viewBox="0 0 24 24" id="gallery">
    <path d="M18 8C18 8.53043 17.7893 9.03914 17.4142 9.41421C17.0391 9.78929 16.5304 10 16 10C15.4696 10 14.9609 9.78929 14.5858 9.41421C14.2107 9.03914 14 8.53043 14 8C14 7.46957 14.2107 6.96086 14.5858 6.58579C14.9609 6.21071 15.4696 6 16 6C16.5304 6 17.0391 6.21071 17.4142 6.58579C17.7893 6.96086 18 7.46957 18 8Z" fill="currentColor"></path>
    <path fill-rule="evenodd" clip-rule="evenodd" d="M12.057 1.25H11.943C9.634 1.25 7.825 1.25 6.413 1.44C4.969 1.634 3.829 2.04 2.934 2.934C2.039 3.829 1.634 4.969 1.44 6.414C1.25 7.825 1.25 9.634 1.25 11.943V12.057C1.25 14.366 1.25 16.175 1.44 17.587C1.634 19.031 2.04 20.171 2.934 21.066C3.829 21.961 4.969 22.366 6.414 22.56C7.825 22.75 9.634 22.75 11.943 22.75H12.057C14.366 22.75 16.175 22.75 17.587 22.56C19.031 22.366 20.171 21.96 21.066 21.066C21.961 20.171 22.366 19.031 22.56 17.586C22.75 16.175 22.75 14.366 22.75 12.057V11.943C22.75 9.634 22.75 7.825 22.56 6.413C22.366 4.969 21.96 3.829 21.066 2.934C20.171 2.039 19.031 1.634 17.586 1.44C16.175 1.25 14.366 1.25 12.057 1.25ZM3.995 3.995C4.565 3.425 5.335 3.098 6.614 2.926C7.914 2.752 9.622 2.75 12 2.75C14.378 2.75 16.086 2.752 17.386 2.926C18.665 3.098 19.436 3.426 20.006 3.995C20.575 4.565 20.902 5.335 21.074 6.614C21.248 7.914 21.25 9.622 21.25 12L21.249 13.28L21.027 13.25C18.183 12.856 15.581 14.334 14.255 16.563C12.545 12.238 8.028 9.288 2.981 10.013L2.755 10.045C2.766 8.64 2.804 7.526 2.926 6.614C3.098 5.335 3.426 4.565 3.995 3.995Z" fill="currentColor"></path>
  </symbol>
  <symbol fill="none" xmlns="http://www.w3.org/2000/svg" viewBox="0 0 24 24" id="issue-type-feature">
    <g clip-path="url(#clip0_623_18987)">
      <path fill-rule="evenodd" clip-rule="evenodd" d="M21.75 12C21.75 14.5859 20.7228 17.0658 18.8943 18.8943C17.0658 20.7228 14.5859 21.75 12 21.75C9.41414 21.75 6.93419 20.7228 5.10571 18.8943C3.27723 17.0658 2.25 14.5859 2.25 12C2.25 9.41414 3.27723 6.93419 5.10571 5.10571C6.93419 3.27723 9.41414 2.25 12 2.25C14.5859 2.25 17.0658 3.27723 18.8943 5.10571C20.7228 6.93419 21.75 9.41414 21.75 12ZM24 12C24 15.1826 22.7357 18.2348 20.4853 20.4853C18.2348 22.7357 15.1826 24 12 24C8.8174 24 5.76516 22.7357 3.51472 20.4853C1.26428 18.2348 0 15.1826 0 12C0 8.8174 1.26428 5.76516 3.51472 3.51472C5.76516 1.26428 8.8174 0 12 0C15.1826 0 18.2348 1.26428 20.4853 3.51472C22.7357 5.76516 24 8.8174 24 12ZM13.032 4.803C12.9447 4.60184 12.8005 4.43057 12.6172 4.31028C12.4338 4.18998 12.2193 4.12589 12 4.12589C11.7807 4.12589 11.5662 4.18998 11.3828 4.31028C11.1995 4.43057 11.0553 4.60184 10.968 4.803L9.399 8.4195L5.4735 8.7945C5.25511 8.81533 5.04758 8.89955 4.87645 9.03681C4.70531 9.17406 4.57804 9.35836 4.51029 9.56701C4.44255 9.77567 4.43729 9.99958 4.49516 10.2112C4.55302 10.4228 4.6715 10.6129 4.836 10.758L7.791 13.368L6.9345 17.2155C6.88649 17.4296 6.90216 17.6532 6.97959 17.8585C7.05701 18.0639 7.19281 18.2421 7.37026 18.3712C7.54771 18.5004 7.75906 18.5748 7.97827 18.5853C8.19748 18.5959 8.41499 18.542 8.604 18.4305L12 16.425L15.396 18.429C15.5849 18.5404 15.8022 18.5941 16.0212 18.5836C16.2403 18.5731 16.4514 18.4988 16.6288 18.3699C16.8062 18.241 16.942 18.063 17.0196 17.8579C17.0972 17.6528 17.1131 17.4295 17.0655 17.2155L16.209 13.368L19.164 10.758C19.329 10.613 19.4479 10.4228 19.5061 10.2109C19.5642 9.99909 19.5591 9.77486 19.4913 9.5659C19.4235 9.35693 19.296 9.17239 19.1246 9.03505C18.9531 8.8977 18.7452 8.81356 18.5265 8.793L14.601 8.4195L13.032 4.803ZM11.199 9.924L12 8.079L12.801 9.924C12.8809 10.1088 13.0089 10.2688 13.1717 10.3873C13.3345 10.5057 13.5261 10.5783 13.7265 10.5975L15.7305 10.788L14.2215 12.12C14.0704 12.2532 13.9578 12.4245 13.8956 12.6161C13.8333 12.8077 13.8236 13.0124 13.8675 13.209L14.3055 15.174L12.5715 14.1495C12.3984 14.0474 12.201 13.9935 12 13.9935C11.799 13.9935 11.6016 14.0474 11.4285 14.1495L9.6945 15.1725L10.1325 13.2075C10.1761 13.0111 10.1663 12.8067 10.104 12.6154C10.0417 12.4241 9.92934 12.2531 9.7785 12.12L8.2695 10.788L10.2735 10.5975C10.4739 10.5783 10.6655 10.5057 10.8283 10.3873C10.9911 10.2688 11.1191 10.1088 11.199 9.924Z" fill="currentColor"></path>
    </g>
    <defs>
      <clipPath id="clip0_623_18987">
        <rect width="24" height="24" fill="white"></rect>
      </clipPath>
    </defs>
  </symbol>
  <symbol fill="none" xmlns="http://www.w3.org/2000/svg" viewBox="0 0 24 24" id="map">
    <g clip-path="url(#clip0_623_18991)">
      <path d="M19.4628 2.32826C20.2464 2.94266 20.7864 3.93506 21.0072 4.97426C21.0339 4.98272 21.06 4.99315 21.0852 5.00546L23.5392 6.14066C23.6764 6.20365 23.7926 6.30457 23.8743 6.43152C23.956 6.55846 23.9996 6.70612 24 6.85706V21.6975C23.9991 21.8207 23.9697 21.9421 23.914 22.0521C23.8584 22.1621 23.778 22.2577 23.6791 22.3314C23.5803 22.4051 23.4658 22.4549 23.3445 22.477C23.2232 22.499 23.0984 22.4926 22.98 22.4583L16.1772 20.5383L8.0892 22.7679C7.94327 22.8079 7.78903 22.8063 7.644 22.7631L0.5688 20.6571C0.405265 20.609 0.261588 20.5095 0.159114 20.3733C0.0566412 20.2371 0.000839592 20.0715 0 19.9011L0 4.79426C0 4.26626 0.5136 3.88706 1.026 4.03586L7.8684 6.02906L11.346 4.96466C11.3939 4.95053 11.4428 4.94049 11.4924 4.93466C11.6268 4.14746 12.0024 3.39146 12.6324 2.65466C13.38 1.77866 14.6916 1.26506 15.9696 1.20386C17.2956 1.14026 18.3084 1.42346 19.4616 2.32706M1.5996 5.85386V19.3119L7.4436 21.0507V7.55426L1.5996 5.85386ZM11.4504 6.59066L9.0432 7.32626V20.8611L15.1212 19.1883V15.2343C15.1212 14.7975 15.48 14.4435 15.9216 14.4435C16.3632 14.4435 16.7208 14.7975 16.7208 15.2355V19.0479L22.4004 20.6499V7.35986L21.0564 6.73586C21.0336 6.86786 21.0048 6.99746 20.9688 7.12346C20.7079 8.04357 20.2701 8.90401 19.68 9.65666L16.7076 13.3683C16.6293 13.4658 16.5294 13.5438 16.4157 13.596C16.302 13.6482 16.1777 13.6731 16.0527 13.6688C15.9277 13.6645 15.8054 13.631 15.6955 13.5712C15.5857 13.5113 15.4914 13.4266 15.42 13.3239L12.642 9.30026C12.1836 8.65946 11.862 8.08826 11.6808 7.57706C11.5671 7.258 11.4898 6.92709 11.4504 6.59066ZM16.0464 2.78546C15.1752 2.82746 14.28 3.17786 13.854 3.67586C13.3416 4.27586 13.0896 4.83746 13.0392 5.40626C12.9792 6.09146 13.02 6.57506 13.1904 7.05386C13.3164 7.40786 13.5672 7.85666 13.9548 8.39786L16.128 11.5443L18.42 8.68226C18.8824 8.09132 19.2252 7.41593 19.4292 6.69386C19.7172 5.68586 19.2828 4.20506 18.4692 3.56906C17.6352 2.91506 17.0052 2.73866 16.0476 2.78546M16.2132 3.62186C17.538 3.62186 18.6132 4.68386 18.6132 5.99426C18.6115 6.30764 18.548 6.61762 18.4265 6.90647C18.3049 7.19532 18.1276 7.45739 17.9047 7.67771C17.6819 7.89802 17.4177 8.07226 17.1275 8.19047C16.8373 8.30869 16.5266 8.36856 16.2132 8.36666C14.8884 8.36666 13.8132 7.30466 13.8132 5.99426C13.8132 4.68386 14.8884 3.62186 16.2132 3.62186ZM16.2132 5.20346C16.1087 5.20283 16.0051 5.22278 15.9084 5.26218C15.8116 5.30158 15.7235 5.35965 15.6492 5.43309C15.5749 5.50652 15.5158 5.59387 15.4752 5.69016C15.4346 5.78645 15.4134 5.88978 15.4128 5.99426C15.4128 6.43106 15.7716 6.78506 16.2132 6.78506C16.3177 6.78553 16.4212 6.76542 16.5179 6.72588C16.6146 6.68633 16.7026 6.62813 16.7768 6.55458C16.851 6.48104 16.91 6.3936 16.9505 6.29725C16.9909 6.2009 17.0119 6.09754 17.0124 5.99306C17.0108 5.78247 16.9258 5.5811 16.776 5.43309C16.6262 5.28508 16.4238 5.2025 16.2132 5.20346Z" fill="currentColor"></path>
    </g>
    <defs>
      <clipPath id="clip0_623_18991">
        <rect width="24" height="24" fill="white"></rect>
      </clipPath>
    </defs>
  </symbol>
  <symbol fill="none" xmlns="http://www.w3.org/2000/svg" viewBox="0 0 24 24" id="box-unpacking">
    <path d="M2.87813 1.1875C4.40203 2.73156 5.42859 4.52312 6.24891 6.30203C6.47859 5.73953 6.59109 5.26141 7.13484 4.78797C9.33797 6.03016 9.96141 6.81766 10.1536 8.55672H13.2848C13.3692 6.86922 13.6411 5.91766 14.9958 4.675C15.7411 5.25672 15.9333 5.93641 16.313 6.58328C16.7114 4.75984 18.0614 2.77328 19.9083 1.80719C17.4473 1.26531 14.8223 1.78703 12.7223 2.62937C13.1583 2.92891 13.7864 3.15578 13.9833 3.54344C13.0927 4.00234 12.1317 5.52859 11.5833 6.79422C10.9223 5.61766 9.54422 4.28922 8.20828 3.62359C8.74734 3.08078 9.28641 2.88344 9.82547 2.55062C8.27859 1.68953 5.50828 1.26297 2.87813 1.1875ZM3.29297 9.40047L1.35938 14.5567H6.45984L8.39109 9.40047H3.29297ZM9.60984 9.40047L11.5411 14.5567H22.6411L20.7098 9.40047H9.60984ZM8.57859 11.3036L7.04109 15.4005H3.42234V22.8067H8.57859V11.3036ZM9.42234 11.3036V22.8067H20.5786V15.4005H10.9598L9.42234 11.3036Z" fill="currentColor"></path>
  </symbol>
  <symbol fill="none" xmlns="http://www.w3.org/2000/svg" viewBox="0 0 24 24" id="plan-notebook">
    <path d="M19.5469 1.51172H21V24H3V1.51172H4.47656V0H5.97656V1.51172H9V0H10.5V1.51172H13.5234V0H15.0234V1.51172H18.0469V0H19.5469V1.51172ZM19.5 22.5V3.01172H4.5V22.5H19.5ZM16.5 6.01172V7.51172H7.5V6.01172H16.5ZM7.5 19.5234V18.0234H16.5V19.5234H7.5ZM7.5 13.5117V12.0117H16.5V13.5117H7.5Z" fill="currentColor"></path>
  </symbol>
  <symbol fill="none" xmlns="http://www.w3.org/2000/svg" viewBox="0 0 24 24" id="checkmark">
    <path d="M10.5 16.0605L6.75 12.3098L7.80975 11.25L10.5 13.9395L16.1887 8.25L17.25 9.31125L10.5 16.0605Z" fill="currentColor"></path>
    <path d="M12 1.5C9.9233 1.5 7.89323 2.11581 6.16652 3.26957C4.4398 4.42332 3.09399 6.0632 2.29927 7.98182C1.50455 9.90045 1.29661 12.0116 1.70176 14.0484C2.1069 16.0852 3.10693 17.9562 4.57538 19.4246C6.04383 20.8931 7.91476 21.8931 9.95156 22.2982C11.9884 22.7034 14.0996 22.4955 16.0182 21.7007C17.9368 20.906 19.5767 19.5602 20.7304 17.8335C21.8842 16.1068 22.5 14.0767 22.5 12C22.5 9.21523 21.3938 6.54451 19.4246 4.57538C17.4555 2.60625 14.7848 1.5 12 1.5ZM12 21C10.22 21 8.47992 20.4722 6.99987 19.4832C5.51983 18.4943 4.36628 17.0887 3.68509 15.4442C3.0039 13.7996 2.82567 11.99 3.17294 10.2442C3.5202 8.49836 4.37737 6.89471 5.63604 5.63604C6.89472 4.37737 8.49836 3.5202 10.2442 3.17293C11.99 2.82567 13.7996 3.0039 15.4442 3.68508C17.0887 4.36627 18.4943 5.51983 19.4832 6.99987C20.4722 8.47991 21 10.22 21 12C21 14.3869 20.0518 16.6761 18.364 18.364C16.6761 20.0518 14.387 21 12 21Z" fill="currentColor"></path>
  </symbol>
  <symbol fill="none" xmlns="http://www.w3.org/2000/svg" viewBox="0 0 24 24" id="overview">
    <path d="M18.5 17.8V15.5C18.5 15.3667 18.45 15.25 18.35 15.15C18.25 15.05 18.1333 15 18 15C17.8667 15 17.75 15.05 17.65 15.15C17.55 15.25 17.5 15.3667 17.5 15.5V17.8C17.5 17.9333 17.525 18.0583 17.575 18.175C17.625 18.2917 17.7 18.4 17.8 18.5L19.325 20.025C19.425 20.125 19.5417 20.175 19.675 20.175C19.8083 20.175 19.925 20.125 20.025 20.025C20.125 19.925 20.175 19.8083 20.175 19.675C20.175 19.5417 20.125 19.425 20.025 19.325L18.5 17.8ZM5 21C4.45 21 3.97933 20.8043 3.588 20.413C3.19667 20.0217 3.00067 19.5507 3 19V5C3 4.45 3.196 3.97933 3.588 3.588C3.98 3.19667 4.45067 3.00067 5 3H19C19.55 3 20.021 3.196 20.413 3.588C20.805 3.98 21.0007 4.45067 21 5V10C21 10.2833 20.904 10.521 20.712 10.713C20.52 10.905 20.2827 11.0007 20 11C19.7167 11 19.4793 10.904 19.288 10.712C19.0967 10.52 19.0007 10.2827 19 10V5H5V19H10C10.2833 19 10.521 19.096 10.713 19.288C10.905 19.48 11.0007 19.7173 11 20C11 20.2833 10.904 20.521 10.712 20.713C10.52 20.905 10.2827 21.0007 10 21H5ZM5 18V19V5V11.075V11V18ZM7 16C7 16.2833 7.096 16.521 7.288 16.713C7.48 16.905 7.71733 17.0007 8 17H10.075C10.3583 17 10.596 16.904 10.788 16.712C10.98 16.52 11.0757 16.2827 11.075 16C11.075 15.7167 10.9793 15.4793 10.788 15.288C10.5967 15.0967 10.359 15.0007 10.075 15H8C7.71667 15 7.47933 15.096 7.288 15.288C7.09667 15.48 7.00067 15.7173 7 16ZM7 12C7 12.2833 7.096 12.521 7.288 12.713C7.48 12.905 7.71733 13.0007 8 13H13C13.2833 13 13.521 12.904 13.713 12.712C13.905 12.52 14.0007 12.2827 14 12C14 11.7167 13.904 11.4793 13.712 11.288C13.52 11.0967 13.2827 11.0007 13 11H8C7.71667 11 7.47933 11.096 7.288 11.288C7.09667 11.48 7.00067 11.7173 7 12ZM7 8C7 8.28333 7.096 8.521 7.288 8.713C7.48 8.905 7.71733 9.00067 8 9H16C16.2833 9 16.521 8.904 16.713 8.712C16.905 8.52 17.0007 8.28267 17 8C17 7.71667 16.904 7.47933 16.712 7.288C16.52 7.09667 16.2827 7.00067 16 7H8C7.71667 7 7.47933 7.096 7.288 7.288C7.09667 7.48 7.00067 7.71733 7 8ZM18 23C16.6167 23 15.4377 22.5123 14.463 21.537C13.4883 20.5617 13.0007 19.3827 13 18C13 16.6167 13.4877 15.4377 14.463 14.463C15.4383 13.4883 16.6173 13.0007 18 13C19.3833 13 20.5627 13.4877 21.538 14.463C22.5133 15.4383 23.0007 16.6173 23 18C23 19.3833 22.5123 20.5627 21.537 21.538C20.5617 22.5133 19.3827 23.0007 18 23Z" fill="currentColor"></path>
  </symbol>
  <symbol fill="none" xmlns="http://www.w3.org/2000/svg" viewBox="0 0 20 20" id="cancel-outline">
    <path d="M9.9974 11.1641L12.4141 13.5807C12.5668 13.7335 12.7613 13.8099 12.9974 13.8099C13.2335 13.8099 13.428 13.7335 13.5807 13.5807C13.7335 13.428 13.8099 13.2335 13.8099 12.9974C13.8099 12.7613 13.7335 12.5668 13.5807 12.4141L11.1641 9.9974L13.5807 7.58073C13.7335 7.42795 13.8099 7.23351 13.8099 6.9974C13.8099 6.76128 13.7335 6.56684 13.5807 6.41406C13.428 6.26128 13.2335 6.1849 12.9974 6.1849C12.7613 6.1849 12.5668 6.26128 12.4141 6.41406L9.9974 8.83073L7.58073 6.41406C7.42795 6.26128 7.23351 6.1849 6.9974 6.1849C6.76128 6.1849 6.56684 6.26128 6.41406 6.41406C6.26128 6.56684 6.1849 6.76128 6.1849 6.9974C6.1849 7.23351 6.26128 7.42795 6.41406 7.58073L8.83073 9.9974L6.41406 12.4141C6.26128 12.5668 6.1849 12.7613 6.1849 12.9974C6.1849 13.2335 6.26128 13.428 6.41406 13.5807C6.56684 13.7335 6.76128 13.8099 6.9974 13.8099C7.23351 13.8099 7.42795 13.7335 7.58073 13.5807L9.9974 11.1641ZM9.9974 18.3307C8.84462 18.3307 7.76128 18.1118 6.7474 17.6741C5.73351 17.2363 4.85156 16.6427 4.10156 15.8932C3.35156 15.1432 2.75795 14.2613 2.32073 13.2474C1.88351 12.2335 1.66462 11.1502 1.66406 9.9974C1.66406 8.84462 1.88295 7.76128 2.32073 6.7474C2.75851 5.73351 3.35212 4.85156 4.10156 4.10156C4.85156 3.35156 5.73351 2.75795 6.7474 2.32073C7.76128 1.88351 8.84462 1.66462 9.9974 1.66406C11.1502 1.66406 12.2335 1.88295 13.2474 2.32073C14.2613 2.75851 15.1432 3.35212 15.8932 4.10156C16.6432 4.85156 17.2371 5.73351 17.6749 6.7474C18.1127 7.76128 18.3313 8.84462 18.3307 9.9974C18.3307 11.1502 18.1118 12.2335 17.6741 13.2474C17.2363 14.2613 16.6427 15.1432 15.8932 15.8932C15.1432 16.6432 14.2613 17.2371 13.2474 17.6749C12.2335 18.1127 11.1502 18.3313 9.9974 18.3307ZM9.9974 16.6641C11.8585 16.6641 13.4349 16.0182 14.7266 14.7266C16.0182 13.4349 16.6641 11.8585 16.6641 9.9974C16.6641 8.13628 16.0182 6.5599 14.7266 5.26823C13.4349 3.97656 11.8585 3.33073 9.9974 3.33073C8.13628 3.33073 6.5599 3.97656 5.26823 5.26823C3.97656 6.5599 3.33073 8.13628 3.33073 9.9974C3.33073 11.8585 3.97656 13.4349 5.26823 14.7266C6.5599 16.0182 8.13628 16.6641 9.9974 16.6641Z" fill="currentColor"></path>
  </symbol>
  <symbol fill="none" xmlns="http://www.w3.org/2000/svg" viewBox="0 0 24 24" id="baseline-cancel">
    <path d="M12 2C6.47 2 2 6.47 2 12C2 17.53 6.47 22 12 22C17.53 22 22 17.53 22 12C22 6.47 17.53 2 12 2ZM17 15.59L15.59 17L12 13.41L8.41 17L7 15.59L10.59 12L7 8.41L8.41 7L12 10.59L15.59 7L17 8.41L13.41 12L17 15.59Z" fill="currentColor"></path>
  </symbol>
  <symbol fill="none" xmlns="http://www.w3.org/2000/svg" viewBox="0 0 24 24" id="checkmark-filled">
    <path d="M12 1.5C9.9233 1.5 7.89323 2.11581 6.16652 3.26957C4.4398 4.42332 3.09399 6.0632 2.29927 7.98182C1.50455 9.90045 1.29661 12.0116 1.70176 14.0484C2.1069 16.0852 3.10693 17.9562 4.57538 19.4246C6.04383 20.8931 7.91476 21.8931 9.95156 22.2982C11.9884 22.7034 14.0996 22.4955 16.0182 21.7007C17.9368 20.906 19.5767 19.5602 20.7304 17.8335C21.8842 16.1068 22.5 14.0767 22.5 12C22.5 9.21523 21.3938 6.54451 19.4246 4.57538C17.4555 2.60625 14.7848 1.5 12 1.5ZM10.5 16.1925L6.75 12.4425L7.9425 11.25L10.5 13.8075L16.0575 8.25L17.2545 9.4395L10.5 16.1925Z" fill="currentColor"></path>
  </symbol>
  <symbol fill="none" xmlns="http://www.w3.org/2000/svg" viewBox="0 0 20 20" id="feature-highlight">
    <path d="M7.1474 14.3724L7.91406 11.1307L5.41406 8.98073L8.70573 8.6724L9.9974 5.66406L11.2891 8.70573L14.5807 8.98073L12.0807 11.1307L12.8474 14.3724L9.9974 12.6557L7.1474 14.3724ZM9.9974 1.66406C11.0917 1.66406 12.1754 1.87961 13.1864 2.2984C14.1975 2.71719 15.1161 3.33102 15.89 4.10484C16.6638 4.87866 17.2776 5.79732 17.6964 6.80837C18.1152 7.81941 18.3307 8.90305 18.3307 9.9974C18.3307 12.2075 17.4528 14.3271 15.89 15.89C14.3271 17.4528 12.2075 18.3307 9.9974 18.3307C8.90305 18.3307 7.81941 18.1152 6.80837 17.6964C5.79732 17.2776 4.87866 16.6638 4.10484 15.89C2.54204 14.3271 1.66406 12.2075 1.66406 9.9974C1.66406 7.78726 2.54204 5.66764 4.10484 4.10484C5.66764 2.54204 7.78726 1.66406 9.9974 1.66406ZM9.9974 3.33073C8.22929 3.33073 6.53359 4.03311 5.28335 5.28335C4.03311 6.53359 3.33073 8.22929 3.33073 9.9974C3.33073 11.7655 4.03311 13.4612 5.28335 14.7114C6.53359 15.9617 8.22929 16.6641 9.9974 16.6641C11.7655 16.6641 13.4612 15.9617 14.7114 14.7114C15.9617 13.4612 16.6641 11.7655 16.6641 9.9974C16.6641 8.22929 15.9617 6.53359 14.7114 5.28335C13.4612 4.03311 11.7655 3.33073 9.9974 3.33073Z" fill="currentColor"></path>
  </symbol>
  <symbol fill="none" xmlns="http://www.w3.org/2000/svg" viewBox="0 0 20 20" id="heart-alt">
    <g clip-path="url(#clip0_613_14691)">
      <path d="M10 0C4.47715 0 0 4.47715 0 10C0 15.5229 4.47715 20 10 20C15.5229 20 20 15.5229 20 10C20 4.47715 15.5229 0 10 0ZM12.2132 5.72505C13.4014 5.70648 14.476 6.35248 14.9854 7.45378C15.4567 8.90972 15.0623 10.3909 14.2313 11.5071C13.6827 12.2641 13.0271 12.9168 12.3569 13.4872C11.7403 14.0612 10.3601 15.1971 9.9943 15.2286C9.67102 15.1668 9.30808 14.8006 9.05142 14.6125C7.60918 13.5161 6.05697 12.1834 5.26977 10.7257C4.60975 9.32618 4.60855 7.59462 5.63577 6.52167C6.96772 5.32087 8.9756 5.5559 9.9943 6.81042C10.2679 6.4555 10.6044 6.17598 11.0037 5.97263C11.4083 5.81113 11.8171 5.73125 12.2132 5.72505Z" fill="currentColor"></path>
    </g>
    <defs>
      <clipPath id="clip0_613_14691">
        <rect width="20" height="20" fill="white"></rect>
      </clipPath>
    </defs>
  </symbol>
  <symbol fill="none" xmlns="http://www.w3.org/2000/svg" viewBox="0 0 24 24" id="send">
    <path d="M20.3316 3.67106C20.1424 3.48322 19.9051 3.35118 19.6458 3.28943C19.3864 3.22768 19.1151 3.23863 18.8616 3.32106L4.23159 8.20106C3.96026 8.28703 3.72049 8.45149 3.54258 8.67365C3.36466 8.89581 3.25657 9.16572 3.23196 9.44928C3.20735 9.73284 3.26732 10.0173 3.4043 10.2668C3.54128 10.5163 3.74913 10.7196 4.00159 10.8511L10.0716 13.8511L13.0716 19.9411C13.1922 20.1794 13.3767 20.3796 13.6045 20.5191C13.8323 20.6586 14.0944 20.732 14.3616 20.7311H14.4616C14.7477 20.71 15.0208 20.6034 15.2455 20.425C15.4702 20.2467 15.6361 20.0049 15.7216 19.7311L20.6716 5.14106C20.76 4.88899 20.7749 4.617 20.7148 4.35675C20.6546 4.09651 20.5217 3.85871 20.3316 3.67106ZM4.85159 9.58106L17.6216 5.32106L10.5316 12.4111L4.85159 9.58106ZM14.4316 19.1511L11.5916 13.4711L18.6816 6.38106L14.4316 19.1511Z" fill="currentColor"></path>
  </symbol>
  <symbol fill="none" xmlns="http://www.w3.org/2000/svg" viewBox="0 0 24 24" id="comment">
    <g clip-path="url(#clip0_888_21471)">
      <path d="M16 4C16.7652 3.99996 17.5015 4.29233 18.0583 4.81728C18.615 5.34224 18.9501 6.06011 18.995 6.824L19 7V9C19.7652 8.99996 20.5015 9.29233 21.0583 9.81728C21.615 10.3422 21.9501 11.0601 21.995 11.824L22 12V16C22 16.7652 21.7077 17.5015 21.1827 18.0583C20.6578 18.615 19.9399 18.9501 19.176 18.995L19 19V19.966C19 20.986 17.857 21.56 17.046 20.999L16.95 20.927L14.638 19H11C10.2628 19.0011 9.55125 18.7297 9.002 18.238L8.862 18.104L7 19.5C6.209 20.093 5.094 19.575 5.006 18.621L5 18.5V17C4.23479 17 3.49849 16.7077 2.94174 16.1827C2.38499 15.6578 2.04989 14.9399 2.005 14.176L2 14V7C1.99996 6.23479 2.29233 5.49849 2.81728 4.94174C3.34224 4.38499 4.06011 4.04989 4.824 4.005L5 4H16ZM19 11H11C10.7348 11 10.4804 11.1054 10.2929 11.2929C10.1054 11.4804 10 11.7348 10 12V16C10 16.2652 10.1054 16.5196 10.2929 16.7071C10.4804 16.8946 10.7348 17 11 17H14.638C15.1058 17.0002 15.5587 17.1644 15.918 17.464L17.006 18.37C17.0385 17.9962 17.21 17.6481 17.4866 17.3945C17.7631 17.1408 18.1247 17.0001 18.5 17H19C19.2652 17 19.5196 16.8946 19.7071 16.7071C19.8946 16.5196 20 16.2652 20 16V12C20 11.7348 19.8946 11.4804 19.7071 11.2929C19.5196 11.1054 19.2652 11 19 11ZM16 6H5C4.73478 6 4.48043 6.10536 4.29289 6.29289C4.10536 6.48043 4 6.73478 4 7V14C4 14.2652 4.10536 14.5196 4.29289 14.7071C4.48043 14.8946 4.73478 15 5 15H5.5C5.89782 15 6.27936 15.158 6.56066 15.4393C6.84196 15.7206 7 16.1022 7 16.5V17L8.01 16.243C8.00343 16.1622 8.00009 16.0811 8 16V12C8 11.2044 8.31607 10.4413 8.87868 9.87868C9.44129 9.31607 10.2044 9 11 9H17V7C17 6.73478 16.8946 6.48043 16.7071 6.29289C16.5196 6.10536 16.2652 6 16 6Z" fill="currentColor" fill-opacity="0.7"></path>
    </g>
    <defs>
      <clipPath id="clip0_888_21471">
        <rect width="24" height="24" fill="white"></rect>
      </clipPath>
    </defs>
  </symbol>
  <symbol fill="none" xmlns="http://www.w3.org/2000/svg" viewBox="0 0 24 24" id="articles">
    <g clip-path="url(#clip0_712_13445)">
      <path d="M8.4 0C7.76348 0 7.15303 0.252856 6.70294 0.702944C6.25286 1.15303 6 1.76348 6 2.4H16.8C17.4365 2.4 18.047 2.65286 18.4971 3.10294C18.9471 3.55303 19.2 4.16348 19.2 4.8V19.2C19.8365 19.2 20.447 18.9471 20.8971 18.4971C21.3471 18.047 21.6 17.4365 21.6 16.8V2.4C21.6 1.76348 21.3471 1.15303 20.8971 0.702944C20.447 0.252856 19.8365 0 19.2 0L8.4 0Z" fill="currentColor"></path>
      <path d="M15.5984 24.0016C16.235 24.0016 16.8454 23.7487 17.2955 23.2986C17.7456 22.8485 17.9984 22.2381 17.9984 21.6016V6.00156C17.9984 5.36504 17.7456 4.75459 17.2955 4.30451C16.8454 3.85442 16.235 3.60156 15.5984 3.60156H4.79844C4.16192 3.60156 3.55147 3.85442 3.10138 4.30451C2.65129 4.75459 2.39844 5.36504 2.39844 6.00156V21.6016C2.39844 22.2381 2.65129 22.8485 3.10138 23.2986C3.55147 23.7487 4.16192 24.0016 4.79844 24.0016H15.5984ZM10.7984 6.00156H15.5984V12.0016H10.7984V6.00156ZM4.79844 6.00156H9.59844V7.20156H4.79844V6.00156ZM4.79844 8.40156H9.59844V9.60156H4.79844V8.40156ZM4.79844 10.8016H9.59844V12.0016H4.79844V10.8016ZM4.79844 13.2016H15.5984V14.4016H4.79844V13.2016ZM4.79844 15.6016H15.5984V16.8016H4.79844V15.6016ZM4.79844 18.0016H15.5984V19.2016H4.79844V18.0016Z" fill="currentColor"></path>
    </g>
    <defs>
      <clipPath id="clip0_712_13445">
        <rect width="24" height="24" fill="white"></rect>
      </clipPath>
    </defs>
  </symbol>
  <symbol fill="none" xmlns="http://www.w3.org/2000/svg" viewBox="0 0 20 21" id="lock">
    <path d="M7.69076 8H5.99886C5.06544 8 4.59838 8 4.24186 8.18166C3.92826 8.34144 3.67348 8.59623 3.51369 8.90983C3.33203 9.26635 3.33203 9.73341 3.33203 10.6668V15.3335C3.33203 16.2669 3.33203 16.7334 3.51369 17.0899C3.67348 17.4035 3.92826 17.6587 4.24186 17.8185C4.59803 18 5.06455 18 5.99615 18H14.0013C14.9329 18 15.3987 18 15.7549 17.8185C16.0685 17.6587 16.3241 17.4035 16.4839 17.0899C16.6654 16.7337 16.6654 16.2679 16.6654 15.3363V10.6641C16.6654 9.73249 16.6654 9.266 16.4839 8.90983C16.3241 8.59623 16.0685 8.34144 15.7549 8.18166C15.3983 8 14.9323 8 13.9989 8H12.3061M7.69076 8H12.3061M7.69076 8C7.58455 8 7.4987 7.9139 7.4987 7.80769V5.5C7.4987 4.11929 8.61799 3 9.9987 3C11.3794 3 12.4987 4.11929 12.4987 5.5V7.80769C12.4987 7.9139 12.4123 8 12.3061 8" stroke="currentColor" stroke-width="2" stroke-linecap="round" stroke-linejoin="round"></path>
  </symbol>
  <symbol fill="none" xmlns="http://www.w3.org/2000/svg" viewBox="0 0 24 24" id="tag">
    <path d="M20 10V8H16V4H14V8H10V4H8V8H4V10H8V14H4V16H8V20H10V16H14V20H16V16H20V14H16V10H20ZM14 14H10V10H14V14Z" fill="currentColor"></path>
  </symbol>
  <symbol fill="none" xmlns="http://www.w3.org/2000/svg" viewBox="0 0 24 24" id="travel-explore">
    <path d="M19.3 16.9C19.7 16.2 20 15.4 20 14.5C20 12 18 10 15.5 10C13 10 11 12 11 14.5C11 17 13 19 15.5 19C16.4 19 17.2 18.7 17.9 18.3L21.1 21.5L22.5 20.1L19.3 16.9ZM15.5 17C14.1 17 13 15.9 13 14.5C13 13.1 14.1 12 15.5 12C16.9 12 18 13.1 18 14.5C18 15.9 16.9 17 15.5 17ZM12 20V22C6.48 22 2 17.52 2 12C2 6.48 6.48 2 12 2C16.84 2 20.87 5.44 21.8 10H19.73C19.4181 8.79184 18.8279 7.67338 18.0066 6.73401C17.1853 5.79465 16.1557 5.06042 15 4.59V5C15 6.1 14.1 7 13 7H11V9C11 9.55 10.55 10 10 10H8V12H10V15H9L4.21 10.21C4.08 10.79 4 11.38 4 12C4 16.41 7.59 20 12 20Z" fill="currentColor"></path>
  </symbol>
  <symbol fill="none" xmlns="http://www.w3.org/2000/svg" viewBox="0 0 24 25" id="log-out">
    <path d="M12 15.5L15 12.5M15 12.5L12 9.5M15 12.5H4M9 7.74859V7.7002C9 6.58009 9 6.01962 9.21799 5.5918C9.40973 5.21547 9.71547 4.90973 10.0918 4.71799C10.5196 4.5 11.0801 4.5 12.2002 4.5H16.8002C17.9203 4.5 18.4796 4.5 18.9074 4.71799C19.2837 4.90973 19.5905 5.21547 19.7822 5.5918C20 6.0192 20 6.57899 20 7.69691V17.3036C20 18.4215 20 18.9805 19.7822 19.4079C19.5905 19.7842 19.2837 20.0905 18.9074 20.2822C18.48 20.5 17.921 20.5 16.8031 20.5H12.1969C11.079 20.5 10.5192 20.5 10.0918 20.2822C9.71547 20.0905 9.40973 19.7839 9.21799 19.4076C9 18.9798 9 18.4201 9 17.3V17.25" stroke="currentColor" stroke-width="2" stroke-linecap="round" stroke-linejoin="round"></path>
  </symbol>
  <symbol fill="none" xmlns="http://www.w3.org/2000/svg" viewBox="0 0 20 20" id="bus-card">
    <path fill-rule="evenodd" clip-rule="evenodd" d="M10.0013 1.66406C6.8588 1.66406 5.28714 1.66406 4.3113 2.64073C3.42464 3.52656 3.34297 4.9024 3.33464 7.4974H2.5013C2.28029 7.4974 2.06833 7.58519 1.91205 7.74147C1.75577 7.89775 1.66797 8.10972 1.66797 8.33073V9.16406C1.66797 9.29343 1.69809 9.42103 1.75595 9.53674C1.8138 9.65245 1.89781 9.75311 2.0013 9.83073L3.33464 10.8307C3.34297 13.4257 3.42464 14.8016 4.3113 15.6874C4.51297 15.8899 4.73964 16.0499 5.0013 16.1766V17.4974C5.0013 17.7184 5.0891 17.9304 5.24538 18.0867C5.40166 18.2429 5.61362 18.3307 5.83464 18.3307H7.08464C7.30565 18.3307 7.51761 18.2429 7.67389 18.0867C7.83017 17.9304 7.91797 17.7184 7.91797 17.4974V16.6491C8.5238 16.6641 9.21297 16.6641 10.0013 16.6641C10.7896 16.6641 11.4788 16.6641 12.0846 16.6491V17.4974C12.0846 17.7184 12.1724 17.9304 12.3287 18.0867C12.485 18.2429 12.697 18.3307 12.918 18.3307H14.168C14.389 18.3307 14.6009 18.2429 14.7572 18.0867C14.9135 17.9304 15.0013 17.7184 15.0013 17.4974V16.1766C15.2573 16.0536 15.4905 15.8882 15.6913 15.6874C16.578 14.8016 16.6605 13.4257 16.668 10.8307L18.0013 9.83073C18.1048 9.75311 18.1888 9.65245 18.2467 9.53674C18.3045 9.42103 18.3346 9.29343 18.3346 9.16406V8.33073C18.3346 8.10972 18.2468 7.89775 18.0906 7.74147C17.9343 7.58519 17.7223 7.4974 17.5013 7.4974H16.668C16.6596 4.9024 16.578 3.52656 15.6913 2.64073C14.7155 1.66406 13.1438 1.66406 10.0013 1.66406ZM4.58464 7.91406C4.58464 9.0924 4.58464 9.68156 4.9513 10.0474C5.31714 10.4141 5.9063 10.4141 7.08464 10.4141H12.918C14.0963 10.4141 14.6855 10.4141 15.0513 10.0474C15.418 9.68156 15.418 9.0924 15.418 7.91406V5.83073C15.418 4.6524 15.418 4.06323 15.0513 3.6974C14.6863 3.33073 14.0971 3.33073 12.918 3.33073H7.08464C5.9063 3.33073 5.31714 3.33073 4.9513 3.6974C4.58464 4.0624 4.58464 4.65156 4.58464 5.83073V7.91406ZM5.20964 13.3307C5.20964 13.165 5.27548 13.006 5.39269 12.8888C5.5099 12.7716 5.66888 12.7057 5.83464 12.7057H7.08464C7.2504 12.7057 7.40937 12.7716 7.52658 12.8888C7.64379 13.006 7.70964 13.165 7.70964 13.3307C7.70964 13.4965 7.64379 13.6555 7.52658 13.7727C7.40937 13.8899 7.2504 13.9557 7.08464 13.9557H5.83464C5.66888 13.9557 5.5099 13.8899 5.39269 13.7727C5.27548 13.6555 5.20964 13.4965 5.20964 13.3307ZM14.793 13.3307C14.793 13.165 14.7271 13.006 14.6099 12.8888C14.4927 12.7716 14.3337 12.7057 14.168 12.7057H12.918C12.7522 12.7057 12.5932 12.7716 12.476 12.8888C12.3588 13.006 12.293 13.165 12.293 13.3307C12.293 13.4965 12.3588 13.6555 12.476 13.7727C12.5932 13.8899 12.7522 13.9557 12.918 13.9557H14.168C14.3337 13.9557 14.4927 13.8899 14.6099 13.7727C14.7271 13.6555 14.793 13.4965 14.793 13.3307Z" fill="currentColor"></path>
  </symbol>
  <symbol fill="none" xmlns="http://www.w3.org/2000/svg" viewBox="0 0 20 20" id="bus-clock">
    <g clip-path="url(#clip0_830_1385)">
      <path d="M13.7487 3.33594V6.8776L16.132 8.28594L15.507 9.3026L12.4987 7.5026V3.33594H13.7487ZM13.332 10.8359C14.4654 10.8359 15.4487 10.4193 16.2487 9.61094C17.082 8.8026 17.4987 7.8276 17.4987 6.66927C17.4987 5.53594 17.082 4.5526 16.2487 3.7526C15.4487 2.91927 14.4654 2.5026 13.332 2.5026C12.1737 2.5026 11.1987 2.91927 10.3904 3.7526C9.58203 4.5526 9.16537 5.53594 9.16537 6.66927C9.16537 7.8276 9.58203 8.8026 10.3904 9.61094C11.1987 10.4193 12.1737 10.8359 13.332 10.8359ZM11.2487 15.8359C11.6154 15.8359 11.9154 15.7026 12.1487 15.4526C12.382 15.2026 12.4987 14.9109 12.4987 14.5859C12.4987 14.2359 12.382 13.9443 12.1487 13.6943C11.9154 13.4443 11.6154 13.3359 11.2487 13.3359C10.882 13.3359 10.582 13.4443 10.3487 13.6943C10.1154 13.9443 9.9987 14.2359 9.9987 14.5859C9.9987 14.9109 10.1154 15.2026 10.3487 15.4526C10.582 15.7026 10.882 15.8359 11.2487 15.8359ZM2.4987 10.8359H9.25703C8.08203 9.7026 7.4987 8.33594 7.4987 6.66927H2.4987V10.8359ZM3.7487 15.8359C4.11536 15.8359 4.41536 15.7026 4.6487 15.4526C4.88203 15.2026 4.9987 14.9109 4.9987 14.5859C4.9987 14.2359 4.88203 13.9443 4.6487 13.6943C4.41536 13.4443 4.11536 13.3359 3.7487 13.3359C3.38203 13.3359 3.08203 13.4443 2.8487 13.6943C2.61536 13.9443 2.4987 14.2359 2.4987 14.5859C2.4987 14.9109 2.61536 15.2026 2.8487 15.4526C3.08203 15.7026 3.38203 15.8359 3.7487 15.8359ZM13.332 0.835938C14.932 0.835938 16.3154 1.39427 17.457 2.54427C18.607 3.68594 19.1654 5.06927 19.1654 6.66927C19.1654 8.14427 18.6987 9.41094 17.732 10.4943C16.7737 11.5693 15.582 12.2193 14.1654 12.4276V15.0026C14.1654 15.7026 13.8904 16.3193 13.332 16.8359V18.3359C13.332 18.5609 13.2404 18.7526 13.082 18.9276C12.9154 19.0943 12.732 19.1693 12.4987 19.1693H11.6654C11.4404 19.1693 11.2487 19.0943 11.0737 18.9276C10.9958 18.8502 10.9342 18.758 10.8927 18.6563C10.8512 18.5547 10.8306 18.4457 10.832 18.3359V17.5026H4.16536V18.3359C4.16536 18.5609 4.09036 18.7526 3.9237 18.9276C3.7487 19.0943 3.55703 19.1693 3.33203 19.1693H2.4987C2.26536 19.1693 2.08203 19.0943 1.91536 18.9276C1.75703 18.7526 1.66536 18.5609 1.66536 18.3359V16.8359C1.10703 16.3193 0.832031 15.7026 0.832031 15.0026V6.66927C0.832031 5.3526 1.39036 4.46094 2.54036 4.0026C3.68203 3.5526 5.34036 3.33594 7.4987 3.33594H8.00703C8.24036 3.33594 8.40703 3.36094 8.51537 3.36094C9.69036 1.66927 11.2904 0.835938 13.332 0.835938Z" fill="currentColor"></path>
    </g>
    <defs>
      <clipPath id="clip0_830_1385">
        <rect width="20" height="20" fill="white"></rect>
      </clipPath>
    </defs>
  </symbol>
  <symbol fill="none" xmlns="http://www.w3.org/2000/svg" viewBox="0 0 24 24" id="movement">
    <path d="M18 15L16.9425 16.0575L19.6275 18.75H7.5C6.70435 18.75 5.94129 18.4339 5.37868 17.8713C4.81607 17.3087 4.5 16.5456 4.5 15.75C4.5 14.9544 4.81607 14.1913 5.37868 13.6287C5.94129 13.0661 6.70435 12.75 7.5 12.75H16.5C17.6935 12.75 18.8381 12.2759 19.682 11.432C20.5259 10.5881 21 9.44347 21 8.25C21 7.05653 20.5259 5.91193 19.682 5.06802C18.8381 4.22411 17.6935 3.75 16.5 3.75H4.3725L7.0575 1.0575L6 0L1.5 4.5L6 9L7.0575 7.9425L4.3725 5.25H16.5C17.2956 5.25 18.0587 5.56607 18.6213 6.12868C19.1839 6.69129 19.5 7.45435 19.5 8.25C19.5 9.04565 19.1839 9.80871 18.6213 10.3713C18.0587 10.9339 17.2956 11.25 16.5 11.25H7.5C6.30653 11.25 5.16193 11.7241 4.31802 12.568C3.47411 13.4119 3 14.5565 3 15.75C3 16.9435 3.47411 18.0881 4.31802 18.932C5.16193 19.7759 6.30653 20.25 7.5 20.25H19.6275L16.9425 22.9425L18 24L22.5 19.5L18 15Z" fill="currentColor"></path>
  </symbol>
  <symbol fill="none" xmlns="http://www.w3.org/2000/svg" viewBox="0 0 48 48" id="earth">
    <path d="M24 44C35.046 44 44 35.046 44 24C44 12.954 35.046 4 24 4C12.954 4 4 12.954 4 24C4 35.046 12.954 44 24 44Z" stroke="currentColor" stroke-width="3" stroke-linecap="round" stroke-linejoin="round"></path>
    <path d="M4 24H44" stroke="currentColor" stroke-width="3" stroke-linecap="round" stroke-linejoin="round"></path>
    <path d="M24 44C28.418 44 32 35.046 32 24C32 12.954 28.418 4 24 4C19.582 4 16 12.954 16 24C16 35.046 19.582 44 24 44Z" stroke="currentColor" stroke-width="3" stroke-linecap="round" stroke-linejoin="round"></path>
    <path d="M9.85938 10.1406C11.7144 12.0006 13.9188 13.4756 16.3458 14.4809C18.7727 15.4863 21.3744 16.002 24.0014 15.9986C26.6283 16.002 29.23 15.4863 31.657 14.4809C34.0839 13.4756 36.2883 12.0006 38.1434 10.1406M38.1434 37.8566C36.2883 35.9967 34.0839 34.5216 31.657 33.5163C29.23 32.511 26.6283 31.9952 24.0014 31.9986C21.3744 31.9952 18.7727 32.511 16.3458 33.5163C13.9188 34.5216 11.7144 35.9967 9.85938 37.8566" stroke="currentColor" stroke-width="3" stroke-linecap="round" stroke-linejoin="round"></path>
  </symbol>
  <symbol fill="none" xmlns="http://www.w3.org/2000/svg" viewBox="0 0 100 104" id="sand-clock">
    <g filter="url(#filter0_d_844_7794)">
      <path d="M54.1693 27H45.8359V31.1667C45.8359 32.2717 46.2749 33.3315 47.0563 34.1129C47.8377 34.8943 48.8975 35.3333 50.0026 35.3333C51.1077 35.3333 52.1675 34.8943 52.9489 34.1129C53.7303 33.3315 54.1693 32.2717 54.1693 31.1667V27Z" fill="white"></path>
      <path fill-rule="evenodd" clip-rule="evenodd" d="M25 10.3359V18.6693H29.1667V31.1693C29.1667 36.6946 31.3616 41.9937 35.2686 45.9007C39.1756 49.8077 44.4747 52.0026 50 52.0026C44.4747 52.0026 39.1756 54.1975 35.2686 58.1045C31.3616 62.0116 29.1667 67.3106 29.1667 72.8359V85.3359H25V93.6693H75V85.3359H70.8333V72.8359C70.8333 67.3106 68.6384 62.0116 64.7314 58.1045C60.8244 54.1975 55.5253 52.0026 50 52.0026C52.7359 52.0026 55.445 51.4637 57.9726 50.4168C60.5002 49.3698 62.7968 47.8352 64.7314 45.9007C66.6659 43.9661 68.2005 41.6695 69.2475 39.1418C70.2945 36.6142 70.8333 33.9051 70.8333 31.1693V18.6693H75V10.3359H25ZM37.5 18.6693H62.5V31.1693C62.5 34.4845 61.183 37.6639 58.8388 40.0081C56.4946 42.3523 53.3152 43.6693 50 43.6693C46.6848 43.6693 43.5054 42.3523 41.1612 40.0081C38.817 37.6639 37.5 34.4845 37.5 31.1693V18.6693ZM37.5 72.8359V85.3359H62.5V72.8359C62.5 69.5207 61.183 66.3413 58.8388 63.9971C56.4946 61.6529 53.3152 60.3359 50 60.3359C46.6848 60.3359 43.5054 61.6529 41.1612 63.9971C38.817 66.3413 37.5 69.5207 37.5 72.8359Z" fill="white"></path>
    </g>
    <defs>
      <filter id="filter0_d_844_7794" x="-10" y="-8" width="120" height="120" filterUnits="userSpaceOnUse" color-interpolation-filters="sRGB">
        <feFlood flood-opacity="0" result="BackgroundImageFix"></feFlood>
        <feColorMatrix in="SourceAlpha" type="matrix" values="0 0 0 0 0 0 0 0 0 0 0 0 0 0 0 0 0 0 127 0" result="hardAlpha"></feColorMatrix>
        <feOffset></feOffset>
        <feGaussianBlur stdDeviation="5"></feGaussianBlur>
        <feComposite in2="hardAlpha" operator="out"></feComposite>
        <feColorMatrix type="matrix" values="0 0 0 0 0 0 0 0 0 0 0 0 0 0 0 0 0 0 0.8 0"></feColorMatrix>
        <feBlend mode="normal" in2="BackgroundImageFix" result="effect1_dropShadow_844_7794"></feBlend>
        <feBlend mode="normal" in="SourceGraphic" in2="effect1_dropShadow_844_7794" result="shape"></feBlend>
      </filter>
    </defs>
  </symbol>
  <symbol fill="none" xmlns="http://www.w3.org/2000/svg" viewBox="0 0 20 21" id="update">
    <path d="M9.16826 7.79094V10.8576C9.16826 11.1493 9.32659 11.4243 9.57659 11.5743L12.1766 13.1159C12.4766 13.2909 12.8599 13.1909 13.0349 12.8993C13.2099 12.5993 13.1183 12.2159 12.8183 12.0409L10.4266 10.6159V7.78261C10.4183 7.44928 10.1349 7.16594 9.79326 7.16594C9.45159 7.16594 9.16826 7.44928 9.16826 7.79094ZM17.5016 8.41594V4.00761C17.5016 3.63261 17.0516 3.44928 16.7933 3.71594L15.3099 5.19928C14.5293 4.41862 13.5862 3.81971 12.5476 3.44521C11.5091 3.07071 10.4008 2.92983 9.30159 3.03261C5.80993 3.34928 2.93493 6.15761 2.55159 9.64928C2.34896 11.6071 2.92408 13.5661 4.15288 15.1037C5.38167 16.6412 7.16565 17.6342 9.11996 17.8682C11.0743 18.1022 13.0423 17.5586 14.5994 16.3547C16.1565 15.1507 17.1779 13.3829 17.4433 11.4326C17.5016 10.9326 17.1099 10.4993 16.6099 10.4993C16.1933 10.4993 15.8433 10.8076 15.7933 11.2159C15.4349 14.1243 12.9266 16.3743 9.91826 16.3326C6.82659 16.2909 4.21826 13.6826 4.16826 10.5826C4.11826 7.33261 6.75993 4.66594 10.0016 4.66594C11.6099 4.66594 13.0683 5.32428 14.1266 6.37428L12.3849 8.11594C12.1183 8.38261 12.3016 8.83261 12.6766 8.83261H17.0849C17.3183 8.83261 17.5016 8.64928 17.5016 8.41594Z" fill="currentColor"></path>
  </symbol>
  <symbol fill="none" xmlns="http://www.w3.org/2000/svg" viewBox="0 0 20 21" id="publish">
    <path d="M9.16536 17.1693V10.3776L6.9987 12.5443L5.83203 11.3359L9.9987 7.16927L14.1654 11.3359L12.9987 12.5443L10.832 10.3776V17.1693H9.16536ZM3.33203 8.0026V5.5026C3.33203 5.04427 3.49536 4.65205 3.82203 4.32594C4.1487 3.99983 4.54092 3.83649 4.9987 3.83594H14.9987C15.457 3.83594 15.8495 3.99927 16.1762 4.32594C16.5029 4.6526 16.6659 5.04483 16.6654 5.5026V8.0026H14.9987V5.5026H4.9987V8.0026H3.33203Z" fill="currentColor"></path>
  </symbol>
  <symbol fill="none" xmlns="http://www.w3.org/2000/svg" viewBox="0 0 20 20" id="write">
    <path d="M6.43464 13.7167L7.90214 13.2934L16.738 4.3517C16.8077 4.28028 16.8465 4.18432 16.846 4.08453C16.8455 3.98474 16.8058 3.88913 16.7355 3.81837L16.2063 3.28337C16.1721 3.24824 16.1313 3.22026 16.0861 3.20109C16.041 3.18191 15.9925 3.17191 15.9435 3.17168C15.8945 3.17145 15.8459 3.18098 15.8006 3.19973C15.7553 3.21848 15.7142 3.24606 15.6796 3.28087L6.86714 12.1992L6.43464 13.7167ZM17.2538 2.22337L17.783 2.7592C18.513 3.49837 18.5196 4.69087 17.7963 5.42254L8.6913 14.6375L5.55464 15.5409C5.36313 15.5945 5.15819 15.5699 4.98477 15.4726C4.81135 15.3752 4.68363 15.2131 4.62964 15.0217C4.58945 14.8841 4.58888 14.738 4.62797 14.6L5.54047 11.4L14.6213 2.2092C14.794 2.03534 14.9995 1.89759 15.226 1.804C15.4525 1.71041 15.6953 1.66285 15.9403 1.66409C16.1854 1.66533 16.4277 1.71535 16.6532 1.81123C16.8787 1.90711 17.0829 2.04776 17.2538 2.22337ZM7.65464 3.1842C8.06797 3.1842 8.40297 3.52337 8.40297 3.9417C8.40363 4.04059 8.38479 4.13864 8.34753 4.23025C8.31027 4.32185 8.25531 4.40521 8.18581 4.47556C8.11631 4.54592 8.03363 4.60188 7.94248 4.64025C7.85134 4.67863 7.75353 4.69866 7.65464 4.6992H4.6613C3.83464 4.6992 3.16464 5.37754 3.16464 6.21337V15.3017C3.16464 16.1384 3.83464 16.8167 4.6613 16.8167H13.6413C14.468 16.8167 15.1388 16.1384 15.1388 15.3017V12.2725C15.1388 11.8542 15.4738 11.515 15.8871 11.515C16.3005 11.515 16.6355 11.8542 16.6355 12.2734V15.3017C16.6355 16.975 15.2946 18.3317 13.6413 18.3317H4.6613C3.00797 18.3317 1.66797 16.975 1.66797 15.3017V6.21337C1.66797 4.54087 3.00797 3.1842 4.6613 3.1842H7.65464Z" fill="currentColor"></path>
  </symbol>
</svg>
