<svg width="25" height="24" viewBox="0 0 25 24" fill="none" xmlns="http://www.w3.org/2000/svg">
<g clip-path="url(#clip0_623_21626)">
<path d="M14.8127 9.09991C14.6751 8.7098 14.4198 8.372 14.082 8.13312C13.7443 7.89424 13.3407 7.76604 12.927 7.7662H11.379C10.9374 7.76388 10.5106 7.92541 10.1811 8.21954C9.85171 8.51368 9.64303 8.91952 9.59548 9.35859C9.54792 9.79766 9.66487 10.2388 9.9237 10.5966C10.1825 10.9545 10.5648 11.2036 10.9967 11.2959L13.3539 11.8102C13.8359 11.9157 14.2618 12.1956 14.55 12.5961C14.8381 12.9966 14.9681 13.4895 14.915 13.98C14.8618 14.4705 14.6293 14.9241 14.262 15.2536C13.8948 15.5831 13.4187 15.7652 12.9253 15.7651H11.5933C10.7224 15.7651 9.98188 15.2096 9.70759 14.4331M12.2602 7.7662V5.76562M12.2602 17.7656V15.7668M3.92188 23.1416V18.8559H8.20759" stroke="currentColor" stroke-width="1.42857" stroke-linecap="round" stroke-linejoin="round"/>
<path d="M23.4443 9.94828C23.8994 12.3744 23.5361 14.8829 22.4113 17.0801C21.2865 19.2774 19.464 21.0389 17.2298 22.0884C14.9956 23.1378 12.4762 23.4157 10.067 22.8784C7.65779 22.3411 5.49518 21.019 3.9186 19.1197M1.5426 14.0489C1.0875 11.6228 1.45085 9.11425 2.57561 6.91701C3.70037 4.71976 5.52288 2.95818 7.75709 1.90876C9.99129 0.859326 12.5107 0.581456 14.9199 1.11876C17.3291 1.65606 19.4917 2.97811 21.0683 4.87742" stroke="currentColor" stroke-width="1.42857" stroke-linecap="round" stroke-linejoin="round"/>
<path d="M21.067 0.859375V5.14509H16.7812" stroke="currentColor" stroke-width="1.42857" stroke-linecap="round" stroke-linejoin="round"/>
</g>
<defs>
<clipPath id="clip0_623_21626">
<rect width="24" height="24" fill="white" transform="translate(0.492188)"/>
</clipPath>
</defs>
</svg>
