<svg width="49" height="48" viewBox="0 0 49 48" fill="none" xmlns="http://www.w3.org/2000/svg">
<path d="M21.6682 3.03205C21.2974 3.03073 20.9255 3.03111 20.5526 3.0327C18.7575 3.04105 16.9338 3.0882 15.0945 3.15645L15.6267 5.49017C17.5421 5.27361 19.642 5.11236 21.7417 5.03173C22.8792 4.98805 24.0099 4.96498 25.1066 4.9708C28.3967 4.98795 31.3819 5.26423 33.335 6.02098L34.1701 6.3448L33.7973 7.15901C31.0728 13.1107 30.4427 18.8526 30.8697 24.4865C31.0804 17.8004 33.8596 11.8536 37.5081 4.23008C32.5435 3.40508 27.2299 3.05051 21.6682 3.03195V3.03205ZM24.2964 6.66861C23.477 6.66926 22.6417 6.68586 21.8065 6.71792C17.8997 6.86792 14.0066 7.32636 11.4692 7.85192C14.3036 13.1093 16.5964 18.3788 18.077 23.5159C18.2612 23.5097 18.4455 23.5111 18.6296 23.5201C19.0062 23.5385 19.3788 23.5896 19.7428 23.6691C18.2358 18.8507 16.5192 14.4066 14.3854 9.96936L13.9032 8.9668L14.9988 8.77292C17.7509 8.28561 20.5916 8.09698 23.2951 8.09614C23.4753 8.09614 23.6551 8.0968 23.834 8.09839C25.5519 8.11339 27.2075 8.20226 28.7414 8.33605L29.7778 8.42651L29.4755 9.42186C27.7224 15.1934 27.379 21.3917 28.3702 27.2889C28.3867 27.3042 28.4034 27.3194 28.4195 27.3349C28.777 27.2096 29.1114 27.0819 29.4231 26.9454C28.6493 20.6272 28.9921 14.1089 31.8821 7.33283C30.2694 6.92192 27.811 6.70714 25.1097 6.67339C24.8386 6.67004 24.5675 6.66838 24.2964 6.66861ZM37.885 7.36095C34.9828 13.5068 32.9216 18.4319 32.5837 23.7487C34.4622 17.486 38.0933 11.872 42.2309 8.26517C40.7947 7.90692 39.3449 7.60528 37.885 7.36095ZM10.2324 9.09804C8.47362 9.46067 6.75556 9.92098 5.09375 10.557C5.90244 11.2582 7.36438 12.5628 9.13812 14.2966C9.9545 13.4563 10.7871 12.6261 11.6555 11.8713C11.1955 10.9395 10.7211 10.015 10.2324 9.09804ZM23.547 9.79948C22.2702 9.79329 20.9631 9.82986 19.6513 9.9207C19.5137 11.2034 18.7551 12.4034 17.849 13.5835C19.2957 17.0025 20.5451 20.4913 21.6699 24.1955C23.3925 24.7036 25.0968 25.3042 26.4774 26.024C25.9646 22.0435 26.0347 17.9649 26.7005 13.9763C25.4925 12.7285 24.8633 11.3429 24.8128 9.81945C24.391 9.80821 23.969 9.80155 23.547 9.79948ZM40.6112 12.3293C38.2928 15.0762 36.2499 18.5165 34.8578 22.2586C37.4138 18.6228 40.5568 15.7868 43.9025 13.7836C42.8125 13.2829 41.7153 12.7981 40.6112 12.3293ZM12.4168 13.4505C11.0487 14.6869 9.69678 16.1708 8.28894 17.5846C11.316 19.3837 13.8943 21.5144 15.9976 23.9277C16.1282 23.8784 16.2601 23.834 16.3928 23.7936C15.4086 20.4096 14.0598 16.9468 12.4168 13.4505ZM34.2969 25.146C32.7597 27.0011 31.3124 27.9805 29.3197 28.7619C29.5438 29.6263 29.2109 30.6186 28.4446 31.3776C27.9939 31.824 27.4274 32.3328 26.5992 32.6634C26.7187 32.7342 26.8407 32.8007 26.9649 32.8628C28.124 33.4413 30.1718 33.2547 32.0742 32.3895C33.9708 31.527 35.6651 30.0371 36.293 28.5278C36.6077 27.6794 36.383 27.2369 35.832 26.588C35.4398 26.1262 34.8669 25.6608 34.2969 25.1461V25.146ZM18.352 25.2009C17.3474 25.1917 16.3272 25.4816 15.4842 26.1159C14.2851 27.0181 13.3607 28.6269 13.3525 31.3597V31.3785L13.3515 31.3972C13.0778 37.1517 13.5015 39.8066 14.3411 41.2471C15.0821 42.5185 16.3145 43.1271 18.1173 44.2465C18.2032 44.021 18.2926 43.7435 18.3765 43.3936C18.59 42.503 18.7666 41.28 18.8786 39.9272C19.1025 37.2217 19.0698 33.9731 18.6953 31.6355L18.4974 30.3989L19.7176 30.6797C22.6815 31.3615 24.377 31.442 25.3614 31.2684C26.3459 31.0946 26.6796 30.7506 27.2571 30.1787C27.7999 29.6413 27.7898 29.4479 27.6748 29.1455C27.5598 28.8429 27.0984 28.3444 26.3155 27.8674C24.7496 26.9134 22.0887 26.0288 19.6017 25.3692C19.1937 25.2612 18.7739 25.2047 18.352 25.2009ZM36.0801 31.7087C35.1414 32.6231 33.9862 33.3738 32.7729 33.9256C30.8057 34.8201 28.642 35.2294 26.8468 34.6337C26.2131 34.8695 25.8449 35.1406 25.6592 35.3649C25.4044 35.6728 25.3885 35.8993 25.4748 36.2237C25.5611 36.548 25.8184 36.9332 26.1366 37.2103C26.4547 37.4874 26.8328 37.6314 26.9765 37.6382C31.3634 37.8465 33.2621 36.5875 35.6275 35.1273C36.3173 34.7015 36.5813 33.8389 36.5152 32.9775C36.4821 32.5468 36.3567 32.1421 36.2121 31.8872C36.1761 31.8221 36.1318 31.7621 36.0801 31.7087ZM20.5001 32.5614C20.7557 34.9115 20.7599 37.6534 20.5602 40.0664C20.4433 41.4794 20.2626 42.7644 20.0175 43.7869C19.9109 44.2318 19.7937 44.6263 19.6519 44.9736L33.4047 44.3675C33.2495 43.7911 33.0912 43.2122 32.9331 42.633C32.4047 42.8089 31.8646 42.9474 31.3168 43.0477L31.321 43.1162L30.5413 43.1647C30.0612 43.2223 29.5615 43.2541 29.0429 43.2577L21.1811 43.7462L21.4148 42.658C22.1598 39.1887 22.2285 36.134 21.769 32.7923C21.3445 32.7236 20.9214 32.6466 20.5 32.5614H20.5001ZM23.4974 33.0005C23.8676 35.9943 23.823 38.8515 23.2719 41.9255L25.0779 41.8134C24.7947 41.3955 24.6 40.924 24.506 40.428C24.3845 39.783 24.4521 39.065 24.8741 38.4714C24.8927 38.4451 24.9129 38.4199 24.9328 38.3945C24.441 37.9402 24.0302 37.3574 23.844 36.6578C23.6458 35.9131 23.7696 35.0013 24.3594 34.2888C24.5543 34.0535 24.7899 33.841 25.0665 33.6498C24.8218 33.4548 24.6073 33.248 24.4221 33.0327C24.1348 33.0347 23.8272 33.024 23.4974 33.0005ZM35.9349 36.9179C33.7359 38.2541 31.2652 39.5313 26.8964 39.3239C26.7538 39.3169 26.6121 39.2976 26.4729 39.2662C26.3573 39.3181 26.2956 39.384 26.2496 39.4488C26.1593 39.5758 26.1059 39.805 26.1643 40.1156C26.2813 40.7369 26.8698 41.4177 27.4178 41.4814C31.2976 41.9327 33.9783 40.6634 35.606 39.1867C36.356 38.5063 36.3624 38.0711 36.2519 37.5976C36.1966 37.361 36.0747 37.1317 35.9349 36.9179ZM35.3083 41.5174C35.0479 41.6807 34.7805 41.8327 34.5071 41.9731C34.6617 42.5404 34.8168 43.1076 34.9699 43.675L36.8374 43.3401C36.3555 42.9289 35.9785 42.5007 35.6758 42.0749C35.5407 41.8847 35.4215 41.6998 35.3083 41.5174Z" fill="#F7931E"/>
</svg>
