<svg width="24" height="25" viewBox="0 0 24 25" fill="none" xmlns="http://www.w3.org/2000/svg">
<path d="M22 5.68001L10.59 17.1L6.35 12.86L7.76 11.45L10.59 14.28L20.59 4.28001L22 5.68001ZM19.79 10.72C19.92 11.29 20 11.89 20 12.5C20 16.92 16.42 20.5 12 20.5C7.58 20.5 4 16.92 4 12.5C4 8.08001 7.58 4.50001 12 4.50001C13.58 4.50001 15.04 4.96001 16.28 5.75001L17.72 4.31001C16.0464 3.12956 14.048 2.49718 12 2.50001C6.48 2.50001 2 6.98001 2 12.5C2 18.02 6.48 22.5 12 22.5C17.52 22.5 22 18.02 22 12.5C22 11.31 21.78 10.17 21.4 9.11001L19.79 10.72Z" fill="#0071BD"/>
</svg>
