<svg width="49" height="48" viewBox="0 0 49 48" fill="none" xmlns="http://www.w3.org/2000/svg">
<path d="M14.5 44V42C13.4 42 12.4587 41.6087 11.676 40.826C10.8933 40.0433 10.5013 39.1013 10.5 38V16C10.5 14.9 10.892 13.9587 11.676 13.176C12.46 12.3933 13.4013 12.0013 14.5 12H18.5V6C18.5 5.43333 18.692 4.95867 19.076 4.576C19.46 4.19333 19.9347 4.00133 20.5 4H28.5C29.0667 4 29.542 4.192 29.926 4.576C30.31 4.96 30.5013 5.43467 30.5 6V12H34.5C35.6 12 36.542 12.392 37.326 13.176C38.11 13.96 38.5013 14.9013 38.5 16V38C38.5 39.1 38.1087 40.042 37.326 40.826C36.5433 41.61 35.6013 42.0013 34.5 42V44H30.5V42H18.5V44H14.5ZM22.5 12H26.5V8H22.5V12ZM24.5 24C26.2667 24 27.992 23.7753 29.676 23.326C31.36 22.8767 32.968 22.2013 34.5 21.3V16H14.5V21.3C16.0333 22.2 17.642 22.8753 19.326 23.326C21.01 23.7767 22.7347 24.0013 24.5 24ZM22.5 30V27.9C21.1 27.7333 19.7333 27.4833 18.4 27.15C17.0667 26.8167 15.7667 26.3667 14.5 25.8V38H34.5V25.8C33.2333 26.3667 31.9333 26.8167 30.6 27.15C29.2667 27.4833 27.9 27.7333 26.5 27.9V30H22.5Z" fill="#F7931E"/>
</svg>
