<svg width="20" height="20" viewBox="0 0 20 20" fill="none" xmlns="http://www.w3.org/2000/svg">
<path d="M5.70833 14.2917L3.04167 12.8333L3.91667 11.9583L6 12.25L9.25 9L2.75 5.45833L3.91667 4.29167L11.875 6.33333L15.1458 3.10417C15.3819 2.86806 15.6772 2.75 16.0317 2.75C16.3861 2.75 16.6811 2.86806 16.9167 3.10417C17.1528 3.34028 17.2708 3.63556 17.2708 3.99C17.2708 4.34444 17.1528 4.63944 16.9167 4.875L13.6667 8.125L15.7083 16.0833L14.5417 17.25L11 10.75L7.75 14L8.04167 16.0833L7.16667 16.9583L5.70833 14.2917Z" fill="#0071BD"/>
</svg>
