<svg width="49" height="48" viewBox="0 0 49 48" fill="none" xmlns="http://www.w3.org/2000/svg">
<path d="M24.5026 6C20.0026 6 17.5026 7.2 17.5026 7.2V12L13.9736 15.529C13.3806 16.122 13.7376 17.117 14.5736 17.177C16.5906 17.32 20.0076 17.5 24.5026 17.5C26.7086 17.5 28.6546 17.457 30.3026 17.396H30.2856C30.5316 18.2869 30.5685 19.2225 30.3934 20.13C30.2183 21.0374 29.836 21.8922 29.2762 22.6275C28.7164 23.3629 27.9942 23.959 27.1661 24.3694C26.338 24.7797 25.4263 24.9932 24.5021 24.9932C23.5779 24.9932 22.6662 24.7797 21.8381 24.3694C21.01 23.959 20.2878 23.3629 19.728 22.6275C19.1682 21.8922 18.7859 21.0374 18.6108 20.13C18.4357 19.2225 18.4726 18.2869 18.7186 17.396C17.9786 17.369 17.2986 17.338 16.6826 17.306C16.4308 18.473 16.4433 19.6815 16.7193 20.843C16.9953 22.0045 17.5278 23.0895 18.2777 24.0184C19.0275 24.9474 19.9758 25.6967 21.0529 26.2115C22.1301 26.7263 23.3088 26.9935 24.5026 26.9935C25.6964 26.9935 26.8751 26.7263 27.9523 26.2115C29.0294 25.6967 29.9777 24.9474 30.7275 24.0184C31.4774 23.0895 32.0099 22.0045 32.2859 20.843C32.5619 19.6815 32.5744 18.473 32.3226 17.306C33.026 17.2692 33.729 17.2259 34.4316 17.176C35.2676 17.116 35.6246 16.122 35.0316 15.529L31.5016 12V7.2C31.5016 7.2 29.0026 6 24.5026 6Z" fill="#F7931E"/>
<path fill-rule="evenodd" clip-rule="evenodd" d="M24.788 28.0425L31.33 29.9895L36.937 26.1735C37.0873 26.0711 37.2627 26.0117 37.4444 26.0015C37.626 25.9914 37.8069 26.031 37.9677 26.1161C38.1285 26.2012 38.263 26.3285 38.3568 26.4843C38.4506 26.6402 38.5001 26.8186 38.5 27.0005V32.0005H36.5V28.8905L32.5 31.6125V40.0005C32.5 40.7685 32.789 41.4705 33.264 42.0005H15.736C16.211 41.4705 16.5 40.7685 16.5 40.0005V31.5355L12.5 28.8695V32.0005H10.5V27.0005C10.5 26.8195 10.5491 26.6418 10.6421 26.4865C10.7352 26.3312 10.8686 26.2041 11.0282 26.1187C11.1879 26.0333 11.3677 25.9928 11.5485 26.0016C11.7293 26.0104 11.9044 26.0681 12.055 26.1685L17.751 29.9655L24.211 28.0425C24.3047 28.0142 24.4021 28 24.5 28.0005C24.583 28.0005 24.666 28.0105 24.747 28.0315L24.755 28.0335C24.7661 28.0367 24.7771 28.039 24.788 28.0425ZM25.5 30.3415L30.5 31.8295V40.0005H25.5V30.3415ZM18.5 31.8295L23.5 30.3415V40.0005H18.5V31.8295Z" fill="#F7931E"/>
<path d="M37.5 34C36.7044 34 35.9413 34.3161 35.3787 34.8787C34.8161 35.4413 34.5 36.2044 34.5 37V39C34.5 39.7956 34.8161 40.5587 35.3787 41.1213C35.9413 41.6839 36.7044 42 37.5 42H42.5V37C42.5 36.2044 42.1839 35.4413 41.6213 34.8787C41.0587 34.3161 40.2957 34 39.5 34H37.5ZM9.5 34C8.70435 34 7.94129 34.3161 7.37868 34.8787C6.81607 35.4413 6.5 36.2044 6.5 37V42H11.5C12.2956 42 13.0587 41.6839 13.6213 41.1213C14.1839 40.5587 14.5 39.7956 14.5 39V37C14.5 36.2044 14.1839 35.4413 13.6213 34.8787C13.0587 34.3161 12.2956 34 11.5 34H9.5Z" fill="#F7931E"/>
</svg>
