<svg width="20" height="21" viewBox="0 0 20 21" fill="none" xmlns="http://www.w3.org/2000/svg">
<path d="M9.16826 7.79094V10.8576C9.16826 11.1493 9.32659 11.4243 9.57659 11.5743L12.1766 13.1159C12.4766 13.2909 12.8599 13.1909 13.0349 12.8993C13.2099 12.5993 13.1183 12.2159 12.8183 12.0409L10.4266 10.6159V7.78261C10.4183 7.44928 10.1349 7.16594 9.79326 7.16594C9.45159 7.16594 9.16826 7.44928 9.16826 7.79094ZM17.5016 8.41594V4.00761C17.5016 3.63261 17.0516 3.44928 16.7933 3.71594L15.3099 5.19928C14.5293 4.41862 13.5862 3.81971 12.5476 3.44521C11.5091 3.07071 10.4008 2.92983 9.30159 3.03261C5.80993 3.34928 2.93493 6.15761 2.55159 9.64928C2.34896 11.6071 2.92408 13.5661 4.15288 15.1037C5.38167 16.6412 7.16565 17.6342 9.11996 17.8682C11.0743 18.1022 13.0423 17.5586 14.5994 16.3547C16.1565 15.1507 17.1779 13.3829 17.4433 11.4326C17.5016 10.9326 17.1099 10.4993 16.6099 10.4993C16.1933 10.4993 15.8433 10.8076 15.7933 11.2159C15.4349 14.1243 12.9266 16.3743 9.91826 16.3326C6.82659 16.2909 4.21826 13.6826 4.16826 10.5826C4.11826 7.33261 6.75993 4.66594 10.0016 4.66594C11.6099 4.66594 13.0683 5.32428 14.1266 6.37428L12.3849 8.11594C12.1183 8.38261 12.3016 8.83261 12.6766 8.83261H17.0849C17.3183 8.83261 17.5016 8.64928 17.5016 8.41594Z" fill="#F7931E"/>
</svg>
