<svg width="20" height="21" viewBox="0 0 20 21" fill="none" xmlns="http://www.w3.org/2000/svg">
<path d="M15.8776 4.58911C15.1136 3.81738 14.2036 3.2055 13.2006 2.78915C12.1977 2.37281 11.1219 2.16033 10.0359 2.16411C5.48594 2.16411 1.7776 5.87244 1.7776 10.4224C1.7776 11.8808 2.16094 13.2974 2.8776 14.5474L1.71094 18.8308L6.08594 17.6808C7.29427 18.3391 8.6526 18.6891 10.0359 18.6891C14.5859 18.6891 18.2943 14.9808 18.2943 10.4308C18.2943 8.22245 17.4359 6.14745 15.8776 4.58911ZM10.0359 17.2891C8.8026 17.2891 7.59427 16.9558 6.53594 16.3308L6.28594 16.1808L3.68594 16.8641L4.3776 14.3308L4.21094 14.0724C3.52573 12.9783 3.16189 11.7135 3.16094 10.4224C3.16094 6.63911 6.24427 3.55578 10.0276 3.55578C11.8609 3.55578 13.5859 4.27245 14.8776 5.57245C15.5172 6.20908 16.024 6.96633 16.3688 7.8003C16.7135 8.63427 16.8893 9.52837 16.8859 10.4308C16.9026 14.2141 13.8193 17.2891 10.0359 17.2891ZM13.8026 12.1558C13.5943 12.0558 12.5776 11.5558 12.3943 11.4808C12.2026 11.4141 12.0693 11.3808 11.9276 11.5808C11.7859 11.7891 11.3943 12.2558 11.2776 12.3891C11.1609 12.5308 11.0359 12.5474 10.8276 12.4391C10.6193 12.3391 9.9526 12.1141 9.16927 11.4141C8.5526 10.8641 8.14427 10.1891 8.01927 9.98078C7.9026 9.77245 8.0026 9.66411 8.11094 9.55578C8.2026 9.46411 8.31927 9.31411 8.41927 9.19744C8.51927 9.08078 8.56094 8.98911 8.6276 8.85578C8.69427 8.71411 8.66094 8.59745 8.61094 8.49745C8.56094 8.39745 8.14427 7.38078 7.9776 6.96411C7.81094 6.56411 7.63594 6.61411 7.51094 6.60578H7.11094C6.96927 6.60578 6.7526 6.65578 6.56094 6.86411C6.3776 7.07245 5.84427 7.57245 5.84427 8.58911C5.84427 9.60578 6.58594 10.5891 6.68594 10.7224C6.78594 10.8641 8.14427 12.9474 10.2109 13.8391C10.7026 14.0558 11.0859 14.1808 11.3859 14.2724C11.8776 14.4308 12.3276 14.4058 12.6859 14.3558C13.0859 14.2974 13.9109 13.8558 14.0776 13.3724C14.2526 12.8891 14.2526 12.4808 14.1943 12.3891C14.1359 12.2974 14.0109 12.2558 13.8026 12.1558Z" fill="currentColor"/>
</svg>
