<svg width="20" height="20" viewBox="0 0 20 20" fill="none" xmlns="http://www.w3.org/2000/svg">
<path d="M6.43464 13.7167L7.90214 13.2934L16.738 4.3517C16.8077 4.28028 16.8465 4.18432 16.846 4.08453C16.8455 3.98474 16.8058 3.88913 16.7355 3.81837L16.2063 3.28337C16.1721 3.24824 16.1313 3.22026 16.0861 3.20109C16.041 3.18191 15.9925 3.17191 15.9435 3.17168C15.8945 3.17145 15.8459 3.18098 15.8006 3.19973C15.7553 3.21848 15.7142 3.24606 15.6796 3.28087L6.86714 12.1992L6.43464 13.7167ZM17.2538 2.22337L17.783 2.7592C18.513 3.49837 18.5196 4.69087 17.7963 5.42254L8.6913 14.6375L5.55464 15.5409C5.36313 15.5945 5.15819 15.5699 4.98477 15.4726C4.81135 15.3752 4.68363 15.2131 4.62964 15.0217C4.58945 14.8841 4.58888 14.738 4.62797 14.6L5.54047 11.4L14.6213 2.2092C14.794 2.03534 14.9995 1.89759 15.226 1.804C15.4525 1.71041 15.6953 1.66285 15.9403 1.66409C16.1854 1.66533 16.4277 1.71535 16.6532 1.81123C16.8787 1.90711 17.0829 2.04776 17.2538 2.22337ZM7.65464 3.1842C8.06797 3.1842 8.40297 3.52337 8.40297 3.9417C8.40363 4.04059 8.38479 4.13864 8.34753 4.23025C8.31027 4.32185 8.25531 4.40521 8.18581 4.47556C8.11631 4.54592 8.03363 4.60188 7.94248 4.64025C7.85134 4.67863 7.75353 4.69866 7.65464 4.6992H4.6613C3.83464 4.6992 3.16464 5.37754 3.16464 6.21337V15.3017C3.16464 16.1384 3.83464 16.8167 4.6613 16.8167H13.6413C14.468 16.8167 15.1388 16.1384 15.1388 15.3017V12.2725C15.1388 11.8542 15.4738 11.515 15.8871 11.515C16.3005 11.515 16.6355 11.8542 16.6355 12.2734V15.3017C16.6355 16.975 15.2946 18.3317 13.6413 18.3317H4.6613C3.00797 18.3317 1.66797 16.975 1.66797 15.3017V6.21337C1.66797 4.54087 3.00797 3.1842 4.6613 3.1842H7.65464Z" fill="#F7931E"/>
</svg>
