<svg width="33" height="32" viewBox="0 0 33 32" fill="none" xmlns="http://www.w3.org/2000/svg">
<path d="M14.5703 18.6487L19.7852 15.6447L14.5703 12.6406V18.6487Z" fill="#0071BD"/>
<path d="M16.6965 0C7.89717 0 0.765625 6.99721 0.765625 15.6308C0.765625 24.2643 7.89717 31.2615 16.6965 31.2615C25.4958 31.2615 32.6273 24.2643 32.6273 15.6308C32.6273 6.99721 25.4958 0 16.6965 0ZM24.6619 18.4272C24.6619 21.1199 21.9176 21.1199 21.9176 21.1199H11.4754C8.73105 21.1199 8.73105 18.4272 8.73105 18.4272V12.8404C8.73105 10.1478 11.4754 10.1478 11.4754 10.1478H21.9176C24.6619 10.1478 24.6619 12.8404 24.6619 12.8404V18.4272Z" fill="#0071BD"/>
</svg>
